<svg xmlns="http://www.w3.org/2000/svg" viewBox="0 0 260.91 11.3"><defs><style>.cls-1{fill:#efc600;}</style></defs><title>Recurso 18</title><g id="Capa_2" data-name="Capa 2"><g id="Capa_1-2" data-name="Capa 1"><path class="cls-1" d="M136.52,6.11a1.43,1.43,0,0,0-.4-.71,3.12,3.12,0,0,0-.75-.4c-.51-.06-1.16-.07-2-.13-.41,0-1-.09-1.54-.16.43-.94.88-1.91,1.12-2.49a4.07,4.07,0,0,0,.52-1.67l0-.38c-.11-.13-.22-.17-.6-.18a1.43,1.43,0,0,0-.79.15,3.15,3.15,0,0,0-.62.59c-.22.47-.44,1.08-.77,1.88-.1.25-.24.56-.4.9-.77-1.42-1.32-2.38-1.62-2.83,0,0-.36-.42-.59-.45a.89.89,0,0,0-.67.16,2.15,2.15,0,0,0-.21.83,1.91,1.91,0,0,0,.3,1l1.29,2.17c-1.75-.18-2.93-.27-3.5-.27,0,0-.54.07-.7.26a1,1,0,0,0-.22.72,2.35,2.35,0,0,0,.6.7,1.8,1.8,0,0,0,1,.35l3,.17c-.85,1.87-1.39,3.14-1.59,3.73a1.44,1.44,0,0,0,0,.75,1,1,0,0,0,.61.43,2.4,2.4,0,0,0,.85-.35,1.81,1.81,0,0,0,.66-.86l1-2.4c.42.78.82,1.54,1.09,2a4.48,4.48,0,0,0,1,1.43l.31.21c.17,0,.25-.05.47-.31a1.2,1.2,0,0,0,.32-.67,3.1,3.1,0,0,0-.11-.81c-.24-.45-.59-1-1-1.75-.17-.29-.38-.68-.6-1.1,1,.1,1.91.21,2.5.25a4.06,4.06,0,0,0,1.75,0l.35-.15C136.63,6.58,136.62,6.46,136.52,6.11Z"/><path class="cls-1" d="M0,7.18q53.09-2.36,106.23-1c1.93.05,3.89-1.6,5.8-1.55Q58.91,3.26,5.8,5.63c-2,.09-3.86,1.47-5.8,1.55Z"/><path class="cls-1" d="M260.91,5.63q-53.09-2.36-106.23-1c-2,.05-3.86,1.5-5.8,1.55q53.12-1.4,106.23,1c1.92.09,3.91-1.64,5.8-1.55Z"/></g></g></svg>