<svg xmlns="http://www.w3.org/2000/svg" viewBox="0 0 681.93 253.49"><defs><style>.cls-1{fill:#f0c700;}.cls-2{fill:#682666;}.cls-3{fill:#e25e50;}.cls-24,.cls-4{fill:#cf0a2c;}.cls-5{fill:#edeef0;}.cls-6{fill:#f3dcc1;}.cls-7{fill:#d8dade;}.cls-8{fill:#643e00;}.cls-9{fill:#1e120d;}.cls-10{fill:#434040;}.cls-11{fill:#b0afb5;}.cls-12{fill:#f9c200;}.cls-13{fill:#474d51;}.cls-14{fill:#e65833;}.cls-15{fill:#f7f8f8;}.cls-16{fill:#1d1a14;}.cls-17{fill:#18160e;}.cls-18{fill:#e00109;}.cls-19{fill:#fff;}.cls-20{fill:#001781;}.cls-21,.cls-26{fill:#e26633;}.cls-22{fill:#960a53;}.cls-22,.cls-23,.cls-24,.cls-25,.cls-26{fill-rule:evenodd;}.cls-23{fill:#ffce00;}.cls-25{fill:#ce0056;}</style></defs><title>Recurso 2</title><g id="Capa_2" data-name="Capa 2"><g id="Capa_1-2" data-name="Capa 1"><path class="cls-1" d="M664,101.09a3.12,3.12,0,0,0,6.2.63,2.73,2.73,0,0,0,0-.85l1.16-11.32,9.1-1.45-.74,7.27a3.21,3.21,0,0,0-1.74-.74,3.25,3.25,0,1,0,2.92,3.56l0-.21h0l1-10.18a1.06,1.06,0,0,0-1-1.18h-.06L671,88.13a1.06,1.06,0,0,0-1.09,1l-1,9.78a3.17,3.17,0,0,0-1.52-.59A3.14,3.14,0,0,0,664,101.09Z"/><path class="cls-2" d="M558.24,15.12a1.63,1.63,0,0,0,3.24.33,1.43,1.43,0,0,0,0-.44l.6-5.91,4.75-.76-.39,3.8a1.67,1.67,0,0,0-.91-.39A1.69,1.69,0,1,0,567,13.61V13.5h0l.54-5.31a.56.56,0,0,0-.5-.62h0l-5.14.78a.55.55,0,0,0-.57.51l-.52,5.1a1.66,1.66,0,0,0-.79-.31A1.64,1.64,0,0,0,558.24,15.12Z"/><path class="cls-3" d="M524.95,97.95a1.63,1.63,0,0,0,3.24.33,1.43,1.43,0,0,0,0-.44l.6-5.91,4.75-.76-.39,3.8a1.67,1.67,0,0,0-.91-.39,1.69,1.69,0,1,0,1.52,1.86v-.11h0L534.3,91a.56.56,0,0,0-.5-.62h0l-5.14.78a.55.55,0,0,0-.57.51l-.52,5.1a1.66,1.66,0,0,0-.79-.31A1.64,1.64,0,0,0,524.95,97.95Z"/><path class="cls-4" d="M644,21.1a2.57,2.57,0,0,0,4.6,2.27,2.25,2.25,0,0,0,.21-.67l4.15-8.4,7.43,1.5-2.66,5.4a2.64,2.64,0,0,0-1.13-1.07,2.67,2.67,0,1,0,1.23,3.59l.08-.16h0L661.6,16a.88.88,0,0,0-.4-1.19l0,0-8-1.68a.88.88,0,0,0-1.12.43l-3.58,7.25a2.61,2.61,0,0,0-1-.89A2.58,2.58,0,0,0,644,21.1Z"/><ellipse class="cls-5" cx="594.82" cy="221.48" rx="60.11" ry="10.31"/><path class="cls-6" d="M548.65,145.9c-5.06-1-10.39.09-15.53-.5a2.62,2.62,0,0,1-1.52-.53.56.56,0,0,1-.21-.56.68.68,0,0,1,.27-.3,16.75,16.75,0,0,1,3.91-2.07c.26-.1.58-.3.5-.56a.46.46,0,0,0-.17-.21,2.93,2.93,0,0,0-1-.46c-1.91-.58-4-.72-5.73-1.65a2.89,2.89,0,0,1-1.59-1.72,1,1,0,0,1,.11-.84,1.41,1.41,0,0,1,1.36-.34c2.18.26,4.33.92,6.52.82a1.78,1.78,0,0,0,1.32-.47,9.14,9.14,0,0,0-2.28-.81,17.34,17.34,0,0,1-4.6-2.06,6.42,6.42,0,0,1-1.9-1.69,1.67,1.67,0,0,1-.34-.9.79.79,0,0,1,.49-.77,1.2,1.2,0,0,1,.54,0,36.29,36.29,0,0,1,7.67,1.94c.91.34,2,.67,2.74,0a.64.64,0,0,0,.22-.48.79.79,0,0,0-.14-.35c-1.2-1.89-3.38-2.87-5.23-4.13a2.58,2.58,0,0,1-1-1,1,1,0,0,1,.27-1.23,1.41,1.41,0,0,1,1.09,0,19.39,19.39,0,0,1,5.8,2.64,2.12,2.12,0,0,0,1.47.54A.4.4,0,0,0,542,128a.53.53,0,0,0,0-.39,5,5,0,0,1,.05-3.24c.14-.37.37-.77.76-.83s.84.39,1,.81a18.94,18.94,0,0,1,.94,2.93,15,15,0,0,0,1.36,3.17,6.31,6.31,0,0,0,2.12,2.38,7.7,7.7,0,0,0,3.37.86Z"/><path class="cls-7" d="M580.19,124l4-8.35s3.28-5.65,8-3.48,6.09,4.68,4.44,10.41-8.79,20.77-8.79,20.77-4.63,6.9-11.77,7.56-27.44-5.07-27.44-5.07l3-12.2,21.16.51s2.52.44,4.48-3.06A34.63,34.63,0,0,0,580.19,124Z"/><path class="cls-6" d="M623.39,108.39s-2.62,4.54-2.75,6c0,0-15.31,9.69-22.39,8.66-6.48-.94-6.78-9.31-6.56-12.67a26.14,26.14,0,0,0,.42-4.43s-8.77-2.18-12.22-3.77-4.73-2.51-4.54-6.82c0,0,.32-2.23.67-4.37.3-1.81,5.54.74,5.73-2.07.06-.91-5.17-.79-4.83-3.32A50.72,50.72,0,0,1,578,80s-3.71-1.86-3.65-3.58,17.82-27.58,22.22-28.6l42.15,35.9Z"/><path class="cls-5" d="M620.63,114.34s9.54,10.7,8.38,23.42-3.42,15.64-3.93,17.18-5.12,11.57-5.5,15.43h-37.5L580,141.47s-2-19.28,11.75-31.61a24.41,24.41,0,0,1,5.34,5,13.25,13.25,0,0,1,1.81,5.13S604.12,113,620.63,114.34Z"/><path class="cls-8" d="M611.84,42s-4.22-.19-6.43,0-9.41.1-9,4.51,1.82,9.79,9.6,17S616.83,79.41,615.29,83s-5.37,10.27-5.37,10.27l3.74,2.5,5.09-7.87s2.88-4.41,7-2,1.44,7.29-.48,8.73a6.75,6.75,0,0,1-4.7,1.79s-.7,9.28,2.82,12a156,156,0,0,1,10.94-13.95c6.72-7.68,12.54-12.67,10.81-26.55S616.67,42.05,611.84,42Z"/><path d="M621.32,88l.09-.06a2.49,2.49,0,0,1,2.66,0,2.07,2.07,0,0,1,.87,1.6,3.49,3.49,0,0,1-1.24,2.7h0a5.88,5.88,0,0,1-3.81,1.35,7.07,7.07,0,0,0-1.51.24l-1.64.5Zm.79.87-2.62,3.61.32,0a4.8,4.8,0,0,0,3.1-1.05h0a2.34,2.34,0,0,0,.87-1.78.94.94,0,0,0-.38-.73,1.07,1.07,0,0,0-.63-.19A1.56,1.56,0,0,0,622.11,88.92Z"/><path class="cls-9" d="M582.08,170.36s-16.57,7.62-17.42,8.3-7.11,4-4.28,11.64,9.16,22.6,9.16,22.6h12.54a72.28,72.28,0,0,0-3-20.38h18s3.34.17,5.22-.9l18.24,21.27h16.27a102.38,102.38,0,0,0-15.15-25.85s.68-5.05-2-16.69Z"/><path class="cls-10" d="M636.75,212.91l3.77,8.22h-5.22s-1-2.31-2.31-2.31-.68,1.8-1.88,2.31a21.07,21.07,0,0,1-6.88.86c-3,0-11.18.26-13.41-.6S608,218.9,608,218.48s.17-1.28,3.68-1.37,7.88-1,8.82-4.19Z"/><path class="cls-10" d="M582.64,212.91l1.63,8.22h-6s-.14-2.31-1.42-2.31-.68,1.8-1.88,2.31a21.07,21.07,0,0,1-6.88.86c-3,0-9.16.26-11.39-.6s-2.83-2.48-2.83-2.91.17-1.28,3.68-1.37,11-1,12-4.19Z"/><path d="M608.48,76.49a.58.58,0,0,1-.74-.19,15.66,15.66,0,0,0-4.64-6.17,66.07,66.07,0,0,0-7.9-5c-1-.54-2.21-1.41-1.82-2.14s1.15-1.12,3-.22a66.93,66.93,0,0,1,7.69,5.09C605.28,68.82,609.73,74.67,608.48,76.49Z"/><path class="cls-11" d="M607.67,126.89a5.36,5.36,0,0,0,2-.41c9.39-3.34,14-7.57,14.15-7.75l-1.31-2s-4.73,4.38-13.7,7.57a2.4,2.4,0,0,1-1.49.19c-.07,0-.15-.08-.22-.27-.88-2.32-2.31-6.14-3.66-7.49l-1.05.54c-.44.24-1,.61-1,.61.71.71,2.23,3.73,3.53,7.17a2.73,2.73,0,0,0,1.51,1.6A3.29,3.29,0,0,0,607.67,126.89Z"/><path class="cls-11" d="M592.81,122.4l.31,0a1.68,1.68,0,0,0,1.32-1.21,34.77,34.77,0,0,1,3.33-5.24s-.36-.69-.69-1.18c-.16-.24-.71-.89-.71-.89a58.86,58.86,0,0,0-3.87,5.92,39.81,39.81,0,0,1-4.79-5.52l-1.46,1.86C590.14,121.21,591.64,122.4,592.81,122.4Z"/><path d="M586.49,70.16c4-3.07,9.26.59,11.53,4.14.4.62-.6,1.19-1,.57-2-3.07-6.45-6.38-10-3.71-.59.45-1.15-.56-.57-1Z"/><path class="cls-11" d="M596,170.36c-.61-16.81-1-34.07,3.8-50.37h0a.78.78,0,0,0-.14-.76l-.69.73s-.16-1-.18-1a.75.75,0,0,0-.67.6c-4.89,16.45-4.46,33.87-3.85,50.84Z"/><polygon class="cls-12" points="549.64 131.12 548.42 133.25 553.52 136.19 554.75 134.07 552.22 132.61 549.64 131.12"/><path class="cls-13" d="M569.31,112.43c2.28-1.52,5.7-3.5,6.94-6.82,2-5.42-.58-7.92-3.05-9.35s-6-2.4-9.64,2.07c-2.25,2.73-2.24,6.65-2.41,9.38l4.08,2.36Z"/><polygon class="cls-14" points="565.23 110.07 561.14 107.71 561.04 107.65 549.6 131.1 549.86 131.24 552.22 132.61 554.58 133.97 554.83 134.12 569.42 112.49 569.31 112.43 565.23 110.07"/><path class="cls-6" d="M562.43,137.23c-4-3.94-9.58-6-13.94-9.6a2.86,2.86,0,0,1-1.08-1.39.61.61,0,0,1,.14-.64.74.74,0,0,1,.42-.11,18.25,18.25,0,0,1,4.81.41c.29.06.71.07.78-.22a.5.5,0,0,0,0-.29,3.19,3.19,0,0,0-.64-1c-1.41-1.65-3.21-3-4.28-4.89a3.15,3.15,0,0,1-.44-2.51,1.13,1.13,0,0,1,.59-.7c.5-.2,1,.14,1.45.48,1.84,1.52,3.43,3.39,5.49,4.6a1.94,1.94,0,0,0,1.48.35,10,10,0,0,0-1.62-2.09,18.89,18.89,0,0,1-3-4.6,7,7,0,0,1-.75-2.67,1.82,1.82,0,0,1,.22-1,.86.86,0,0,1,.9-.42,1.31,1.31,0,0,1,.5.31,39.53,39.53,0,0,1,5.89,6.3c.63.84,1.48,1.82,2.51,1.6a.7.7,0,0,0,.49-.31.86.86,0,0,0,.07-.4c0-2.44-1.41-4.62-2.36-6.87a2.81,2.81,0,0,1-.31-1.45,1.07,1.07,0,0,1,1-1,1.54,1.54,0,0,1,1,.62,21.13,21.13,0,0,1,3.76,5.84,2.31,2.31,0,0,0,1,1.36.44.44,0,0,0,.39,0,.58.58,0,0,0,.2-.37,5.46,5.46,0,0,1,2-2.94,1.24,1.24,0,0,1,1.19-.31c.47.21.54.85.48,1.36a20.64,20.64,0,0,1-.86,3.23,16.31,16.31,0,0,0-.62,3.71,6.87,6.87,0,0,0,.54,3.43,8.39,8.39,0,0,0,2.58,2.77Z"/><path class="cls-15" d="M604.21,135.78l8.56-5.31s6.34-3.25,9.42,1.54,2.83,7.88-2.05,12.16S599.85,158,599.85,158s-8.3,3.6-15.24,0-22.17-20.8-22.17-20.8l9.93-9.42,19.09,12.93s2.05,1.88,5.91-.17A37.73,37.73,0,0,0,604.21,135.78Z"/><ellipse class="cls-16" cx="623.17" cy="57.74" rx="10.65" ry="43.4" transform="translate(166.01 485.15) rotate(-48.37)"/><path class="cls-17" d="M608.24,38l5.55-6.22a4.64,4.64,0,0,1,4.55-1.73c2.91.58,12.37,2.81,22.33,12.24s14.19,16.07,15.14,19.76-2.28,7.91-7.33,11.77A103.5,103.5,0,0,1,627.37,58.5C614.35,46.09,608.24,38,608.24,38Z"/><path class="cls-18" d="M608.24,38s20.18,25.38,40.24,35.82l1-.76s-21-11.67-40.43-35.93Z"/><path class="cls-19" d="M609,37.2s20.29,25.48,40.34,35.92l1-.76s-21.08-11.77-40.53-36Z"/><path class="cls-20" d="M610,36.38s20.29,25.48,40.34,35.92l1-.76s-21.08-11.77-40.53-36Z"/><path class="cls-1" d="M471.21,182.9a2.91,2.91,0,0,0,4.83-3.25,2.55,2.55,0,0,0-.54-.58l-5.93-8.82,5.67-6.47,3.81,5.67a3,3,0,0,0-1.69.51,3,3,0,1,0,4.23.81l-.11-.17h0l-5.34-7.93a1,1,0,0,0-1.39-.27l-.05,0-6.18,7a1,1,0,0,0-.21,1.35l5.12,7.62a3,3,0,0,0-1.44.48A2.93,2.93,0,0,0,471.21,182.9Z"/><path class="cls-2" d="M73.7,217.41a2.28,2.28,0,1,0,4.24,1.65,2,2,0,0,0,.13-.6l3-7.74,6.68.75-1.94,5a2.34,2.34,0,0,0-1.08-.86,2.37,2.37,0,1,0,1.36,3.08l.06-.15h0l2.71-7a.78.78,0,0,0-.45-1l0,0-7.23-.86a.78.78,0,0,0-1,.47l-2.61,6.68a2.32,2.32,0,0,0-1-.71A2.29,2.29,0,0,0,73.7,217.41Z"/><path class="cls-21" d="M.12,175.4a2.52,2.52,0,0,0,4.8-1.52,2.21,2.21,0,0,0-.3-.61l-2.78-8.75,6.27-4,1.79,5.63a2.59,2.59,0,0,0-1.53,0,2.62,2.62,0,1,0,3.31,1.7l-.05-.17h0l-2.5-7.88A.86.86,0,0,0,8,159.24l0,0-6.82,4.28a.86.86,0,0,0-.5,1.07l2.4,7.56a2.56,2.56,0,0,0-1.31.05A2.53,2.53,0,0,0,.12,175.4Z"/><path class="cls-22" d="M170.49,185.78c1.43.63,3.92-.5,5.09,0,.83.35,0,.83-.35,1a28.32,28.32,0,0,0-3.95,2.49c-.8.87-.25,1.94.13,2.8.8,1.79.9,2.73.43,3s-1.16-.06-1.71-1c-.2-.33-.71-1.23-.91-1.48-.54-.59-1.1-1.08-2-.71-2,.83-5.42,3.52-4.62,1.6a13.51,13.51,0,0,1,1.2-2.2c.52-.93,1.45-1.91.47-2.65-.66-.5-1.5-1-2.22-1.43-.32-.18-.54-.37-.94-.64a2.36,2.36,0,0,1-.64-.69c-.1-.67.43-.69,1-.72s2.64.19,4,.34c.92.11,1.17,0,1.38-1.17a9.86,9.86,0,0,1,1.34-3.63c.16-.21.33-.28.48-.25a.7.7,0,0,1,.44.64,9.74,9.74,0,0,0,.48,3.4c.07.16.21.46.33.71s.2.41.6.59Z"/><path class="cls-23" d="M329.09,246.59c1,.05,2.26-1.21,3.08-1.2.58,0,.2.5,0,.72a18.39,18.39,0,0,0-1.81,2.43c-.28.72.3,1.23.73,1.66.9.9,1.18,1.45.95,1.7s-.72.23-1.26-.2c-.2-.15-.72-.58-.9-.68-.47-.23-.92-.4-1.36,0-1,1-2.46,3.39-2.43,2a8.77,8.77,0,0,1,.22-1.61c.1-.68.43-1.5-.33-1.71-.52-.15-1.13-.23-1.68-.35-.23,0-.42-.1-.72-.17A1.53,1.53,0,0,1,323,249c-.22-.38.1-.52.43-.67s1.65-.5,2.48-.72c.58-.15.7-.3.57-1a6.4,6.4,0,0,1,0-2.51c0-.17.13-.25.23-.27a.45.45,0,0,1,.42.28,6.32,6.32,0,0,0,1.08,1.95c.08.08.23.23.37.35a.61.61,0,0,0,.5.22Z"/><path class="cls-24" d="M166.58,2.8c1,.05,2.26-1.21,3.08-1.2.58,0,.2.5,0,.72a18.39,18.39,0,0,0-1.81,2.43c-.28.72.3,1.23.73,1.66.9.9,1.18,1.45.95,1.7s-.72.23-1.26-.2c-.2-.15-.72-.58-.9-.68-.47-.23-.92-.4-1.36,0-1,1-2.46,3.39-2.43,2a8.77,8.77,0,0,1,.22-1.61c.1-.68.43-1.5-.33-1.71-.52-.15-1.13-.23-1.68-.35-.23,0-.42-.1-.72-.17a1.53,1.53,0,0,1-.55-.27c-.22-.38.1-.52.43-.67s1.65-.5,2.48-.72c.58-.15.7-.3.57-1a6.4,6.4,0,0,1,0-2.51c0-.17.13-.25.23-.27a.45.45,0,0,1,.42.28,6.32,6.32,0,0,0,1.08,1.95c.08.08.23.23.37.35a.61.61,0,0,0,.5.22Z"/><path class="cls-23" d="M111.19,97.69c1,.05,2.26-1.21,3.08-1.2.58,0,.2.5,0,.72a18.39,18.39,0,0,0-1.81,2.43c-.28.72.3,1.23.73,1.66.9.9,1.18,1.45.95,1.7s-.72.23-1.26-.2c-.2-.15-.72-.58-.9-.68-.47-.23-.92-.4-1.36,0-1,1-2.46,3.39-2.43,2a8.77,8.77,0,0,1,.22-1.61c.1-.68.43-1.5-.33-1.71-.52-.15-1.13-.23-1.68-.35-.23,0-.42-.1-.72-.17a1.53,1.53,0,0,1-.55-.27c-.22-.38.1-.52.43-.67s1.65-.5,2.48-.72c.58-.15.7-.3.57-1a6.4,6.4,0,0,1,0-2.51c0-.17.13-.25.23-.27a.45.45,0,0,1,.42.28,6.32,6.32,0,0,0,1.08,1.95c.08.08.23.23.37.35a.61.61,0,0,0,.5.22Z"/><path class="cls-25" d="M512.12,236.1c1.56.08,3.49-1.87,4.74-1.85.9,0,.31.77.05,1.1a28.32,28.32,0,0,0-2.79,3.74c-.44,1.1.46,1.9,1.13,2.56,1.38,1.38,1.82,2.23,1.46,2.61s-1.1.36-1.95-.31c-.31-.23-1.1-.9-1.38-1.05-.72-.36-1.41-.61-2.1.05-1.56,1.49-3.79,5.23-3.74,3.15a13.51,13.51,0,0,1,.33-2.49c.15-1.05.67-2.31-.51-2.64-.79-.23-1.74-.36-2.59-.54-.36-.05-.64-.15-1.1-.26a2.36,2.36,0,0,1-.85-.41c-.33-.59.15-.79.67-1s2.54-.77,3.82-1.1c.9-.23,1.08-.46.87-1.59a9.86,9.86,0,0,1-.05-3.87c.08-.26.2-.38.36-.41a.7.7,0,0,1,.64.44,9.74,9.74,0,0,0,1.67,3c.13.13.36.36.56.54a.94.94,0,0,0,.77.33Z"/><path class="cls-26" d="M470.29,62.12c1.56.08,3.49-1.87,4.74-1.85.9,0,.31.77.05,1.1a28.32,28.32,0,0,0-2.79,3.74c-.44,1.1.46,1.9,1.13,2.56,1.38,1.38,1.82,2.23,1.46,2.61s-1.1.36-1.95-.31c-.31-.23-1.1-.9-1.38-1.05-.72-.36-1.41-.61-2.1.05-1.56,1.49-3.79,5.23-3.74,3.15a13.51,13.51,0,0,1,.33-2.49c.15-1.05.67-2.31-.51-2.64-.79-.23-1.74-.36-2.59-.54-.36-.05-.64-.15-1.1-.26a2.36,2.36,0,0,1-.85-.41c-.33-.59.15-.79.67-1s2.54-.77,3.82-1.1c.9-.23,1.08-.46.87-1.59a9.86,9.86,0,0,1-.05-3.87c.08-.26.2-.38.36-.41a.7.7,0,0,1,.64.44,9.74,9.74,0,0,0,1.67,3c.13.13.36.36.56.54a.94.94,0,0,0,.77.33Z"/></g></g></svg>