<svg xmlns="http://www.w3.org/2000/svg" viewBox="0 0 454.36 48.64"><defs><style>.cls-1{fill:#e25e50;}.cls-2{fill:#cf0a2c;}.cls-3{fill:#682666;}.cls-4{fill:#efc600;}.cls-5{fill:#f7f7f8;}.cls-6{fill:#eb8360;}.cls-7{fill:#046aa8;}.cls-8{fill:#fff;}</style></defs><title>Recurso 6</title><g id="Capa_2" data-name="Capa 2"><g id="Capa_1-2" data-name="Capa 1"><path class="cls-1" d="M0,10.34s3.74,1,7.39-4.27,5.09-7,7.84-5.65,2.34,3.7.65,9,1.46,8.25,1.46,8.25a7.54,7.54,0,0,1-5.47-3.91s-1.76,2.94-3.32,2.83S7.95,12,7.95,12,4.51,14.5,0,10.34Z"/><path class="cls-1" d="M306.37,26.46s3.36-.28,4.85-5.65,2.18-7.2,4.82-6.92,3,2.37,3.15,7.26,3.58,6.37,3.58,6.37a6.58,6.58,0,0,1-5.63-1.64s-.6,2.92-1.92,3.29-1.83-3.65-1.83-3.65S311.28,28.58,306.37,26.46Z"/><path class="cls-1" d="M157,37.65s3.74,1,7.39-4.27,5.09-7,7.84-5.65,2.34,3.7.65,9S174.29,45,174.29,45a7.54,7.54,0,0,1-5.47-3.91s-1.76,2.94-3.32,2.83-.59-4.64-.59-4.64S161.46,41.81,157,37.65Z"/><path class="cls-2" d="M74.69,30.34s3.74,1,7.39-4.27,5.09-7,7.84-5.65,2.34,3.7.65,9S92,37.72,92,37.72a7.54,7.54,0,0,1-5.47-3.91s-1.76,2.94-3.32,2.83S82.64,32,82.64,32,79.2,34.5,74.69,30.34Z"/><path class="cls-2" d="M237.65,35.52s3.26-2.07,1.92-8.32-1.61-8.47,1.22-9.59,4.29.82,7.06,5.7,7,4.57,7,4.57a7.54,7.54,0,0,1-6.59,1.33s.95,3.29-.2,4.36-3.8-2.73-3.8-2.73S243.77,35.07,237.65,35.52Z"/><path class="cls-2" d="M380.06,46.85s3.26-2.07,1.92-8.32-1.61-8.47,1.22-9.59,4.29.82,7.06,5.7,7,4.57,7,4.57a7.54,7.54,0,0,1-6.59,1.33s.95,3.29-.2,4.36-3.8-2.73-3.8-2.73S386.18,46.39,380.06,46.85Z"/><path class="cls-3" d="M38.57,23.24s3.13-.6,4-5.79,1.34-7,3.85-7,3,1.93,3.68,6.51,4,5.64,4,5.64a6.22,6.22,0,0,1-5.46-1s-.27,2.81-1.48,3.28-2.08-3.25-2.08-3.25S43.4,24.75,38.57,23.24Z"/><path class="cls-4" d="M120.07,38.64s3.13-.6,4-5.79,1.34-7,3.85-7,3,1.93,3.68,6.51,4,5.64,4,5.64a6.22,6.22,0,0,1-5.46-1s-.27,2.81-1.48,3.28-2.08-3.25-2.08-3.25S124.9,40.15,120.07,38.64Z"/><path class="cls-4" d="M274.15,14s3.13-.6,4-5.79,1.34-7,3.85-7,3,1.93,3.68,6.51,4,5.64,4,5.64a6.22,6.22,0,0,1-5.46-1s-.27,2.81-1.48,3.28-2.08-3.25-2.08-3.25S279,15.55,274.15,14Z"/><path class="cls-4" d="M417.28,44.69s3.13-.6,4-5.79,1.34-7,3.85-7,3,1.93,3.68,6.51,4,5.64,4,5.64a6.22,6.22,0,0,1-5.46-1s-.27,2.81-1.48,3.28-2.08-3.25-2.08-3.25S422.11,46.2,417.28,44.69Z"/><path class="cls-3" d="M200.34,40.12s2.59-1.86,1.2-6.93-1.72-6.9.56-8,3.57.47,6.07,4.36,6,3.44,6,3.44a6.22,6.22,0,0,1-5.36,1.4s.93,2.66,0,3.6S205.59,36,205.59,36,205.36,39.46,200.34,40.12Z"/><path class="cls-3" d="M343.83,32.12s3,.94,6.25-3.24,4.46-5.54,6.67-4.36,1.78,3.13.2,7.47.89,6.85.89,6.85a6.22,6.22,0,0,1-4.36-3.43s-1.56,2.35-2.85,2.21-.32-3.85-.32-3.85S347.39,35.72,343.83,32.12Z"/><path class="cls-5" d="M31.55,7.66c.75.26,2.81,1,5.3,1.72a.3.3,0,0,1,.21.36c-.47,1.77-3,11.52-3.84,16.56a.3.3,0,0,1-.55.12,34.22,34.22,0,0,1-4.21-8.67.31.31,0,0,1,0-.17l2.7-9.71A.3.3,0,0,1,31.55,7.66Z"/><path class="cls-6" d="M22.6,12s-1.35,6.3-1.82,9.65,2.33-1.42,7.1-3.9l1.1-4Z"/><path class="cls-7" d="M30.44,7c-1.83-.57-4.66-1.48-5.73-1.83a.44.44,0,0,0-.55.3L22.61,11a.44.44,0,0,0,.31.54l5.79,1.61a.44.44,0,0,0,.54-.31l1.49-5.37A.44.44,0,0,0,30.44,7ZM28.05,8.84a5,5,0,0,0-.65.5c-.13.17,0,.34.07.49.17.3.2.46.12.51s-.2,0-.32-.14-.14-.2-.18-.24-.21-.17-.36-.09c-.33.18-.89.71-.78.36a2.37,2.37,0,0,1,.17-.41c.08-.17.22-.36,0-.47s-.28-.14-.41-.21L25.58,9a.41.41,0,0,1-.12-.11c0-.12.06-.13.16-.14s.47,0,.7,0,.2,0,.22-.23a1.74,1.74,0,0,1,.17-.66s.05-.06.08-.05a.12.12,0,0,1,.09.1,1.71,1.71,0,0,0,.14.59l.07.12c0,.06,0,.07.11.09.26.09.68-.15.89-.09S28.11,8.79,28.05,8.84Z"/><path class="cls-5" d="M66.09,15.9c.78.15,2.92.55,5.49.93a.3.3,0,0,1,.26.33C71.64,19,70.51,29,70.44,34.1a.3.3,0,0,1-.52.2,34.22,34.22,0,0,1-5.42-8,.31.31,0,0,1,0-.17l1.27-10A.3.3,0,0,1,66.09,15.9Z"/><path class="cls-6" d="M57.87,21.5s-.43,6.43-.4,9.81,2.1-1.74,6.46-4.89l.52-4.09Z"/><path class="cls-7" d="M64.9,15.39c-1.9-.3-4.82-.79-5.93-1a.44.44,0,0,0-.51.38l-.73,5.75a.44.44,0,0,0,.38.49l6,.76a.44.44,0,0,0,.49-.38l.7-5.53A.44.44,0,0,0,64.9,15.39Zm-2.1,2.18a5,5,0,0,0-.57.59c-.1.18,0,.34.14.47s.27.43.2.49-.2,0-.33-.1-.17-.18-.22-.21-.23-.14-.37,0c-.31.22-.78.83-.72.47a2.37,2.37,0,0,1,.11-.43c.05-.18.17-.39,0-.47s-.3-.1-.44-.15l-.19-.07a.41.41,0,0,1-.14-.09c0-.11,0-.14.14-.16s.46-.08.69-.11.2-.06.19-.26a1.74,1.74,0,0,1,.08-.68s0-.06.07-.06a.12.12,0,0,1,.1.09,1.71,1.71,0,0,0,.22.56l.09.11a.16.16,0,0,0,.13.07c.27,0,.65-.25.87-.22S62.85,17.51,62.8,17.57Z"/><path class="cls-5" d="M109.68,24.18c.79.05,3,.19,5.57.26a.3.3,0,0,1,.3.3c0,1.83.11,11.91.66,17a.3.3,0,0,1-.5.26,34.22,34.22,0,0,1-6.35-7.26.31.31,0,0,1,0-.16l0-10.08A.3.3,0,0,1,109.68,24.18Z"/><path class="cls-6" d="M102.19,30.74s.35,6.44.79,9.79,1.88-2,5.82-5.64l0-4.12Z"/><path class="cls-7" d="M108.43,23.82c-1.92-.07-4.88-.2-6-.26A.44.44,0,0,0,102,24l0,5.8a.44.44,0,0,0,.44.44l6,0a.44.44,0,0,0,.44-.44l0-5.57A.44.44,0,0,0,108.43,23.82Zm-1.82,2.42a5,5,0,0,0-.49.66c-.08.19.08.33.2.45s.32.39.25.46-.19.06-.34-.06-.19-.16-.24-.19-.25-.11-.37,0c-.28.26-.67.92-.66.55a2.37,2.37,0,0,1,.06-.44c0-.18.12-.4-.09-.46s-.31-.06-.45-.1l-.19,0a.41.41,0,0,1-.15-.07c-.06-.1,0-.14.12-.18s.45-.13.67-.19.19-.08.15-.28a1.74,1.74,0,0,1,0-.68s0-.07.06-.07a.12.12,0,0,1,.11.08,1.71,1.71,0,0,0,.29.53l.1.1a.16.16,0,0,0,.13.06c.27,0,.61-.33.84-.32S106.65,26.18,106.61,26.24Z"/><path class="cls-5" d="M148.34,27.18c.79.05,3,.19,5.57.26a.3.3,0,0,1,.3.3c0,1.83.11,11.91.66,17a.3.3,0,0,1-.5.26A34.22,34.22,0,0,1,148,37.73a.31.31,0,0,1,0-.16l0-10.08A.3.3,0,0,1,148.34,27.18Z"/><path class="cls-6" d="M140.86,33.74s.35,6.44.79,9.79,1.88-2,5.82-5.64l0-4.12Z"/><path class="cls-7" d="M147.1,26.82c-1.92-.07-4.88-.2-6-.26a.44.44,0,0,0-.46.44l0,5.8a.44.44,0,0,0,.44.44l6,0a.44.44,0,0,0,.44-.44l0-5.57A.44.44,0,0,0,147.1,26.82Zm-1.82,2.42a5,5,0,0,0-.49.66c-.08.19.08.33.2.45s.32.39.25.46-.19.06-.34-.06-.19-.16-.24-.19-.25-.11-.37,0c-.28.26-.67.92-.66.55a2.37,2.37,0,0,1,.06-.44c0-.18.12-.4-.09-.46s-.31-.06-.45-.1l-.19,0a.41.41,0,0,1-.15-.07c-.06-.1,0-.14.12-.18s.45-.13.67-.19.19-.08.15-.28a1.74,1.74,0,0,1,0-.68s0-.07.06-.07a.12.12,0,0,1,.11.08,1.71,1.71,0,0,0,.29.53l.1.1a.16.16,0,0,0,.13.06c.27,0,.61-.33.84-.32S145.32,29.18,145.28,29.24Z"/><path class="cls-5" d="M188.71,26.9c.79-.05,3-.2,5.55-.48a.3.3,0,0,1,.33.25c.26,1.81,1.68,11.79,2.89,16.75a.3.3,0,0,1-.46.32,34.22,34.22,0,0,1-7.25-6.35.31.31,0,0,1-.07-.16l-1.28-10A.3.3,0,0,1,188.71,26.9Z"/><path class="cls-6" d="M182.16,34.39s1.2,6.34,2.07,9.6,1.6-2.22,5-6.35l-.52-4.09Z"/><path class="cls-7" d="M187.43,26.7c-1.91.19-4.87.44-6,.54a.44.44,0,0,0-.39.49l.74,5.75a.44.44,0,0,0,.49.38l6-.76a.44.44,0,0,0,.38-.49l-.71-5.52A.44.44,0,0,0,187.43,26.7Zm-1.48,2.63a5,5,0,0,0-.4.72c-.05.2.12.32.25.42s.37.35.31.42-.18.09-.35,0l-.26-.15c-.13,0-.26-.08-.37.06-.24.29-.54,1-.58.63a2.37,2.37,0,0,1,0-.44c0-.19.06-.42-.15-.45s-.31,0-.46,0l-.2,0a.41.41,0,0,1-.16-.05c-.07-.1,0-.14.09-.19s.43-.19.64-.28.18-.1.12-.3a1.74,1.74,0,0,1-.1-.67s0-.07.05-.08a.12.12,0,0,1,.12.06,1.71,1.71,0,0,0,.36.49l.11.08a.16.16,0,0,0,.14,0c.27,0,.57-.4.79-.43S186,29.27,185.94,29.34Z"/><path class="cls-5" d="M224.39,21.34c.68-.18,2.55-.68,4.75-1.35a.27.27,0,0,1,.33.16c.53,1.53,3.46,10,5.35,14.09a.27.27,0,0,1-.34.36,30.33,30.33,0,0,1-7.38-4.3.28.28,0,0,1-.09-.13l-2.8-8.48A.26.26,0,0,1,224.39,21.34Z"/><path class="cls-6" d="M220,29s2.12,5.31,3.43,8,1-2.2,3.3-6.38l-1.15-3.47Z"/><path class="cls-7" d="M223.24,21.39c-1.63.48-4.16,1.21-5.12,1.48a.39.39,0,0,0-.26.5l1.61,4.88a.39.39,0,0,0,.49.25L225,26.82a.39.39,0,0,0,.25-.49l-1.55-4.69A.39.39,0,0,0,223.24,21.39Zm-.85,2.54a4.42,4.42,0,0,0-.23.69c0,.18.16.26.29.32s.38.24.34.32-.15.11-.3,0l-.26-.09c-.12,0-.24,0-.31.11-.16.3-.31,1-.4.65a2.1,2.1,0,0,1-.07-.38c0-.16,0-.37-.21-.37l-.41,0-.18,0a.37.37,0,0,1-.15,0c-.08-.07,0-.13,0-.18s.34-.24.51-.35.14-.12.05-.28a1.54,1.54,0,0,1-.2-.57.08.08,0,0,1,0-.08.11.11,0,0,1,.12,0,1.52,1.52,0,0,0,.39.36l.11.05a.15.15,0,0,0,.13,0c.24-.06.42-.45.61-.5S222.42,23.87,222.4,23.94Z"/><path class="cls-8" d="M222.4,23.94a4.42,4.42,0,0,0-.23.69c0,.18.16.26.29.32s.38.24.34.32-.15.11-.3,0l-.26-.09c-.12,0-.24,0-.31.11-.16.3-.31,1-.4.65a2.1,2.1,0,0,1-.07-.38c0-.16,0-.37-.21-.37l-.41,0-.18,0a.37.37,0,0,1-.15,0c-.08-.07,0-.13,0-.18s.34-.24.51-.35.14-.12.05-.28a1.54,1.54,0,0,1-.2-.57.08.08,0,0,1,0-.08.11.11,0,0,1,.12,0,1.52,1.52,0,0,0,.39.36l.11.05a.15.15,0,0,0,.13,0c.24-.06.42-.45.61-.5S222.42,23.87,222.4,23.94Z"/><path class="cls-5" d="M261.92,10.64c.64-.28,2.41-1.07,4.48-2.09a.27.27,0,0,1,.35.11c.76,1.43,5,9.31,7.5,13.07a.27.27,0,0,1-.28.41,30.33,30.33,0,0,1-8-3.09.28.28,0,0,1-.1-.11L261.79,11A.26.26,0,0,1,261.92,10.64Z"/><path class="cls-6" d="M258.74,18.87s2.93,4.91,4.65,7.36.66-2.33,2.25-6.82L264,16.17Z"/><path class="cls-7" d="M260.79,10.87c-1.53.74-3.92,1.85-4.82,2.27a.39.39,0,0,0-.18.53l2.36,4.56a.39.39,0,0,0,.53.17L263.41,16a.39.39,0,0,0,.17-.53L261.31,11A.39.39,0,0,0,260.79,10.87Zm-.43,2.64a4.42,4.42,0,0,0-.12.72c0,.18.2.23.34.27.29.09.41.18.39.26s-.13.13-.29.1l-.27,0c-.13,0-.24,0-.29.16-.11.32-.15,1-.29.7a2.1,2.1,0,0,1-.13-.37c-.05-.16-.07-.37-.26-.33s-.27.08-.4.11l-.17,0a.37.37,0,0,1-.15,0c-.09-.06,0-.12,0-.19s.3-.29.45-.43.12-.14,0-.28a1.54,1.54,0,0,1-.28-.53.08.08,0,0,1,0-.08.11.11,0,0,1,.12,0,1.52,1.52,0,0,0,.45.3l.12,0a.15.15,0,0,0,.13,0c.22-.1.35-.51.52-.6S260.37,13.45,260.36,13.51Z"/><path class="cls-5" d="M302.1,10.12c.66.25,2.47.92,4.66,1.64a.27.27,0,0,1,.18.33c-.45,1.56-2.94,10.14-3.77,14.59a.27.27,0,0,1-.49.09A30.33,30.33,0,0,1,299.14,19a.28.28,0,0,1,0-.15l2.61-8.55A.26.26,0,0,1,302.1,10.12Z"/><path class="cls-6" d="M294.07,13.79s-1.34,5.56-1.82,8.51,2.1-1.21,6.38-3.3l1.07-3.49Z"/><path class="cls-7" d="M301.13,9.5c-1.61-.55-4.09-1.42-5-1.75a.39.39,0,0,0-.5.26l-1.5,4.91a.39.39,0,0,0,.26.49L299.45,15a.39.39,0,0,0,.49-.26L301.38,10A.39.39,0,0,0,301.13,9.5ZM299,11.08a4.42,4.42,0,0,0-.59.43c-.12.14,0,.3.05.43s.17.42.1.46-.18,0-.28-.13-.12-.18-.16-.22-.18-.16-.32-.09c-.3.15-.8.61-.7.3a2.1,2.1,0,0,1,.16-.36c.07-.15.2-.31,0-.42s-.24-.13-.36-.2l-.15-.09a.37.37,0,0,1-.11-.1c0-.1.06-.11.15-.12h.62c.14,0,.18,0,.2-.2a1.54,1.54,0,0,1,.17-.58s0,0,.07,0a.11.11,0,0,1,.08.09,1.52,1.52,0,0,0,.11.52l.06.11c0,.05,0,.06.1.08.23.08.6-.12.79-.06S299,11,299,11.08Z"/><path class="cls-5" d="M336.5,20.38c.69.13,2.59.48,4.87.81a.27.27,0,0,1,.23.29c-.18,1.61-1.15,10.5-1.21,15a.27.27,0,0,1-.46.17,30.33,30.33,0,0,1-4.82-7.05.28.28,0,0,1,0-.15l1.1-8.87A.26.26,0,0,1,336.5,20.38Z"/><path class="cls-6" d="M329.22,25.36s-.37,5.7-.34,8.7,1.86-1.55,5.72-4.35l.45-3.62Z"/><path class="cls-7" d="M335.44,19.93c-1.68-.26-4.28-.69-5.26-.86a.39.39,0,0,0-.45.34l-.63,5.1a.39.39,0,0,0,.34.43l5.28.66a.39.39,0,0,0,.43-.34l.61-4.9A.39.39,0,0,0,335.44,19.93Zm-1.86,1.93a4.42,4.42,0,0,0-.5.52c-.09.16,0,.3.13.42s.24.38.18.43-.18,0-.3-.09-.15-.16-.19-.19-.21-.12-.33,0c-.27.2-.69.74-.64.42A2.1,2.1,0,0,1,332,23c0-.16.15-.34,0-.42s-.26-.09-.39-.13l-.17-.06a.37.37,0,0,1-.12-.08c0-.1,0-.12.12-.15l.61-.1c.14,0,.18-.05.17-.23a1.54,1.54,0,0,1,.07-.6s0-.06.06-.06a.11.11,0,0,1,.09.08,1.52,1.52,0,0,0,.2.5l.08.09a.15.15,0,0,0,.11.07c.24,0,.58-.22.77-.19S333.63,21.82,333.59,21.86Z"/><path class="cls-8" d="M333.59,21.86a4.42,4.42,0,0,0-.5.52c-.09.16,0,.3.13.42s.24.38.18.43-.18,0-.3-.09-.15-.16-.19-.19-.21-.12-.33,0c-.27.2-.69.74-.64.42A2.1,2.1,0,0,1,332,23c0-.16.15-.34,0-.42s-.26-.09-.39-.13l-.17-.06a.37.37,0,0,1-.12-.08c0-.1,0-.12.12-.15l.61-.1c.14,0,.18-.05.17-.23a1.54,1.54,0,0,1,.07-.6s0-.06.06-.06a.11.11,0,0,1,.09.08,1.52,1.52,0,0,0,.2.5l.08.09a.15.15,0,0,0,.11.07c.24,0,.58-.22.77-.19S333.63,21.82,333.59,21.86Z"/><path class="cls-5" d="M407.76,31.21c.7.06,2.63.2,4.93.29a.27.27,0,0,1,.26.27c0,1.62,0,10.56.39,15.07a.27.27,0,0,1-.44.22,30.33,30.33,0,0,1-5.54-6.5.28.28,0,0,1,0-.15l.16-8.93A.26.26,0,0,1,407.76,31.21Z"/><path class="cls-6" d="M401,36.94s.24,5.71.59,8.68,1.69-1.74,5.22-4.93l.06-3.65Z"/><path class="cls-7" d="M406.65,30.87c-1.7-.08-4.33-.24-5.32-.29a.39.39,0,0,0-.41.38l-.09,5.14a.39.39,0,0,0,.38.4l5.32.09a.39.39,0,0,0,.4-.38l.09-4.94A.39.39,0,0,0,406.65,30.87ZM405,33a4.42,4.42,0,0,0-.45.58c-.07.17.07.3.17.4s.28.35.22.41-.17.05-.3-.05l-.21-.17c-.11-.06-.22-.1-.33,0s-.61.8-.59.48a2.1,2.1,0,0,1,.06-.39c0-.16.11-.36-.07-.41s-.27-.06-.4-.09l-.17,0a.37.37,0,0,1-.13-.07c-.05-.09,0-.12.11-.16l.6-.16c.14,0,.17-.07.14-.25a1.54,1.54,0,0,1,0-.6s0-.06.06-.06a.11.11,0,0,1,.1.07,1.52,1.52,0,0,0,.25.47l.09.09a.15.15,0,0,0,.12.05c.24,0,.55-.28.74-.27S405.06,32.94,405,33Z"/><path class="cls-5" d="M447.29,32.8c.7,0,2.64-.05,4.94-.18a.27.27,0,0,1,.28.24c.15,1.62,1,10.51,1.84,15a.27.27,0,0,1-.42.26,30.33,30.33,0,0,1-6.14-5.94.28.28,0,0,1-.05-.14l-.7-8.91A.26.26,0,0,1,447.29,32.8Z"/><path class="cls-6" d="M441.17,39.15s.79,5.66,1.42,8.59,1.51-1.89,4.72-5.41L447,38.69Z"/><path class="cls-7" d="M446.16,32.58c-1.7.08-4.33.18-5.33.22a.39.39,0,0,0-.37.42l.4,5.12a.39.39,0,0,0,.42.36l5.31-.42a.39.39,0,0,0,.36-.42l-.39-4.92A.39.39,0,0,0,446.16,32.58Zm-1.43,2.27a4.42,4.42,0,0,0-.39.62c-.05.18.1.29.21.38s.31.32.26.39-.17.07-.31,0l-.23-.15c-.12,0-.23-.08-.33,0s-.53.86-.54.54a2.1,2.1,0,0,1,0-.39c0-.17.08-.37-.11-.4l-.41-.05-.17,0a.37.37,0,0,1-.14-.05c-.06-.09,0-.13.09-.17s.38-.15.58-.22.16-.09.12-.26a1.54,1.54,0,0,1-.06-.6s0-.06.05-.07a.11.11,0,0,1,.1.06,1.52,1.52,0,0,0,.3.45l.09.08a.15.15,0,0,0,.12,0c.24,0,.52-.33.71-.34S444.77,34.79,444.74,34.85Z"/><path class="cls-8" d="M444.74,34.85a4.42,4.42,0,0,0-.39.62c-.05.18.1.29.21.38s.31.32.26.39-.17.07-.31,0l-.23-.15c-.12,0-.23-.08-.33,0s-.53.86-.54.54a2.1,2.1,0,0,1,0-.39c0-.17.08-.37-.11-.4l-.41-.05-.17,0a.37.37,0,0,1-.14-.05c-.06-.09,0-.13.09-.17s.38-.15.58-.22.16-.09.12-.26a1.54,1.54,0,0,1-.06-.6s0-.06.05-.07a.11.11,0,0,1,.1.06,1.52,1.52,0,0,0,.3.45l.09.08a.15.15,0,0,0,.12,0c.24,0,.52-.33.71-.34S444.77,34.79,444.74,34.85Z"/><path class="cls-5" d="M372.13,27.5c.69.13,2.59.48,4.87.81a.27.27,0,0,1,.23.29c-.18,1.61-1.15,10.5-1.21,15a.27.27,0,0,1-.46.17,30.33,30.33,0,0,1-4.82-7.05.28.28,0,0,1,0-.15l1.1-8.87A.26.26,0,0,1,372.13,27.5Z"/><path class="cls-6" d="M364.85,32.49s-.37,5.7-.34,8.7,1.86-1.55,5.72-4.35l.45-3.62Z"/><path class="cls-7" d="M371.07,27.05c-1.68-.26-4.28-.69-5.26-.86a.39.39,0,0,0-.45.34l-.63,5.1a.39.39,0,0,0,.34.43l5.28.66a.39.39,0,0,0,.43-.34l.61-4.9A.39.39,0,0,0,371.07,27.05ZM369.21,29a4.42,4.42,0,0,0-.5.52c-.09.16,0,.3.13.42s.24.38.18.43-.18,0-.3-.09-.15-.16-.19-.19-.21-.12-.33,0c-.27.2-.69.74-.64.42a2.1,2.1,0,0,1,.1-.38c0-.16.15-.34,0-.42s-.26-.09-.39-.13l-.17-.06a.37.37,0,0,1-.12-.08c0-.1,0-.12.12-.15l.61-.1c.14,0,.18-.05.17-.23a1.54,1.54,0,0,1,.07-.6s0-.06.06-.06a.11.11,0,0,1,.09.08,1.52,1.52,0,0,0,.2.5l.08.09a.15.15,0,0,0,.11.07c.24,0,.58-.22.77-.19S369.26,28.94,369.21,29Z"/></g></g></svg>