<svg xmlns="http://www.w3.org/2000/svg" viewBox="0 0 370.11 51.32"><defs><style>.cls-1{fill:#e25e50;}.cls-2{fill:#cf0a2c;}.cls-3{fill:#682666;}.cls-4{fill:#efc600;}.cls-5{fill:#f7f7f8;}.cls-6{fill:#eb8360;}.cls-7{fill:#046aa8;}.cls-8{fill:#fff;}</style></defs><title>Recurso 19</title><g id="Capa_2" data-name="Capa 2"><g id="POP_UP" data-name="POP UP"><path class="cls-1" d="M171.6,11.78s4.26,1.1,8.41-4.87S185.82-1,189,.48s2.66,4.21.74,10.3,1.66,9.4,1.66,9.4-4.4-.57-6.23-4.45c0,0-2,3.34-3.79,3.22s-.68-5.29-.68-5.29S176.74,16.52,171.6,11.78Z"/><path class="cls-1" d="M350.36,42.88s4.26,1.1,8.41-4.87,5.8-7.93,8.93-6.44,2.66,4.21.74,10.3,1.66,9.4,1.66,9.4-4.4-.57-6.23-4.45c0,0-2,3.34-3.79,3.22s-.68-5.29-.68-5.29S355.49,47.62,350.36,42.88Z"/><path class="cls-2" d="M256.67,34.56s4.26,1.1,8.41-4.87,5.8-7.93,8.93-6.44,2.66,4.21.74,10.3,1.66,9.4,1.66,9.4-4.4-.57-6.23-4.45c0,0-2,3.34-3.79,3.22s-.68-5.29-.68-5.29S261.8,39.29,256.67,34.56Z"/><path class="cls-3" d="M215.53,26.47s3.56-.68,4.56-6.59,1.53-8,4.39-7.95,3.47,2.2,4.19,7.42,4.55,6.42,4.55,6.42A7.08,7.08,0,0,1,227,24.65s-.31,3.2-1.69,3.74-2.37-3.7-2.37-3.7S221,28.19,215.53,26.47Z"/><path class="cls-4" d="M308.35,44s3.56-.68,4.56-6.59,1.53-8,4.39-7.95,3.47,2.2,4.19,7.42S326,43.31,326,43.31a7.08,7.08,0,0,1-6.21-1.12s-.31,3.2-1.69,3.74-2.37-3.7-2.37-3.7S313.85,45.73,308.35,44Z"/><path class="cls-5" d="M207.54,8.73c.85.3,3.2,1.1,6,2a.34.34,0,0,1,.24.41c-.53,2-3.45,13.12-4.37,18.86a.34.34,0,0,1-.62.13,39,39,0,0,1-4.8-9.88.36.36,0,0,1,0-.2L207.1,9A.34.34,0,0,1,207.54,8.73Z"/><path class="cls-6" d="M197.35,13.69s-1.54,7.18-2.07,11,2.66-1.62,8.09-4.45l1.26-4.52Z"/><path class="cls-7" d="M206.28,8c-2.09-.65-5.3-1.69-6.52-2.08a.5.5,0,0,0-.63.34l-1.77,6.36a.5.5,0,0,0,.35.62L204.29,15a.5.5,0,0,0,.62-.35l1.7-6.11A.5.5,0,0,0,206.28,8Zm-2.72,2.11a5.68,5.68,0,0,0-.74.57c-.14.19,0,.39.08.56.19.34.23.53.14.58s-.23,0-.36-.16-.16-.23-.21-.28-.24-.19-.41-.1c-.38.2-1,.81-.89.41a2.7,2.7,0,0,1,.2-.46c.09-.19.25-.41,0-.54s-.32-.16-.47-.24l-.2-.11a.47.47,0,0,1-.14-.12c0-.13.07-.15.18-.16s.53,0,.8,0,.23,0,.25-.26A2,2,0,0,1,202,9s.06-.06.09-.06a.14.14,0,0,1,.1.12,2,2,0,0,0,.16.67l.08.13c0,.07,0,.08.13.11.3.1.77-.17,1-.1S203.62,10,203.56,10.06Z"/><path class="cls-5" d="M246.88,18.11c.88.17,3.33.63,6.26,1.06a.34.34,0,0,1,.29.38c-.24,2.07-1.52,13.48-1.6,19.3a.34.34,0,0,1-.6.22A39,39,0,0,1,245.06,30a.36.36,0,0,1,0-.19l1.45-11.39A.34.34,0,0,1,246.88,18.11Z"/><path class="cls-6" d="M237.51,24.49S237,31.82,237,35.66s2.4-2,7.36-5.57l.59-4.65Z"/><path class="cls-7" d="M245.52,17.53c-2.16-.34-5.49-.9-6.76-1.12a.5.5,0,0,0-.58.43l-.83,6.55a.5.5,0,0,0,.43.56l6.79.86a.5.5,0,0,0,.56-.43l.8-6.29A.5.5,0,0,0,245.52,17.53ZM243.13,20a5.68,5.68,0,0,0-.65.67c-.11.21,0,.39.16.54.24.31.31.49.22.56s-.23,0-.38-.11-.2-.21-.25-.24-.26-.16-.42,0c-.35.26-.89.94-.82.53a2.7,2.7,0,0,1,.13-.49c.06-.2.19-.44,0-.54s-.34-.12-.5-.17l-.21-.08a.47.47,0,0,1-.16-.1c-.05-.13.05-.15.16-.19s.52-.09.79-.12.23-.06.21-.29a2,2,0,0,1,.09-.77s.05-.07.08-.07a.14.14,0,0,1,.12.1,2,2,0,0,0,.26.64l.1.12a.19.19,0,0,0,.14.09c.31.05.74-.28,1-.25S243.19,19.95,243.13,20Z"/><path class="cls-5" d="M296.51,27.54c.9.06,3.38.22,6.34.29a.34.34,0,0,1,.34.34c0,2.08.13,13.57.75,19.35a.34.34,0,0,1-.56.29,39,39,0,0,1-7.23-8.26.36.36,0,0,1-.05-.19l.06-11.48A.34.34,0,0,1,296.51,27.54Z"/><path class="cls-6" d="M288,35s.4,7.33.9,11.15,2.14-2.26,6.63-6.42l0-4.69Z"/><path class="cls-7" d="M295.09,27.13c-2.18-.08-5.56-.23-6.84-.29a.5.5,0,0,0-.52.5l0,6.6a.5.5,0,0,0,.5.5l6.84,0a.5.5,0,0,0,.5-.5l0-6.34A.5.5,0,0,0,295.09,27.13ZM293,29.88a5.68,5.68,0,0,0-.56.75c-.09.22.09.38.22.51s.36.45.29.52-.22.07-.39-.06-.22-.18-.28-.21-.28-.12-.42,0c-.31.3-.76,1-.75.63a2.7,2.7,0,0,1,.07-.5c0-.21.14-.46-.1-.53s-.35-.07-.52-.11l-.22-.05a.47.47,0,0,1-.17-.08c-.07-.12,0-.16.13-.2s.51-.15.77-.22.22-.09.18-.32a2,2,0,0,1,0-.78c0-.05,0-.08.07-.08a.14.14,0,0,1,.13.09,2,2,0,0,0,.33.6l.11.11a.19.19,0,0,0,.15.07c.31,0,.7-.37,1-.36S293.07,29.81,293,29.88Z"/><path class="cls-5" d="M340.55,31c.9.06,3.38.22,6.34.29a.34.34,0,0,1,.34.34c0,2.08.13,13.57.75,19.35a.34.34,0,0,1-.56.29A39,39,0,0,1,340.19,43a.36.36,0,0,1-.05-.19l.06-11.48A.34.34,0,0,1,340.55,31Z"/><path class="cls-6" d="M332,38.43s.4,7.33.9,11.15,2.14-2.26,6.63-6.42l0-4.69Z"/><path class="cls-7" d="M339.13,30.55c-2.18-.08-5.56-.23-6.84-.29a.5.5,0,0,0-.52.5l0,6.6a.5.5,0,0,0,.5.5l6.84,0a.5.5,0,0,0,.5-.5l0-6.34A.5.5,0,0,0,339.13,30.55Zm-2.07,2.75a5.68,5.68,0,0,0-.56.75c-.09.22.09.38.22.51s.36.45.29.52-.22.07-.39-.06-.22-.18-.28-.21-.28-.12-.42,0c-.31.3-.76,1-.75.63a2.7,2.7,0,0,1,.07-.5c0-.21.14-.46-.1-.53s-.35-.07-.52-.11l-.22-.05a.47.47,0,0,1-.17-.08c-.07-.12,0-.16.13-.2s.51-.15.77-.22.22-.09.18-.32a2,2,0,0,1,0-.78c0-.05,0-.08.07-.08a.14.14,0,0,1,.13.09,2,2,0,0,0,.33.6l.11.11a.19.19,0,0,0,.15.07c.31,0,.7-.37,1-.36S337.11,33.23,337.06,33.3Z"/><path class="cls-1" d="M42,42.88S46.26,44,50.42,38s5.8-7.93,8.93-6.44,2.66,4.21.74,10.3,1.66,9.4,1.66,9.4-4.4-.57-6.23-4.45c0,0-2,3.34-3.79,3.22s-.68-5.29-.68-5.29S47.14,47.62,42,42.88Z"/><path class="cls-2" d="M133.91,40.46s3.71-2.36,2.19-9.47-1.84-9.65,1.39-10.92,4.89.93,8,6.49,8,5.21,8,5.21-3.42,2.82-7.51,1.52c0,0,1.08,3.74-.23,5s-4.33-3.11-4.33-3.11S140.88,39.94,133.91,40.46Z"/><path class="cls-4" d="M0,44s3.56-.68,4.56-6.59,1.53-8,4.39-7.95,3.47,2.2,4.19,7.42,4.55,6.42,4.55,6.42a7.08,7.08,0,0,1-6.21-1.12s-.31,3.2-1.69,3.74-2.37-3.7-2.37-3.7S5.5,45.73,0,44Z"/><path class="cls-3" d="M91.42,45.7s2.95-2.11,1.36-7.9-2-7.86.64-9.06,4.07.54,6.92,5,6.83,3.92,6.83,3.92a7.08,7.08,0,0,1-6.11,1.59s1.06,3,0,4.1S97.4,41,97.4,41,97.14,44.94,91.42,45.7Z"/><path class="cls-5" d="M32.2,31c.9.06,3.38.22,6.34.29a.34.34,0,0,1,.34.34c0,2.08.13,13.57.75,19.35a.34.34,0,0,1-.56.29A39,39,0,0,1,31.83,43a.36.36,0,0,1-.05-.19l.06-11.48A.34.34,0,0,1,32.2,31Z"/><path class="cls-6" d="M23.67,38.43s.4,7.33.9,11.15,2.14-2.26,6.63-6.42l0-4.69Z"/><path class="cls-7" d="M30.78,30.55c-2.18-.08-5.56-.23-6.84-.29a.5.5,0,0,0-.52.5l0,6.6a.5.5,0,0,0,.5.5l6.84,0a.5.5,0,0,0,.5-.5l0-6.34A.5.5,0,0,0,30.78,30.55ZM28.71,33.3a5.68,5.68,0,0,0-.56.75c-.09.22.09.38.22.51s.36.45.29.52-.22.07-.39-.06-.22-.18-.28-.21-.28-.12-.42,0c-.31.3-.76,1-.75.63a2.7,2.7,0,0,1,.07-.5c0-.21.14-.46-.1-.53s-.35-.07-.52-.11l-.22-.05a.47.47,0,0,1-.17-.08c-.07-.12,0-.16.13-.2s.51-.15.77-.22.22-.09.18-.32a2,2,0,0,1,0-.78c0-.05,0-.08.07-.08a.14.14,0,0,1,.13.09,2,2,0,0,0,.33.6l.11.11a.19.19,0,0,0,.15.07c.31,0,.7-.37,1-.36S28.76,33.23,28.71,33.3Z"/><path class="cls-5" d="M78.18,30.63c.9-.06,3.38-.23,6.32-.54a.34.34,0,0,1,.38.29c.29,2.06,1.92,13.43,3.29,19.08a.34.34,0,0,1-.52.37,39,39,0,0,1-8.26-7.24.36.36,0,0,1-.08-.18L77.86,31A.34.34,0,0,1,78.18,30.63Z"/><path class="cls-6" d="M70.71,39.17s1.37,7.22,2.36,10.93,1.82-2.52,5.72-7.24l-.6-4.65Z"/><path class="cls-7" d="M76.72,30.41c-2.18.21-5.54.5-6.82.61a.5.5,0,0,0-.45.56l.84,6.55a.5.5,0,0,0,.56.43l6.79-.87a.5.5,0,0,0,.43-.56l-.81-6.29A.5.5,0,0,0,76.72,30.41Zm-1.69,3a5.68,5.68,0,0,0-.46.81c-.06.23.14.36.29.48.31.24.42.4.36.48s-.21.1-.39,0-.24-.15-.3-.17-.3-.09-.42.06c-.27.34-.62,1.14-.66.72a2.7,2.7,0,0,1,0-.5c0-.21.07-.48-.17-.51s-.36,0-.53,0l-.23,0a.47.47,0,0,1-.18-.06c-.08-.11,0-.16.11-.22s.48-.22.73-.32.2-.12.13-.34A2,2,0,0,1,73.2,33c0-.05,0-.08.06-.09a.14.14,0,0,1,.14.07,2,2,0,0,0,.41.55l.13.09a.19.19,0,0,0,.16,0c.31,0,.64-.46.89-.49S75.07,33.34,75,33.41Z"/><path class="cls-5" d="M118.81,24.31c.77-.2,2.9-.77,5.41-1.54a.3.3,0,0,1,.38.19c.6,1.75,3.94,11.36,6.09,16a.3.3,0,0,1-.39.41,34.54,34.54,0,0,1-8.41-4.9.31.31,0,0,1-.1-.14l-3.19-9.66A.3.3,0,0,1,118.81,24.31Z"/><path class="cls-6" d="M113.76,33s2.41,6,3.9,9.11,1.16-2.5,3.76-7.26l-1.3-3.95Z"/><path class="cls-7" d="M117.5,24.36c-1.86.55-4.74,1.37-5.83,1.69a.44.44,0,0,0-.3.57l1.84,5.56a.44.44,0,0,0,.56.28l5.76-1.9a.44.44,0,0,0,.28-.56l-1.76-5.34A.44.44,0,0,0,117.5,24.36Zm-1,2.9a5,5,0,0,0-.26.79c0,.21.18.29.33.37.31.16.43.27.39.36s-.17.12-.35.06l-.29-.1c-.14,0-.27,0-.35.13-.18.34-.35,1.09-.46.74a2.39,2.39,0,0,1-.08-.44c0-.19,0-.43-.23-.42s-.31,0-.47.05l-.2,0a.42.42,0,0,1-.17,0c-.09-.08,0-.14.06-.21s.38-.27.58-.4.16-.14.06-.32a1.75,1.75,0,0,1-.22-.65.09.09,0,0,1,0-.09.12.12,0,0,1,.13,0,1.73,1.73,0,0,0,.45.41l.13.06a.17.17,0,0,0,.15,0c.27-.07.48-.51.7-.58S116.56,27.19,116.54,27.26Z"/><path class="cls-8" d="M116.54,27.26a5,5,0,0,0-.26.79c0,.21.18.29.33.37.31.16.43.27.39.36s-.17.12-.35.06l-.29-.1c-.14,0-.27,0-.35.13-.18.34-.35,1.09-.46.74a2.39,2.39,0,0,1-.08-.44c0-.19,0-.43-.23-.42s-.31,0-.47.05l-.2,0a.42.42,0,0,1-.17,0c-.09-.08,0-.14.06-.21s.38-.27.58-.4.16-.14.06-.32a1.75,1.75,0,0,1-.22-.65.09.09,0,0,1,0-.09.12.12,0,0,1,.13,0,1.73,1.73,0,0,0,.45.41l.13.06a.17.17,0,0,0,.15,0c.27-.07.48-.51.7-.58S116.56,27.19,116.54,27.26Z"/><path class="cls-5" d="M161.55,12.12c.73-.32,2.74-1.22,5.1-2.38a.3.3,0,0,1,.4.13c.87,1.63,5.68,10.6,8.55,14.88a.3.3,0,0,1-.32.46,34.54,34.54,0,0,1-9.07-3.51.31.31,0,0,1-.12-.13l-4.68-9A.3.3,0,0,1,161.55,12.12Z"/><path class="cls-6" d="M157.93,21.49s3.33,5.59,5.29,8.38.75-2.66,2.57-7.77l-1.91-3.69Z"/><path class="cls-7" d="M160.27,12.38c-1.75.84-4.46,2.11-5.49,2.59a.44.44,0,0,0-.2.6l2.69,5.2a.44.44,0,0,0,.6.19l5.39-2.79a.44.44,0,0,0,.19-.6l-2.58-5A.44.44,0,0,0,160.27,12.38Zm-.5,3a5,5,0,0,0-.14.82c0,.21.23.26.39.31.33.11.47.2.44.29s-.14.15-.33.11l-.3-.05c-.14,0-.27,0-.33.18-.13.36-.17,1.13-.33.8a2.39,2.39,0,0,1-.15-.42c-.06-.18-.08-.42-.3-.37s-.3.09-.45.13l-.19,0a.42.42,0,0,1-.17,0c-.1-.07,0-.14,0-.22s.34-.33.51-.49.13-.16,0-.32a1.75,1.75,0,0,1-.32-.61.09.09,0,0,1,0-.09.12.12,0,0,1,.14,0,1.73,1.73,0,0,0,.51.34l.13,0a.17.17,0,0,0,.15,0c.25-.12.4-.58.6-.68S159.79,15.32,159.77,15.39Z"/></g></g></svg>