<svg xmlns="http://www.w3.org/2000/svg" viewBox="0 0 717.01 180.72"><defs><style>.cls-1{fill:#efc600;}.cls-2{fill:#e16633;}.cls-3{fill:#c3c6c8;}.cls-4{fill:#950a53;}.cls-4,.cls-5,.cls-6{fill-rule:evenodd;}.cls-5{fill:#ffce00;}.cls-6{fill:#ce0055;}</style></defs><title>Recurso 22</title><g id="Capa_2" data-name="Capa 2"><g id="POP_UP" data-name="POP UP"><path class="cls-1" d="M581.29,27.83a2.11,2.11,0,0,0,3.49-2.35,1.85,1.85,0,0,0-.39-.42l-4.29-6.38,4.1-4.68L587,18.1a2.17,2.17,0,0,0-1.22.37,2.19,2.19,0,1,0,3.06.59l-.08-.12h0l-3.86-5.74a.72.72,0,0,0-1-.2l0,0-4.47,5a.72.72,0,0,0-.15,1l3.7,5.51a2.14,2.14,0,0,0-1,.35A2.12,2.12,0,0,0,581.29,27.83Z"/><path class="cls-1" d="M2.23,177.9a2.11,2.11,0,0,0,3.49-2.35,1.85,1.85,0,0,0-.39-.42L1,168.76l4.1-4.68,2.76,4.1a2.17,2.17,0,0,0-1.22.37,2.19,2.19,0,1,0,3.06.59L9.65,169h0l-3.86-5.74a.72.72,0,0,0-1-.2l0,0-4.47,5a.72.72,0,0,0-.15,1l3.7,5.51a2.14,2.14,0,0,0-1,.35A2.12,2.12,0,0,0,2.23,177.9Z"/><path class="cls-2" d="M190.08,14.45a2.25,2.25,0,0,0,4.28-1.36,2,2,0,0,0-.27-.55l-2.48-7.81,5.6-3.56,1.59,5a2.31,2.31,0,0,0-1.36,0,2.34,2.34,0,1,0,3,1.52l0-.15h0l-2.23-7a.77.77,0,0,0-1-.5h0L191,3.87a.77.77,0,0,0-.44,1l2.14,6.75a2.28,2.28,0,0,0-1.17,0A2.26,2.26,0,0,0,190.08,14.45Z"/><path class="cls-3" d="M471,52.37a1.35,1.35,0,0,0,2.48,1.06,1.18,1.18,0,0,0,.09-.35l1.92-4.52,3.94.57L478.17,52a1.39,1.39,0,0,0-.62-.53,1.4,1.4,0,1,0,.75,1.84l0-.09h0l1.73-4.07a.46.46,0,0,0-.25-.61h0l-4.26-.64a.46.46,0,0,0-.57.26l-1.66,3.9a1.37,1.37,0,0,0-.55-.44A1.36,1.36,0,0,0,471,52.37Z"/><path class="cls-4" d="M136.67,84.07c1,.46,2.84-.36,3.68,0,.6.25,0,.6-.25.76a20.48,20.48,0,0,0-2.86,1.8c-.58.63-.18,1.4.1,2,.58,1.29.65,2,.31,2.14s-.84,0-1.23-.71c-.15-.24-.51-.89-.66-1.07-.39-.43-.79-.78-1.43-.51-1.44.6-3.92,2.55-3.34,1.16a9.77,9.77,0,0,1,.87-1.59c.38-.67,1-1.38.34-1.91-.48-.36-1.08-.69-1.61-1-.23-.13-.39-.27-.68-.46a1.71,1.71,0,0,1-.46-.5c-.07-.48.31-.5.71-.52s1.91.14,2.86.25c.67.08.85,0,1-.85a7.13,7.13,0,0,1,1-2.63c.12-.15.24-.21.35-.18a.5.5,0,0,1,.32.46,7,7,0,0,0,.35,2.46c.05.12.15.33.24.51s.15.29.43.42Z"/><path class="cls-5" d="M147.07,13c.73,0,1.64-.88,2.23-.87.42,0,.14.36,0,.52A13.29,13.29,0,0,0,148,14.41c-.2.52.22.89.53,1.2.65.65.85,1,.69,1.23s-.52.17-.91-.14c-.14-.11-.52-.42-.65-.49-.34-.17-.66-.29-1,0-.73.7-1.78,2.45-1.76,1.48a6.34,6.34,0,0,1,.16-1.17c.07-.49.31-1.08-.24-1.24-.37-.11-.82-.17-1.21-.25-.17,0-.3-.07-.52-.12a1.11,1.11,0,0,1-.4-.19c-.16-.28.07-.37.31-.48s1.19-.36,1.79-.52c.42-.11.51-.22.41-.75a4.63,4.63,0,0,1,0-1.82c0-.12.1-.18.17-.19a.33.33,0,0,1,.3.2,4.57,4.57,0,0,0,.78,1.41l.26.25a.44.44,0,0,0,.36.16Z"/><path class="cls-4" d="M516.66,22.17c.48.67,1.91.84,2.31,1.36s-.22.38-.44.38a14.93,14.93,0,0,0-2.46.06c-.6.18-.64.81-.7,1.3-.12,1-.33,1.48-.61,1.46s-.51-.34-.51-.91c0-.2,0-.75,0-.92-.09-.41-.2-.78-.71-.85-1.13-.16-3.4.13-2.53-.52a7.12,7.12,0,0,1,1.14-.67c.49-.28,1.17-.47.93-1.07-.16-.4-.42-.84-.62-1.25-.1-.17-.15-.32-.25-.54a1.24,1.24,0,0,1-.11-.48c.14-.33.38-.2.64-.06s1.15.8,1.7,1.22c.39.3.54.3.94-.16A5.2,5.2,0,0,1,517,19.24a.26.26,0,0,1,.29,0,.37.37,0,0,1,0,.41,5.13,5.13,0,0,0-.7,1.67c0,.09,0,.27,0,.41a.49.49,0,0,0,.11.43Z"/><path class="cls-6" d="M713.23,173c1.13.06,2.52-1.35,3.43-1.33.65,0,.22.56,0,.8a20.48,20.48,0,0,0-2,2.71c-.31.8.33,1.37.82,1.85,1,1,1.32,1.61,1.06,1.89s-.8.26-1.41-.22c-.22-.17-.8-.65-1-.76-.52-.26-1-.44-1.52,0-1.13,1.08-2.74,3.78-2.71,2.28a9.77,9.77,0,0,1,.24-1.8c.11-.76.48-1.67-.37-1.91-.57-.17-1.26-.26-1.87-.39-.26,0-.46-.11-.8-.19a1.71,1.71,0,0,1-.61-.3c-.24-.43.11-.57.48-.74s1.83-.56,2.76-.8c.65-.17.78-.33.63-1.15a7.13,7.13,0,0,1,0-2.8c.06-.19.15-.28.26-.3a.5.5,0,0,1,.46.32,7,7,0,0,0,1.2,2.17c.09.09.26.26.41.39a.68.68,0,0,0,.56.24Z"/><path class="cls-6" d="M22.31,80.5c1.13.06,2.52-1.35,3.43-1.33.65,0,.22.56,0,.8a20.48,20.48,0,0,0-2,2.71c-.31.8.33,1.37.82,1.85,1,1,1.32,1.61,1.06,1.89s-.8.26-1.41-.22c-.22-.17-.8-.65-1-.76-.52-.26-1-.44-1.52,0C20.57,86.54,19,89.25,19,87.75a9.77,9.77,0,0,1,.24-1.8c.11-.76.48-1.67-.37-1.91-.57-.17-1.26-.26-1.87-.39-.26,0-.46-.11-.8-.19a1.71,1.71,0,0,1-.61-.3c-.24-.43.11-.57.48-.74s1.83-.56,2.76-.8c.65-.17.78-.33.63-1.15a7.13,7.13,0,0,1,0-2.8c.06-.19.15-.28.26-.3a.5.5,0,0,1,.46.32,7,7,0,0,0,1.2,2.17c.09.09.26.26.41.39a.68.68,0,0,0,.56.24Z"/></g></g></svg>