<svg xmlns="http://www.w3.org/2000/svg" viewBox="0 0 84.07 25.08"><defs><style>.cls-1{fill:#682666;fill-rule:evenodd;}.cls-2{fill:#fff;}</style></defs><title>Recurso 11</title><g id="Capa_2" data-name="Capa 2"><g id="Capa_1-2" data-name="Capa 1"><path class="cls-1" d="M30.11,2.64C25.88,1,3.74-2.87.22,3.6c-.71,1.3.64,3.88.64,6,0,2-1.45,7.82-.57,8.49.27.21.79.43.73.36s-.45-.36-.39-.79C3,13.64,22.74,21.88,26.11,22.94c9,2.85,22.81,2.85,31.85,0,3.37-1.06,23.15-9.3,25.48-5.24a.94.94,0,0,1-.38.79c-.06.07.45-.15.73-.36.88-.67-.57-6.48-.57-8.49,0-2.16,1.34-4.74.63-6C80.33-2.87,58.19,1,54,2.64c-6.39,2.42-17.47,2.42-23.85,0Z"/><path class="cls-2" d="M45.6,17.27c.79-.07,1.63-.17,2.41-.21,0,.37,0,.69.07,1.07s0,.77.19.93.66.13.87-.06c.46-.39.3-1.26.22-1.86-.25-2.08-.79-4.16-1-6.2,0-.34,0-.73-.24-.91a3.68,3.68,0,0,0-.87,0c-.84.15-1,.84-1.26,1.58,0,0-1.28,4.2-1.48,4.69,0,0-.53.06-.6.43,0,.2-.1.42.31.51-.14.43-.38,1.12-.47,1.28s-.32.82.24.85a1.25,1.25,0,0,0,.74-.27A5.66,5.66,0,0,0,45.6,17.27Zm1.47-5.9c.25,1.52.63,3.1.81,4.65-.61,0-1.36.13-2,.18C46.2,15.41,47.07,11.38,47.07,11.38Z"/><path class="cls-2" d="M39.9,10.34a1.84,1.84,0,0,0-.51.21.44.44,0,0,0-.08.67,10.86,10.86,0,0,0,2.26,0c-.29,1.44-1.29,7.67-1.26,7.93s.56.27.88.18.53-.85.53-.85c.21-.52,1.18-7.29,1.18-7.29a14.1,14.1,0,0,1,1.53,0,1.17,1.17,0,0,0,1-.44c.25-.42-.55-.46-.75-.43C44.66,10.31,40.4,10.25,39.9,10.34Z"/><path class="cls-2" d="M56.32,17.06a32.89,32.89,0,0,1-3-2.77c1.49-.95,4.28-4.17,2.12-5A4.62,4.62,0,0,0,51.2,10c-.41.3-.39.58.05.63a21.56,21.56,0,0,1-.08,2.73c-.33.17-.63.49-.08,1A24.67,24.67,0,0,0,51,18.34c.11.65.64.42,1,.08a2,2,0,0,0,.29-.92c0-.28.08-1.31.14-2.2.52.48.9.86,1.12,1.09.61.63,2,1.76,2.68,1.61.34-.08.6-.19.63-.36S56.63,17.28,56.32,17.06Zm-3.68-6.68c1.83-.68,2,.26,2,.26,0,1.11-1.27,2.25-2.15,2.84C52.58,12.66,52.64,10.38,52.64,10.38Z"/><path class="cls-2" d="M28.23,17.9c.89,0,1.2-.6,1.62-1.26,0,0,2.2-3.8,2.51-4.24.62-1,1.24-2,1.24-2,.2-.34.5-.72-.06-.88a1.34,1.34,0,0,0-.81.1,5.91,5.91,0,0,0-1.36,1.67c-.48.7-2.68,4.9-2.68,4.9.08-1.53,0-2.72.13-4.27a20.43,20.43,0,0,1,.25-2.09c0-.29.12-.75,0-.94s-.64-.27-.9-.14c-.56.28-.58,1.16-.62,1.76-.19,2.07-.08,4.22-.27,6.25A1,1,0,0,0,28.23,17.9Z"/><path class="cls-2" d="M35.81,18.95a1.93,1.93,0,0,1-2.52-1.13c-.58-1.16-.41-3.49.37-5.24a3.83,3.83,0,0,1,2.26-2.48s.73-.87,2.14.27,1.13,3.24.43,5.23C38.5,15.6,37.62,18.46,35.81,18.95Zm1.58-4.1c.46-2,.29-3.06,0-3.38a1.18,1.18,0,0,0-1.12-.39,7,7,0,0,0-1.66,3.68c-.22,1.45-.09,3,.68,3.06C36.66,18,37.39,14.85,37.39,14.85Z"/></g></g></svg>