<svg xmlns="http://www.w3.org/2000/svg" viewBox="0 0 84.07 25.08"><defs><style>.cls-1{fill:#cf0a2c;fill-rule:evenodd;}.cls-2{fill:#fff;}</style></defs><title>Recurso 10</title><g id="Capa_2" data-name="Capa 2"><g id="Capa_1-2" data-name="Capa 1"><path class="cls-1" d="M30.11,2.64C25.88,1,3.74-2.87.22,3.6c-.71,1.3.64,3.88.64,6,0,2-1.45,7.82-.57,8.49.27.21.79.43.73.36s-.45-.36-.39-.79C3,13.64,22.74,21.88,26.11,22.94c9,2.85,22.81,2.85,31.85,0,3.37-1.06,23.15-9.3,25.48-5.24a.94.94,0,0,1-.38.79c-.06.07.45-.15.73-.36.88-.67-.57-6.48-.57-8.49,0-2.16,1.34-4.74.63-6C80.33-2.87,58.19,1,54,2.64c-6.39,2.42-17.47,2.42-23.85,0Z"/><path class="cls-2" d="M43.83,19s-.1.57-.35.74-1,.24-1.06,0,1.13-8,1.26-8.26c.12-.56.26-.69.84-.69s.49.11.4,1.21S43.83,19,43.83,19Z"/><path class="cls-2" d="M38,17.43c.21-.37.9-1.8,1.54-3.29,0,0-.13,3.49,0,5.09,0,.66,1.4,1,1.37.4-.09-1.63.28-8.41.28-8.41s.05-.37-.19-.42a2.09,2.09,0,0,0-1.22.21c-.31.23-2,4.63-2.18,4.82,0,0-1-4.73-1.08-4.91s-.81-.08-1.05,0-.5.48-.68,1.24c-.3,1.4-1,5.67-1.5,7.33a.41.41,0,0,0,.45.44.75.75,0,0,0,.81-.39c.68-1.08,1.14-5.78,1.27-5.75s.66,3.59.72,3.75C36.83,18.35,37.78,17.87,38,17.43Z"/><path class="cls-2" d="M54.52,16.79c.78-.15,1.6-.36,2.37-.48.09.36.11.68.19,1.05s.13.76.29.9.67.05.86-.15c.42-.44.16-1.28,0-1.87-.48-2-1.26-4-1.73-6-.07-.34-.08-.72-.34-.88a3.68,3.68,0,0,0-.86.12c-.82.24-.9,1-1.08,1.72,0,0-.79,4.31-.94,4.83,0,0-.52.11-.54.5,0,.21-.06.42.37.47-.1.44-.25,1.15-.32,1.32s-.23.85.33.81a1.25,1.25,0,0,0,.71-.36A5.66,5.66,0,0,0,54.52,16.79Zm.8-6c.42,1.48,1,3,1.33,4.52-.6.11-1.34.29-2,.4C54.91,14.87,55.32,10.76,55.32,10.76Z"/><path class="cls-2" d="M23.38,16.82a1,1,0,0,0,1-.3c.45-.71,2.2-5.3,2.2-5.3s.85-2,1.07-2.61c0-.1,0-.2-.09-.26a3.44,3.44,0,0,0-.84-.1.86.86,0,0,0-.62.5c-.7,1.47-1.46,3.51-2.14,5.23-.13-1.29-.48-6.14-.49-6.33s-.91-.28-1.16-.24-.55.36-.86,1.09-2,5.17-2.84,6.89a.42.42,0,0,0,.34.53.74.74,0,0,0,.86-.22c.86-.91,2.52-5.86,2.5-5.71,0,.52.64,6.24.72,6.43S23.11,16.75,23.38,16.82Z"/><path class="cls-2" d="M50.65,19.45a1,1,0,0,0,.84-.56c.23-.8.64-5.71.64-5.71s.27-2.13.3-2.8c0-.11,0-.21-.16-.22a3.44,3.44,0,0,0-.83.14A.86.86,0,0,0,51,11c-.27,1.61-.43,3.78-.6,5.62-.49-1.2-2.17-5.77-2.23-5.95s-1,0-1.18.1-.43.5-.52,1.28-.52,5.53-.81,7.41a.42.42,0,0,0,.47.41.74.74,0,0,0,.76-.45c.58-1.12.79-6.33.81-6.19.11.5,2.36,5.81,2.48,6S50.37,19.46,50.65,19.45Z"/><path class="cls-2" d="M65,14.88a32.89,32.89,0,0,1-3.29-2.45c1.39-1.09,3.83-4.59,1.6-5.17a4.62,4.62,0,0,0-4.12,1.15c-.37.34-.32.62.12.62a21.56,21.56,0,0,1,.19,2.72c-.31.2-.58.55,0,1a24.67,24.67,0,0,0,.27,3.91c.18.63.68.35,1,0a2,2,0,0,0,.2-.94c0-.28-.05-1.31-.09-2.21.57.42,1,.77,1.22,1,.67.57,2.2,1.54,2.82,1.33.33-.11.58-.25.59-.42S65.32,15.07,65,14.88ZM60.65,8.61c1.75-.87,2.05,0,2.05,0,.15,1.1-1,2.36-1.85,3C60.82,10.88,60.65,8.61,60.65,8.61Z"/><path class="cls-2" d="M29.83,18.41a1.93,1.93,0,0,1-2.52-1.13c-.58-1.16-.41-3.49.37-5.24a3.83,3.83,0,0,1,2.26-2.48s.73-.87,2.14.27,1.13,3.24.43,5.23C32.52,15.07,31.64,17.92,29.83,18.41Zm1.58-4.1c.46-2,.29-3.06,0-3.38a1.18,1.18,0,0,0-1.12-.39,7,7,0,0,0-1.66,3.68c-.22,1.45-.09,3,.68,3.06C30.68,17.47,31.41,14.32,31.41,14.32Z"/></g></g></svg>