<svg xmlns="http://www.w3.org/2000/svg" viewBox="0 0 58.47 17.44"><defs><style>.cls-1{fill:#f0c700;fill-rule:evenodd;}.cls-2{font-size:10px;fill:#fff;font-family:FuturaStd-HeavyOblique, Futura Std;letter-spacing:-0.05em;}.cls-3{letter-spacing:0.03em;}</style></defs><title>Recurso 13</title><g id="Capa_2" data-name="Capa 2"><g id="Capa_1-2" data-name="Capa 1"><path class="cls-1" d="M20.94,1.84C18,.72,2.6-2,.15,2.5c-.49.9.44,2.7.44,4.2s-1,5.44-.4,5.9c.19.14.55.3.51.25s-.31-.25-.27-.55C2.06,9.49,15.82,15.22,18.16,16a42,42,0,0,0,22.15,0c2.34-.73,16.1-6.47,17.72-3.64a.66.66,0,0,1-.27.55s.31-.11.51-.25c.61-.46-.4-4.51-.4-5.9s.93-3.3.44-4.2C55.87-2,40.47.72,37.53,1.84c-4.44,1.68-12.15,1.68-16.59,0Z"/><text class="cls-2" transform="translate(14.68 13.22)">V<tspan class="cls-3" x="5.84" y="0">olver</tspan></text></g></g></svg>