<svg xmlns="http://www.w3.org/2000/svg" viewBox="0 0 58.47 17.44"><defs><style>.cls-1{fill:#efc600;fill-rule:evenodd;}.cls-2{fill:#fff;}</style></defs><title>Recurso 14</title><g id="Capa_2" data-name="Capa 2"><g id="Capa_1-2" data-name="Capa 1"><path class="cls-1" d="M20.94,1.84C18,.72,2.6-2,.15,2.5c-.49.9.44,2.7.44,4.2s-1,5.44-.4,5.9c.19.14.55.3.51.25s-.31-.25-.27-.55C2.06,9.49,15.82,15.22,18.16,16a42,42,0,0,0,22.15,0c2.34-.73,16.1-6.47,17.72-3.64a.66.66,0,0,1-.27.55s.31-.11.51-.25c.61-.46-.4-4.51-.4-5.9s.93-3.3.44-4.2C55.87-2,40.47.72,37.53,1.84c-4.44,1.68-12.15,1.68-16.59,0Z"/><path class="cls-2" d="M22.93,7.25A1.07,1.07,0,0,0,22,6.59,1,1,0,0,0,21,7.22c-.34,1.11,2.65,1,2,3.21a2.73,2.73,0,0,1-3.16,2,2.17,2.17,0,0,1-1.88-1.64l1.22-.65a1.2,1.2,0,0,0,1,1.15,1.16,1.16,0,0,0,1.26-.82c.2-.68-.43-1-.94-1.24-.82-.48-1.35-1-1-2a2.48,2.48,0,0,1,4.32-.74Z"/><path class="cls-2" d="M25.81,8.37c-.22.95-.33,1.42-.56,2.36-.12.5-.18,1.1.53,1.14s.94-.56,1-1.05c.21-.95.31-1.43.5-2.38l1.33,0c-.19,1-.29,1.56-.5,2.59a2.23,2.23,0,0,1-2.64,1.85c-1.48-.09-2-.83-1.7-2.09.27-1,.4-1.53.66-2.56Z"/><path class="cls-2" d="M30.33,5.27l1.27,0c-.19,1.45-.29,2.18-.5,3.63a2.14,2.14,0,0,1,1.36-.59,1.86,1.86,0,0,1,1.89,2.23A2.75,2.75,0,0,1,31.78,13a1.41,1.41,0,0,1-1.23-.53h0l-.07.41H29C29.62,9.86,29.87,8.33,30.33,5.27ZM33,10.62a1,1,0,0,0-1-1.2,1.49,1.49,0,0,0-1.31,1.26,1,1,0,0,0,1,1.22A1.47,1.47,0,0,0,33,10.62Z"/><path class="cls-2" d="M36.5,12.59l-1.42.12c.18-1.79.26-2.68.41-4.47l1.33-.13C36.71,9.9,36.65,10.8,36.5,12.59ZM37,6.22a.93.93,0,0,1-.81.84.63.63,0,0,1-.72-.68,1,1,0,0,1,.81-.83A.63.63,0,0,1,37,6.22Z"/><path class="cls-2" d="M39.37,8.25h0a1.67,1.67,0,0,1,1.15-.79,1.47,1.47,0,0,1,.54,0C41,8,41,8.21,40.93,8.69a.9.9,0,0,0-.55-.07c-.93.15-1,.94-1.07,1.64s0,1.21-.07,2l-1.41.18c.11-1.79.16-2.69.23-4.48l1.32-.18Z"/></g></g></svg>