<svg xmlns="http://www.w3.org/2000/svg" viewBox="0 0 58.47 17.44"><defs><style>.cls-1{fill:#682666;fill-rule:evenodd;}.cls-2{fill:#fff;}</style></defs><title>Recurso 15</title><g id="Capa_2" data-name="Capa 2"><g id="Capa_1-2" data-name="Capa 1"><path class="cls-1" d="M20.94,1.84C18,.72,2.6-2,.15,2.5c-.49.9.44,2.7.44,4.2s-1,5.44-.4,5.9c.19.14.55.3.51.25s-.31-.25-.27-.55C2.06,9.49,15.82,15.22,18.16,16a42,42,0,0,0,22.15,0c2.34-.73,16.1-6.47,17.72-3.64a.66.66,0,0,1-.27.55s.31-.11.51-.25c.61-.46-.4-4.51-.4-5.9s.93-3.3.44-4.2C55.87-2,40.47.72,37.53,1.84c-4.44,1.68-12.15,1.68-16.59,0Z"/><path class="cls-2" d="M17.58,6.56l-.37,1.64,2.38.14L19.31,9.6l-2.39-.15-.48,2,2.51.16-.28,1.27c-1.62-.09-2.44-.15-4.06-.28.73-3,1.09-4.45,1.78-7.42,1.56.11,2.34.16,3.9.24L20,6.7Z"/><path class="cls-2" d="M22.29,8.6h0A1.77,1.77,0,0,1,23.72,8c1.34,0,1.56,1,1.35,2.11s-.34,1.79-.57,3l-1.46,0c.21-1,.31-1.55.51-2.58.12-.59.3-1.34-.51-1.37s-1,.89-1.17,1.48c-.2,1-.29,1.45-.49,2.41L19.91,13c.42-1.94.63-2.92,1-4.86l1.42.06Z"/><path class="cls-2" d="M28.27,11.06c.6-1.1.9-1.66,1.49-2.76h1.55c-1.22,2-1.85,3-3.14,5h-.75c-.58-2-.87-3-1.42-5l1.56,0C27.85,9.39,28,9.95,28.27,11.06Z"/><path class="cls-2" d="M32.7,13.17l-1.46,0c.31-2,.46-2.95.75-4.92l1.42,0C33.13,10.22,33,11.21,32.7,13.17Zm1.12-7a1,1,0,0,1-.95.85.69.69,0,0,1-.72-.82,1,1,0,0,1,1-.85A.69.69,0,0,1,33.81,6.18Z"/><path class="cls-2" d="M38.9,13,37.46,13l.05-.45h0a2.12,2.12,0,0,1-1.47.67c-1.5.05-2.17-1.25-2-2.58A3,3,0,0,1,36.67,8,1.57,1.57,0,0,1,38,8.56L38,8.1,39.45,8C39.24,10,39.13,11,38.9,13Zm-1-2.41a1.08,1.08,0,0,0-1-1.33,1.59,1.59,0,0,0-1.37,1.42,1.08,1.08,0,0,0,1,1.34A1.6,1.6,0,0,0,37.9,10.55Z"/><path class="cls-2" d="M42.1,8.37h0a1.73,1.73,0,0,1,1.29-.76,1.49,1.49,0,0,1,.58.08L43.72,9a.9.9,0,0,0-.57-.14c-1,.07-1.18.94-1.25,1.71s-.13,1.34-.22,2.23l-1.46.09c.21-2,.32-3,.51-4.95l1.42-.09Z"/></g></g></svg>