<svg xmlns="http://www.w3.org/2000/svg" viewBox="0 0 58.47 17.44"><defs><style>.cls-1{fill:#e25e50;fill-rule:evenodd;}.cls-2{fill:#fff;}</style></defs><title>Recurso 13</title><g id="Capa_2" data-name="Capa 2"><g id="Capa_1-2" data-name="Capa 1"><path class="cls-1" d="M20.94,1.84C18,.72,2.6-2,.15,2.5c-.49.9.44,2.7.44,4.2s-1,5.44-.4,5.9c.19.14.55.3.51.25s-.31-.25-.27-.55C2.06,9.49,15.82,15.22,18.16,16a42,42,0,0,0,22.15,0c2.34-.73,16.1-6.47,17.72-3.64a.66.66,0,0,1-.27.55s.31-.11.51-.25c.61-.46-.4-4.51-.4-5.9s.93-3.3.44-4.2C55.87-2,40.47.72,37.53,1.84c-4.44,1.68-12.15,1.68-16.59,0Z"/><path class="cls-2" d="M12.34,5.15l-.47,1.44L14,6.9,13.68,8,11.51,7.7l-.6,1.76,2.29.35-.35,1.11c-1.49-.21-2.23-.33-3.71-.59.92-2.6,1.37-3.9,2.23-6.51,1.4.23,2.1.33,3.5.52l-.33,1.12Z"/><path class="cls-2" d="M15,6.76l1.56.19.53,1.21,1-1,1.58.15c-.84.74-1.27,1.1-2.14,1.82.52,1,.78,1.53,1.33,2.55l-1.64-.16c-.31-.65-.47-1-.77-1.63L15,11.21,13.34,11C14.43,10.17,15,9.75,16,8.91,15.62,8.05,15.42,7.62,15,6.76Z"/><path class="cls-2" d="M23.91,12l-1.32-.07.09-.4h0a2,2,0,0,1-1.41.46A1.83,1.83,0,0,1,19.7,9.46a2.72,2.72,0,0,1,2.64-2.14,1.44,1.44,0,0,1,1.14.63l.1-.41,1.27.06C24.48,9.35,24.3,10.23,23.91,12Zm-.69-2.25a1,1,0,0,0-.81-1.28A1.45,1.45,0,0,0,21,9.58a1,1,0,0,0,.8,1.3A1.45,1.45,0,0,0,23.22,9.73Z"/><path class="cls-2" d="M27.23,8.07h0a1.65,1.65,0,0,1,1.2-.52,1.22,1.22,0,0,1,1.19.7,1.94,1.94,0,0,1,1.43-.7c1.15,0,1.32.82,1.18,1.79S32,11,31.85,12.11H30.51c.15-.93.23-1.4.37-2.33.06-.43.22-1.23-.42-1.23s-.86.93-.93,1.39c-.15.87-.22,1.3-.37,2.17l-1.34,0c.17-.89.25-1.34.4-2.24.08-.43.3-1.31-.38-1.32s-.87.9-1,1.37c-.16.86-.25,1.3-.42,2.16l-1.34,0c.37-1.76.55-2.63.89-4.39l1.29,0Z"/><path class="cls-2" d="M34.46,12l-1.34,0c.25-1.78.37-2.66.6-4.44L35,7.59C34.8,9.37,34.69,10.26,34.46,12Zm.88-6.32a.92.92,0,0,1-.84.79.62.62,0,0,1-.67-.72A.94.94,0,0,1,34.68,5,.62.62,0,0,1,35.34,5.72Z"/><path class="cls-2" d="M37.47,7.86h0a1.63,1.63,0,0,1,1.23-.64c1.22-.09,1.51.71,1.43,1.75s-.13,1.64-.22,2.73l-1.34.11c.09-.95.13-1.42.22-2.36.05-.54.14-1.23-.59-1.17s-.87.9-.93,1.43c-.09.88-.13,1.32-.23,2.21L35.71,12c.21-1.78.31-2.67.51-4.45l1.29-.08Z"/><path class="cls-2" d="M45.55,11.1l-1.32.17,0-.41h0a2,2,0,0,1-1.3.7c-1.38.15-2.07-1-2-2.19A2.72,2.72,0,0,1,43.17,6.8a1.44,1.44,0,0,1,1.24.41l0-.42,1.27-.17C45.65,8.41,45.62,9.31,45.55,11.1ZM44.47,9a1,1,0,0,0-1-1.12,1.45,1.45,0,0,0-1.15,1.37,1,1,0,0,0,1,1.14A1.46,1.46,0,0,0,44.47,9Z"/><path class="cls-2" d="M48.13,6.72h0a1.59,1.59,0,0,1,1.11-.79,1.38,1.38,0,0,1,.53,0c-.05.48-.08.73-.14,1.21a.84.84,0,0,0-.53-.07c-.9.15-1,.95-1,1.64s0,1.21,0,2l-1.33.2c0-1.79.07-2.69.09-4.48l1.28-.2C48.13,6.44,48.13,6.54,48.13,6.72Z"/></g></g></svg>