<svg xmlns="http://www.w3.org/2000/svg" viewBox="0 0 45.13 24.12"><defs><style>.cls-1{fill:#ffe100;}.cls-2{fill:#e1b900;}.cls-3{fill:#e25e50;}.cls-4{fill:#1e120d;}.cls-5{fill:#f5b53d;}</style></defs><title>Recurso 20</title><g id="Capa_2" data-name="Capa 2"><g id="POP_UP" data-name="POP UP"><path class="cls-1" d="M45,1.79a1.75,1.75,0,0,0,.16-.85C45,.2,44.06,0,43.32,0a6,6,0,0,0-4.4,2.48,6,6,0,0,0-.92,5,17.93,17.93,0,0,1,.61,2.15,2.53,2.53,0,0,1-.44,1.66c-.08.12-.17.23-.27.34s-.09.12-.14.17a4.5,4.5,0,0,1-.53.48,1.87,1.87,0,0,1-2,.36,1.92,1.92,0,0,1-.67-.77C32.81,8.64,34.3,4.57,33.32,1A127.67,127.67,0,0,1,25.7,11.52a2.57,2.57,0,0,1-1.77,1.2,2.37,2.37,0,0,1-1.57-.83,14.63,14.63,0,0,1-4.44-9.74c0-.81-.11-1.78-.83-2.14C14.43,3.49,13.4,8.23,10,11c-.78.63-1.91,1.15-2.75.6a2,2,0,0,1-.72-2,17.93,17.93,0,0,1,.61-2.15,6,6,0,0,0-.92-5A6,6,0,0,0,1.81,0C1.07,0,.12.2,0,.94a1.75,1.75,0,0,0,.16.85A55.72,55.72,0,0,1,3.54,24.11s13.73-.65,19.05-.65c4.22,0,19.1.66,19.1.66a47.47,47.47,0,0,1-.2-8C42.51,11.31,43.25,6.41,45,1.79Z"/><circle class="cls-2" cx="11.16" cy="17.32" r="1.35" transform="translate(-9.26 14.55) rotate(-49.48)"/><circle class="cls-3" cx="16.29" cy="17.32" r="1.35" transform="translate(-7.46 18.44) rotate(-49.48)"/><circle class="cls-2" cx="27.54" cy="17.32" r="1.35" transform="translate(-3.52 27) rotate(-49.48)"/><circle class="cls-3" cx="32.66" cy="17.32" r="1.35" transform="translate(-1.72 30.89) rotate(-49.48)"/><path class="cls-4" d="M24.79,19.61s0,0,0,0a2,2,0,0,1-1-.63,6.75,6.75,0,0,1-1-1.36c0-.1,0-.11,0-.11h0a1.43,1.43,0,0,0,.89-1.27c0-1-.92-1.26-1.75-1.26-.31,0-.41,0-.74,0s-.6,0-.67,0a.09.09,0,0,0-.08.1c0,.23.53-.16.54.62v3.12c0,.72-.51.52-.51.7s.07.08.1.08c.19,0,.4,0,.71,0s.48,0,.71,0,.19,0,.19-.08c0-.22-.68.12-.69-.82V15.36c0-.2.14-.2.35-.2a1.22,1.22,0,0,1,1.35,1.2,1,1,0,0,1-1.06,1,1.14,1.14,0,0,1-.23,0,.05.05,0,0,0-.06.06c0,.06,0,.09.1.11a.7.7,0,0,1,.42.33c.44.72.94,1.82,2.09,1.82.43,0,.38-.05.38-.09"/><path class="cls-5" d="M3.56,23.74c.05,0,5.34-1.18,19.38-1.18s18.68,1.19,18.72,1.2l-.07-.83c-.76-.18-5.51-1.16-18.66-1.16s-18.57,1-19.35,1.16Z"/></g></g></svg>