<svg xmlns="http://www.w3.org/2000/svg" viewBox="0 0 32.26 31.18"><defs><style>.cls-1{fill:#e25e50;}.cls-2{fill:#fff;}</style></defs><title>Recurso 8</title><g id="Capa_2" data-name="Capa 2"><g id="Capa_1-2" data-name="Capa 1"><path class="cls-1" d="M15.3,0C7,.66,0,7.37,0,15.88,0,25,8.07,31.8,17,31.14a16.34,16.34,0,0,0,15.3-15.83A15.7,15.7,0,0,0,15.3,0Z"/><path class="cls-2" d="M24.67,17.27a2,2,0,0,0-2.79.47h0a4.66,4.66,0,0,0-.64,2.34,6.43,6.43,0,0,1-1.18-.94l-.74-.74L16.15,6.71a.24.24,0,0,0-.22-.17L7,6.22H7a.22.22,0,0,0-.17.07s0,0,0,.07v0s0,0,0,.07h0l.32,8.93a.24.24,0,0,0,.17.22l11.69,3.11.72.72a6.24,6.24,0,0,0,1.53,1.16,16.72,16.72,0,0,0,.54,4.17A.24.24,0,0,0,22,25h.07a.23.23,0,0,0,.17-.3,19.39,19.39,0,0,1-.52-3.82,3.26,3.26,0,0,0,1.31.27h.07a2.76,2.76,0,0,0,2-1.06h0A2,2,0,0,0,24.67,17.27Zm-6.07.44L12,11.1l3.8-3.9ZM7.54,15,7.27,7.08l4,4Zm.07-8.26,7.7.27-3.68,3.77Zm.3,8.58,3.73-3.85L18.23,18Zm16.82,4.47a2.29,2.29,0,0,1-1.68.89,2.89,2.89,0,0,1-1.36-.32A4.49,4.49,0,0,1,22.3,18a1.56,1.56,0,0,1,1-.62,1.46,1.46,0,0,1,1.13.27A1.55,1.55,0,0,1,24.74,19.76Z"/></g></g></svg>