<svg xmlns="http://www.w3.org/2000/svg" viewBox="0 0 32.26 31.18"><defs><style>.cls-1{fill:#efc600;}.cls-2{fill:#fff;}</style></defs><title>Recurso 9</title><g id="Capa_2" data-name="Capa 2"><g id="Capa_1-2" data-name="Capa 1"><path class="cls-1" d="M15.3,0C7,.66,0,7.37,0,15.88,0,25,8.07,31.8,17,31.14a16.34,16.34,0,0,0,15.3-15.83A15.7,15.7,0,0,0,15.3,0Z"/><path class="cls-2" d="M8,21.57a2.92,2.92,0,1,0,5.84,0,2.78,2.78,0,0,0-.12-.8V9.25l9.5-2.48v8a3,3,0,0,0-2.07-.8,3,3,0,0,0-3,3,3,3,0,0,0,6.09,0v-.22h0V6.6a.86.86,0,0,0-.85-.85h0L13.5,8.28a.83.83,0,0,0-.78.85V19.28a3,3,0,0,0-1.83-.63A2.91,2.91,0,0,0,8,21.57ZM21.12,19a2.07,2.07,0,1,1,2.07-2.07A2.07,2.07,0,0,1,21.12,19Zm-10.23.61a1.95,1.95,0,1,1-1.95,1.95A2,2,0,0,1,10.89,19.62Z"/></g></g></svg>