<svg xmlns="http://www.w3.org/2000/svg" viewBox="0 0 308.29 239.9"><defs><style>.cls-1{fill:#efc600;}.cls-2{fill:#e16633;}.cls-2,.cls-3,.cls-7{fill-rule:evenodd;}.cls-3{fill:#ce0055;}.cls-4{fill:#cf0a2c;}.cls-5{fill:#fff;}.cls-6{fill:#1e120d;}.cls-7{fill:#950a53;}.cls-8{fill:#682666;}.cls-9{fill:#91101d;}</style></defs><title>Recurso 4</title><g id="Capa_2" data-name="Capa 2"><g id="Capa_1-2" data-name="Capa 1"><path class="cls-1" d="M.26,70.36A2.48,2.48,0,0,0,4.7,72.58a2.18,2.18,0,0,0,.21-.64l4-8.1,7.18,1.48-2.6,5.21a2.55,2.55,0,0,0-1.09-1,2.58,2.58,0,1,0,1.17,3.47l.08-.15h0l3.63-7.29a.85.85,0,0,0-.38-1.15l0,0L9.14,62.68a.85.85,0,0,0-1.09.41l-3.49,7a2.52,2.52,0,0,0-1-.86A2.5,2.5,0,0,0,.26,70.36Z"/><path class="cls-2" d="M24.94,174.23c.86,0,1.93-1,2.62-1,.5,0,.17.43,0,.61A15.66,15.66,0,0,0,26,175.89c-.24.61.26,1,.62,1.42.77.76,1,1.23.81,1.45s-.61.2-1.08-.17c-.17-.13-.61-.5-.77-.58-.4-.2-.78-.34-1.16,0-.86.82-2.1,2.89-2.07,1.74a7.47,7.47,0,0,1,.18-1.38c.09-.58.37-1.28-.28-1.46-.44-.13-1-.2-1.43-.3-.2,0-.35-.08-.61-.14a1.31,1.31,0,0,1-.47-.23c-.18-.33.08-.44.37-.57s1.4-.43,2.11-.61c.5-.13.6-.26.48-.88a5.45,5.45,0,0,1,0-2.14c0-.14.11-.21.2-.23a.39.39,0,0,1,.35.24,5.38,5.38,0,0,0,.92,1.66l.31.3a.52.52,0,0,0,.42.18Z"/><path class="cls-3" d="M120.28,3.67c1.33.07,3-1.59,4-1.57.76,0,.26.66,0,.94A24.12,24.12,0,0,0,122,6.22c-.37.94.39,1.62,1,2.18,1.18,1.18,1.55,1.9,1.24,2.23s-.94.31-1.66-.26c-.26-.2-.94-.76-1.18-.89-.61-.31-1.2-.52-1.79,0-1.33,1.27-3.23,4.45-3.19,2.68a11.51,11.51,0,0,1,.28-2.12c.13-.89.57-2-.44-2.25-.68-.2-1.48-.31-2.2-.46-.31,0-.55-.13-.94-.22a2,2,0,0,1-.72-.35c-.28-.5.13-.68.57-.87s2.16-.66,3.25-.94c.76-.2.92-.39.74-1.35a8.4,8.4,0,0,1,0-3.3c.07-.22.17-.33.31-.35a.59.59,0,0,1,.55.37,8.29,8.29,0,0,0,1.42,2.55c.11.11.31.31.48.46a.8.8,0,0,0,.65.28Z"/><path class="cls-4" d="M267.09,201.31a177.3,177.3,0,0,0-36.22,4.82c-21.6,5.06-41.8,13.7-62.5,21.45-19.38,7.26-39.18,11.75-59.93,12.25a304,304,0,0,1-31.27-1.06,140.43,140.43,0,0,1-16.66-2.17c-3.42-.69-7.76-1.22-10.8-2.94-2.33-1.31-2.49-2.17-2.37-4.68.27-5.42.64-10.84,1-16.25l1.56-26.34s.66-4.73,2.6-.67c4.23,11.89,11,13.64,19.4,15.39,10.28,2.15,21.19,2.2,31.64,1.57,38.55-2.32,74.68-17.41,111.7-27,16.8-4.36,34-7.73,51.33-8.39l1.27-.1c4.88,2-1.92,20.67,1.38,34.12Z"/><path class="cls-5" d="M261.49,194c0-.13-.17-.15-.17-.15a8.3,8.3,0,0,1-4.45-2.19,28.12,28.12,0,0,1-4.51-5.15c-.21-.39,0-.46,0-.46h0a5.81,5.81,0,0,0,3.14-5.49c-.36-3.93-4.19-4.74-7.55-4.43-1.27.12-1.68.25-3,.37-1.54.14-2.47.13-2.71.15a.36.36,0,0,0-.31.43c.09.95,2.11-.86,2.4,2.3L245.55,192c.27,2.93-1.86,2.3-1.8,3,0,.24.29.29.45.28.77-.07,1.63-.25,2.86-.37,1.56-.14,2-.08,2.88-.16.65-.06.75-.2.73-.39-.08-.9-2.73.73-3.08-3.07L246.35,178c-.07-.79.5-.85,1.35-.93,3-.28,5.6,1.18,5.94,4.37a4.14,4.14,0,0,1-3.89,4.62,5.35,5.35,0,0,1-1,0c-.13,0-.26.08-.24.26s.23.35.47.39a2.87,2.87,0,0,1,1.81,1.17c2.07,2.78,4.51,7,9.13,6.59,1.73-.16,1.54-.35,1.52-.51"/><path class="cls-5" d="M73.83,226l-1.28-.15a29.36,29.36,0,0,1-1.37,2.93c-.35,0-1.65-1.44-1.59-1.91,0,0,.18-.53.48-1.26l-1.44-.15a26.75,26.75,0,0,1-1.37,2.86c-.35,0-1.65-1.44-1.59-1.91,0,0,.18-.51.45-1.19L64.49,225c-.21,0-.37-.14-.35-.3s1.06-2.1,1.49-2.05l1.46.17c.2-.46.4-.93.6-1.41l-1.75-.21c-.24,0-.37-.14-.35-.3s1-2.1,1.49-2.05l1.65.19a12.08,12.08,0,0,1,1.49-2.91c.38,0,1.63,1.39,1.58,1.81a14,14,0,0,1-.54,1.35c.48,0,.95.09,1.42.14a12.28,12.28,0,0,1,1.46-2.85c.38,0,1.63,1.39,1.58,1.82,0,.07-.21.57-.51,1.28.69.06,1.23.12,1.47.15s.27.1.26.25c0,.38-1.4,2.13-1.68,2.1l-1-.12c-.2.46-.42.93-.62,1.41.78.07,1.4.14,1.66.17s.28.1.26.25C75.47,224.24,74.45,226,73.83,226Zm-4.18-2.91c.48,0,.95.09,1.4.14.2-.46.4-.93.6-1.41-.45-.05-.92-.11-1.37-.14C70.07,222.1,69.87,222.58,69.65,223.05Z"/><path class="cls-5" d="M92.62,219.11c-.11,3.09-3.58,4-3.6,4.44,0,.17.13.34.48.56l4.12,2.66c.47.3.79,1.31.71,3.69,0,.31-.14.52-.33.51-.55,0-7.74-5.4-7.93-5.41a.17.17,0,0,0-.17.18c0,.21.28,1.6.26,2.17s-2.07,2.71-2.26,2.71c-.62,0-1.94-8.08-1.88-9.75,0-.4-1.71-.15-1.68-.89,0-1.12,3.12-4.34,8.14-4.17C91.33,215.93,92.68,217.52,92.62,219.11Zm-6.94,4.12c1.45,0,3.56-1.71,3.6-3.06,0-1-.38-2-2.43-2.06-1.45,0-2,.43-2.06,1.14C84.78,219.58,85.16,223.21,85.68,223.23Z"/><path class="cls-5" d="M101.11,225c-.19.05-.23.24-.23.46,0,.76.28,2.35,1.16,2.33,1.64,0,4.92-2.54,5.21-2.55s.43,1.47.44,1.78c0,.93-3.52,3.75-6,3.8-2,0-3.22-1.51-3.53-4.14-.14-1.14-2.44-.5-2.46-1.55s1.59-1.41,1.57-2.67c0-.9-1.61-4.68-1.62-5.18s.2-.67.94-.75c1.28-.14,9.45-.87,9.45-.87.24,0,.33.09.34.25a17,17,0,0,1-1.17,2.4c-.16.31-.3.34-.75.39l-4.75.61a.34.34,0,0,0-.28.34c0,.38.24,2.52,1,2.5.36,0,5.3-1.38,5.87-1.39a.24.24,0,0,1,.27.26,9.58,9.58,0,0,1-1.23,2.64C104.89,223.9,101.11,225,101.11,225Z"/><path class="cls-5" d="M117.54,215.26a.47.47,0,0,1,.38-.38c.43,0,2,1.87,1.89,2.26l-3.2,12.76c-.15.56-2.34,1.39-2.81,1.42a.41.41,0,0,1-.48-.4c0-.4,1.07-4.86,1.3-5.61-1.35-1.41-5.46-7-5.5-7.63s1.1-3,1.64-3c.26,0,.43.09.64.39l3.89,5.63c.21.32.37.5.51.49s.23-.13.3-.45Z"/><path class="cls-5" d="M127.82,223.21c-.18.07-.21.27-.18.48.1.76.54,2.3,1.41,2.19,1.63-.21,4.61-3.07,4.9-3.11s.59,1.41.63,1.72c.12.92-3.09,4.12-5.56,4.44-2,.26-3.36-1.14-4-3.73-.27-1.12-2.48-.23-2.61-1.27s1.43-1.58,1.26-2.83c-.12-.9-2.12-4.47-2.18-5s.13-.69.85-.85c1.26-.28,9.3-1.91,9.3-1.91.24,0,.34.05.36.22a17.07,17.07,0,0,1-.9,2.52c-.12.33-.26.37-.71.48l-4.65,1.13a.34.34,0,0,0-.24.37c0,.38.51,2.48,1.25,2.38.35,0,5.12-2,5.68-2a.24.24,0,0,1,.29.23,9.58,9.58,0,0,1-.94,2.76C131.46,221.7,127.82,223.21,127.82,223.21Z"/><path class="cls-5" d="M139.51,211.87a4.18,4.18,0,0,1,5.13,2.74c.12.53-1.56,2.28-2.07,2.39-.7.16-1.47-2.93-4.07-2.35a1.28,1.28,0,0,0-1,1.49c.22,1,1.09,1.78,2.91,1.63,5.25-.39,6.38.72,7,3.32a4.28,4.28,0,0,1-3.47,5.15c-3.36.76-5.89-1.15-6.23-2.66-.07-.3.56-2.37,1.21-2.52s2.74,3.38,5.69,2.71a1.21,1.21,0,0,0,1-1.45c-.21-.9-1.23-1.89-3.71-1.62-4.12.44-5.5-.39-6.26-3.75C135.14,214.74,136.59,212.53,139.51,211.87Z"/><path class="cls-5" d="M150,213.79c-.18-.39-.62-.29-1-.16s-.92.18-1.07-.29c-.48-1.44,1.7-4.53,5.13-5.67s6.51.12,7.47,3c1.84,5.53-2.67,11.59-5,12.36-.11,0-.24,0-.37-.2A54.51,54.51,0,0,1,150,213.79Zm6.82,5.58c.09.2.19.26.32.22.41-.13,1.59-2.53.39-6.14a4.4,4.4,0,0,0-5.27-3.19.23.23,0,0,0-.11.34Z"/><path class="cls-5" d="M169.22,212.1c-.16.11-.14.3-.07.51.25.72,1,2.14,1.84,1.85,1.55-.55,3.87-4,4.14-4.06s.87,1.25,1,1.55c.31.87-2.15,4.67-4.51,5.5-1.91.67-3.53-.42-4.65-2.82-.49-1-2.47.29-2.82-.69s1.06-1.84.64-3c-.3-.85-3-3.93-3.17-4.4s0-.7.65-1c1.17-.54,8.69-3.81,8.69-3.81.22-.08.35,0,.4.14a17,17,0,0,1-.35,2.65c-.05.35-.18.42-.59.61l-4.31,2.08a.34.34,0,0,0-.16.41c.13.36,1,2.31,1.71,2.07.34-.12,4.59-3,5.13-3.18a.24.24,0,0,1,.33.16,9.58,9.58,0,0,1-.34,2.89C172.46,209.86,169.22,212.1,169.22,212.1Z"/><path class="cls-5" d="M176.78,199.05c.16-.05.29.05.39.27l5.23,10.4c.08.17.16.25.27.21.68-.23,3.41-3,3.61-3.1s.85.64,1.14,1.5-3.43,5-5.64,5.71c-.95.33-6.11-10.25-6.46-11.26A7.76,7.76,0,0,1,176.78,199.05Z"/><path class="cls-5" d="M189.27,204.56a1,1,0,0,1-1.07-.41c-.1-.27.71-8.92,1.69-9.29.49-.19,7.33,10.55,7.53,11.06.13.36-.61,2.62-1,2.78s-2.51-2.86-6.12-8.36C190.27,200.34,189.61,204.43,189.27,204.56Z"/><path class="cls-5" d="M208.94,197.92a3.55,3.55,0,0,1-1.24,4.45c.28.76-.46,2.29-2.22,2.94a3.46,3.46,0,0,1-4.59-1.9,4.62,4.62,0,0,1,.32-3.84,3,3,0,0,1-3.62-2.15c-.86-2.37.28-4.45,1.39-4.86,0-.56.65-1.4,1.86-1.84a2.84,2.84,0,0,1,3.85,1.74,3.62,3.62,0,0,1-.5,3.22S207.74,194.62,208.94,197.92ZM199.49,195a2.16,2.16,0,0,0,2.92,1.06c.38-.14.53-.35.36-.82a2.38,2.38,0,0,0-2.86-1.46A.88.88,0,0,0,199.49,195Zm3,5.14a3.31,3.31,0,0,0,4,2,1.11,1.11,0,0,0,.6-1.56,3,3,0,0,0-4-1.55A.8.8,0,0,0,202.53,200.18Z"/><path class="cls-1" d="M46.49,129s.34,1.64,2.17.54a67.16,67.16,0,0,1,9.53-4.94c5.77-2.24,17.37-3.56,25.57-5.68s6.85-2.06,10.63-3.19,6-3.94-.46-4S62.07,113.66,46.49,129Z"/><path class="cls-6" d="M83.24,92.8c-2.17-8.09-5.53-16-7.67-24-.31-1.34-.4-2.88-1.48-3.48a14.72,14.72,0,0,0-3.44.57c-3.24,1.07-3.48,3.91-4.1,7,0,0-2.66,17.37-3.18,19.45,0,0-2.08.52-2.11,2.06,0,.83-.17,1.71,1.52,1.84-.22,1.19-.53,2.86-.79,4.05a6.44,6.44,0,0,0-2.13.4,44,44,0,0,1-7.59,2c-1-.1-1.12-1.71-1.12-1.71-.18-2.91.6-31.27-.64-32.45-1.51-.94-4,.87-4.06.92-1.13,1-.72,3.78-.72,3.78s.06,27.75.32,32.25c.24,4.3,4.82,2.94,4.63,3,1.8-.54,11.18-2.87,12.23-3.38l.84-.41a5.46,5.46,0,0,0,2.14-1.37c1.64-2,2.55-7.82,2.55-7.82,3.1-.71,6.37-1.62,9.44-2.23.39,1.43,2,8.93,2.37,10.42.33,1.12.59,3,1.29,3.57s2.68.12,3.41-.72C86.55,104.71,83.92,95.14,83.24,92.8ZM69,91.07c.75-3.29,1.9-19.8,1.9-19.8,1.85,5.89,4.26,11.92,5.86,18C74.37,89.75,71.44,90.53,69,91.07Z"/><path class="cls-1" d="M110.71,116.5c-4.56-.08-7-3.91-7.32-7.48-.29-2-6.28-43.7-9-53.78-1.08-3.93,1-7.62,4-10a13.65,13.65,0,0,0-1.84.9c-3.88,2.24-7.2,6.64-5.9,11.39,2.76,10.08,8.76,51.81,9,53.78.34,3.57,2.76,7.4,7.32,7.48a13,13,0,0,0,2.91-.35,20.38,20.38,0,0,0,8.18-3.64,25.07,25.07,0,0,1-4.41,1.4A12.8,12.8,0,0,1,110.71,116.5Z"/><path class="cls-1" d="M136.95,107.38c-.71-.75-1.39-1.47-7.88-18.26-.62,3-1.15,5.51-1.63,7.71,4.52,11.49,5.12,12.12,5.75,12.78,1.11,1.18,3.66,3,8.2,2a16.15,16.15,0,0,0,6.56-3.15,16,16,0,0,1-2.8.91C140.61,110.41,138.06,108.56,136.95,107.38Z"/><path class="cls-1" d="M120.25,54.2a13.5,13.5,0,0,0-4.51,2.88c.15.76.3,1.55.45,2.39A14.66,14.66,0,0,1,120.25,54.2Z"/><path class="cls-1" d="M135.5,55.6c-.36-6.59-.17-11.6.87-14.66a10.26,10.26,0,0,1,2.82-4.66,10,10,0,0,0-6.58,6.9,29.93,29.93,0,0,0-1,9A10.1,10.1,0,0,1,135.5,55.6Z"/><path class="cls-6" d="M153,40.79A5.76,5.76,0,0,0,150.76,37a5.85,5.85,0,0,0-4.69-.92l-.72.14c-3.39.74-5.47,2.56-6.35,5.57-1.69,4.88-.75,16.87.83,30.75-.35-.85-.7-1.68-1-2.46-4.3-10.32-5.06-12.09-5.41-12.63a6.71,6.71,0,0,0-7.33-3.23,11.29,11.29,0,0,0-7.56,6.93c-.52,1.59-1.3,6.13-2.61,14-1.31-9.05-3-19.21-4.49-24.53-1.63-5.7-5.17-5.84-7.14-5.41a9.22,9.22,0,0,0-2.65,1.08C98.67,48,96.1,51.18,97,54.5c2.84,10.34,8.82,52,9.13,54.19.21,2.41,1.73,5,4.62,5a10.23,10.23,0,0,0,2.27-.29c1.3-.28,5.7-1.4,7.84-3.88,1.2-1.39,2.38-5.65,7-28.16l.44-2.13c9.47,24.92,10.28,25.78,10.69,26.21.88.93,2.56,1.89,5.61,1.23a12.41,12.41,0,0,0,6.13-3.26c1.67-1.9,2.43-4.68,2.89-10.63v-.21c0-3.26-.15-8.56-.34-14.71-.38-12.77-.85-28.67-.25-36.56Z"/><path class="cls-1" d="M183.1,52.27l-2.68.49c0,.44,0,.91.07,1.37,3-.59,5.53-1.17,7.41-1.7a22.26,22.26,0,0,0,7-3.24c-1.29.53-2.48.9-3.3,1.15C189.53,50.95,186.65,51.6,183.1,52.27Z"/><path class="cls-1" d="M181.14,80.21c0,.43,0,.86,0,1.31l3.47-.69c5.77-1.14,6.87-1.38,7.8-1.81A9.61,9.61,0,0,0,195,77.34c-1,.28-2.8.64-6.62,1.39C186.13,79.18,183.44,79.71,181.14,80.21Z"/><path class="cls-1" d="M177.21,108.47a12.86,12.86,0,0,1-12.1-6,23.37,23.37,0,0,1-3.66-10.43c-.21-1.71-.34-8.4-.4-12.13a12.68,12.68,0,0,1-2.17-3.79,8.48,8.48,0,0,1,1.92-9.3c-.14-5.26-.34-10-.6-14.52a8.72,8.72,0,0,1-2-4.54,9,9,0,0,1,3.24-7.93,11,11,0,0,0-3.43,1.8,9.11,9.11,0,0,0-3.56,8.22,8.7,8.7,0,0,0,2,4.55c.26,4.48.45,9.25.6,14.52a8.48,8.48,0,0,0-1.92,9.3A12.69,12.69,0,0,0,157.3,82c.07,3.74.2,10.42.41,12.13a23.34,23.34,0,0,0,3.66,10.43,12.85,12.85,0,0,0,12.1,6,55.16,55.16,0,0,0,5.87-.82,119.87,119.87,0,0,0,15.93-4.38,6.62,6.62,0,0,0,2.83-1.78,118.87,118.87,0,0,1-15,4.06A55.45,55.45,0,0,1,177.21,108.47Z"/><path class="cls-6" d="M197.49,36.49c-1.49-1.34-3.7-1.74-6.58-1.19l-.42.09c-2.2.48-5.22,1-8.41,1.55-2.44.42-5,.85-7.34,1.3-7.64,1.45-10,2.43-11.28,3.45a6.33,6.33,0,0,0-2.58,5.78,6.09,6.09,0,0,0,2,3.73c.31,5.17.54,10.73.7,16.93a5.72,5.72,0,0,0-2.12,7.12,9.43,9.43,0,0,0,2.31,3.62c.08,5.42.23,11.59.41,12.94.47,5.15,3.77,14.69,12.85,14a52.39,52.39,0,0,0,5.57-.79h0a119.11,119.11,0,0,0,15.58-4.28c2.75-.84,3.73-4.57,3.52-6.88A4.09,4.09,0,0,0,200,90.68c-1.18-1.18-3.51-.87-10.79.52-2,.38-4.5.88-7.62,1.54a1.14,1.14,0,0,1-1-.24c-1.06-.85-1.8-3.14-1.85-4.42s-.28-6.89-.4-10c2.65-.63,6.41-1.37,9.56-2,5.23-1,6.52-1.3,7.16-1.6,2.91-1.32,4.29-4,4.11-7.91a4.09,4.09,0,0,0-1.42-3.08c-1.72-1.48-4.27-1.27-5.07-1.16-.08,0-8.21,1.32-14.47,2.55-.13-4.64-.42-10.47-.63-14.35a136,136,0,0,0,13.32-2.77c4-1.21,8.49-3.07,8.24-6.85A5.25,5.25,0,0,0,197.49,36.49Z"/><path class="cls-1" d="M220.58,98c-4.45,1-8,.28-10.57-2.06a10,10,0,0,1-3-7.85c0-1.48-.38-9.15-.67-15.34-.85-18-1.3-28.41-1.36-33a7.5,7.5,0,0,1-1.58-4.78c.08-3.33,2.22-5.59,4.17-7.06-.38.19-.77.35-1.16.54l-.05,0-.06,0-.21.11-.05,0,0,0c-2,1.24-6.16,3.82-6.28,8.48a7.5,7.5,0,0,0,1.59,4.78c.06,4.63.52,15.05,1.36,33,.29,6.19.65,13.86.67,15.34a10,10,0,0,0,3,7.85c2.56,2.34,6.12,3,10.57,2.06q.66-.14,1.37-.34a52.75,52.75,0,0,0,14.58-6.61,53.84,53.84,0,0,1-10.89,4.41Q221.23,97.85,220.58,98Z"/><path class="cls-1" d="M225.52,68.91l.07,1.25a10.24,10.24,0,0,1,2.8-.15,10.79,10.79,0,0,1-.47,3l0,.06h0a9.34,9.34,0,0,1-2,3.24l0,.76c4.46-2.61,5.51-5.86,5.61-6.2h0v-.05a10.67,10.67,0,0,0,.47-3,11.63,11.63,0,0,0-3.81.34C227.31,68.36,226.36,68.63,225.52,68.91Z"/><path class="cls-1" d="M224.53,38.4c-.27.06-.55.13-.84.21l.44,7.6.1-.12h0l0,0,.13-.17,0,0,0,0a8.31,8.31,0,0,0,1.22-7.55A7.56,7.56,0,0,0,224.53,38.4Z"/><path class="cls-6" d="M248.34,59.43c-2.1-4.37-6.47-6.16-10.16-6.86a22,22,0,0,0,3.41-20.22l-.13-.33c-2.39-5.63-6.44-8.85-11.17-8.84a34.42,34.42,0,0,0-6.19.86,54.45,54.45,0,0,0-12.81,4.6l-.21.12c-1.72,1.06-4.92,3-5,6.24a5,5,0,0,0,1.58,3.69c0,3.93.44,14.33,1.36,33.93.35,7.36.67,14.32.68,15.54a7.2,7.2,0,0,0,2.12,5.77c1.87,1.71,4.62,2.19,8.16,1.41h0c.39-.09.79-.19,1.22-.3,10.17-2.87,19-8.71,23.67-15.64C251.18,70,250.24,63.37,248.34,59.43ZM226.56,47.5l-.13.17a23.31,23.31,0,0,1-4.7,4.38l-.88-15.31a19,19,0,0,1,3.09-1c1.63-.36,2.94-.32,3.49.11C228.5,36.76,230.3,43,226.56,47.5Zm7.67,24c0,.07-1.61,6.39-10.73,9.68-.28-5-.63-11.12-.8-14.18a35.81,35.81,0,0,1,5-1.53c3.21-.7,5.64-.57,6.51.35S235,68.7,234.23,71.53Z"/><path class="cls-1" d="M235.46,165.86a6.31,6.31,0,0,1-5.64-2.5c-2.32-3.18-.75-7.48-.56-8,0-.13.23-.73.83-3.41a6.45,6.45,0,0,1-1.42-4.85v-.2a7,7,0,0,1,3.56-5.66c1.13-5.46,3.62-19.06,4.54-24.17V117l.27-1.2c.68-3.13,1.57-7.18,5-9.76l-.08,0c-6,2.14-7.15,7.47-8,11.36l-.27,1.2v.09c-.92,5.1-3.41,18.71-4.54,24.16a7,7,0,0,0-3.56,5.67v.19a6.45,6.45,0,0,0,1.42,4.85c-.6,2.68-.78,3.28-.83,3.41-.19.49-1.76,4.78.55,8a6.32,6.32,0,0,0,5.64,2.5,7.11,7.11,0,0,0,.81-.09,11,11,0,0,0,4.54-2,9.12,9.12,0,0,1-1.47.38A6.75,6.75,0,0,1,235.46,165.86Z"/><path class="cls-1" d="M255.56,160.14c-1.74-1.57-2.23-3.91-2.66-6l0-.08c-.08-.37-.15-.72-.24-1.07l0-.12v-.07c-.11-.52-.19-1-.27-1.49-1.22.25-2.45.52-3.66.79l-.1,0-2,.44-.26,1,2.94-.64c.08.48.17,1,.27,1.49v.07l0,.12c.09.35.16.7.24,1.07l0,.08c.43,2.06.92,4.4,2.66,6a6.69,6.69,0,0,0,5.79,1.48,9.3,9.3,0,0,0,4.37-1.94,9.53,9.53,0,0,1-1.29.31A6.69,6.69,0,0,1,255.56,160.14Z"/><path class="cls-6" d="M251.39,105.64a22.68,22.68,0,0,0-5.57.9c-4.83,1.73-5.76,6-6.58,9.75l-.27,1.21c-1.07,5.91-3.79,20.72-4.77,25.23a5.11,5.11,0,0,0-3.3,4.31v.2c-.11,1.86.44,3.18,1.65,3.94-.43,2-1,4.44-1.21,5-.06.14-1.37,3.58.29,5.87a4.07,4.07,0,0,0,3.72,1.6,5.45,5.45,0,0,0,.58-.07h0a9.35,9.35,0,0,0,4.8-2.64c2.09-2.35,3.43-7.52,4-10.23l3.41-.74c2-.44,4-.89,6-1.27.06.34.11.69.16,1,.13.84.27,1.7.46,2.62l0,.12c.1.36.18.77.27,1.2.38,1.82.78,3.71,2,4.8a4.55,4.55,0,0,0,4,.93,6.89,6.89,0,0,0,3.84-1.92c2.94-3.16,1.65-8.07.71-11.65l-.17-.64c-1.37-5.71-3.17-11.43-4.92-17-1.68-5.32-3.41-10.82-4.69-16.09-.06-.32-.12-.64-.17-1-.31-1.82-.7-4.09-2.76-5.3A5.49,5.49,0,0,0,251.39,105.64Zm-2.61,33.92-2.22.48c.54-3.49,1.14-8.62,1.65-13.25,1.26,4,2.55,8.08,3.6,12.12Z"/><path class="cls-1" d="M79.63,146.5l-2.19.35c0,.39,0,.75,0,1.12,2.46-.42,4.51-.84,6-1.23a18.16,18.16,0,0,0,5.75-2.48c-1,.4-2,.67-2.67.86C84.87,145.55,82.52,146,79.63,146.5Z"/><path class="cls-1" d="M64.5,192.12c-2.83-1.54-3.72-5-3.61-7.62,0-.07.21-7,.31-15.81a12,12,0,0,1-2-3.59A6.43,6.43,0,0,1,61.24,158c0-4.48-.07-8.36-.18-11.8a6.67,6.67,0,0,1-1.63-3.48,7.41,7.41,0,0,1,2.89-6.76,9,9,0,0,0-2.84,1.41,7.48,7.48,0,0,0-3.13,7A6.66,6.66,0,0,0,58,147.81c.11,3.44.17,7.32.18,11.8a6.43,6.43,0,0,0-2.08,7.12,12,12,0,0,0,2,3.59c-.1,8.78-.3,15.74-.31,15.8-.11,2.66.77,6.08,3.61,7.62a10.45,10.45,0,0,0,5.35.9,7.12,7.12,0,0,0,3.75-1.75c-.22.05-.45.1-.68.13A10.42,10.42,0,0,1,64.5,192.12Z"/><path class="cls-1" d="M77.44,169.34c0,.35,0,.7,0,1l2.79-.51c4.84-.87,5.77-1.05,6.53-1.39a7.77,7.77,0,0,0,2.08-1.3c-.86.22-2.35.49-5.53,1.07C81.46,168.58,79.29,169,77.44,169.34Z"/><path class="cls-6" d="M91.58,133.94c-1.18-1.11-3-1.48-5.28-1.1l-.36.06c-1.8.35-4.25.71-6.85,1.09-2,.29-4,.59-6,.9-6.23,1-8.19,1.77-9.22,2.58a5.36,5.36,0,0,0-2.31,4.92,4.51,4.51,0,0,0,1.62,2.84c.13,3.94.2,8.5.21,13.87a4.4,4.4,0,0,0-2.19,5.31,9.53,9.53,0,0,0,2.16,3.44c-.09,9.29-.31,16.67-.32,16.72,0,.7-.05,4.25,2.46,5.61h0a6.51,6.51,0,0,0,3.94.67,5.57,5.57,0,0,0,3.87-2.67c1.62-2.56,1.88-14.2,1.89-20.64,2.12-.46,5.13-1,7.65-1.45,4.42-.79,5.51-1,6-1.24,2.36-1,3.52-3.14,3.45-6.28a3.34,3.34,0,0,0-1.1-2.54,5.42,5.42,0,0,0-4-1c-1.15.11-7.7,1.15-11.86,1.83,0-2.95-.09-7-.24-11.86A109.38,109.38,0,0,0,86,143c3.25-.9,6.94-2.33,6.8-5.41A4.29,4.29,0,0,0,91.58,133.94Z"/><path class="cls-1" d="M207.93,137.17a32,32,0,0,1-1.94,9.48c0,1.44-.08,2.86-.12,4.22,4-5.17,4.94-11.52,5.14-15.32.35-6.62-.78-9.62-1.48-10.35h-.45s-1.13,0-2.64.21c0,.44,0,.9,0,1.39h0C207.15,127.55,208.28,130.55,207.93,137.17Z"/><path class="cls-1" d="M189.84,167.62c-1-2.95,0-36.72.19-42.88a6.89,6.89,0,0,1-1.43-5.43,7.83,7.83,0,0,1,3.48-5.44c-3.12,1.23-6,3.31-6.56,7.06a6.89,6.89,0,0,0,1.43,5.43c-.2,6.16-1.23,39.94-.19,42.88.93,2.64,3.71,5.16,8.72,4.34,3.39-.56,7.41-2.56,10.13-4.1a27.36,27.36,0,0,1-7,2.48C193.55,172.79,190.77,170.26,189.84,167.62Z"/><path class="cls-6" d="M221.68,117.8c-2.27-4.35-6.07-6.35-11.3-5.95-3.22.25-5.9.55-8.19.92-5,.82-10.79,2.34-11.41,6.84a4.53,4.53,0,0,0,1.49,4.25c-.34,8.44-1.13,40.8-.34,43,.39,1.12,1.8,3.64,6.29,2.9h0c4.82-.79,11.51-5.08,12.19-5.53a28.81,28.81,0,0,0,11.78-14.81C225.47,139.55,225.27,125.39,221.68,117.8Zm-8.47,17.87c-.63,11.82-6.1,17.91-9.71,20.67.31-9.07.78-26.12.74-32.8l.42-.07A35.45,35.45,0,0,1,209,123h.18a2.1,2.1,0,0,1,1.82.57C212.71,125.19,213.52,129.7,213.2,135.67Z"/><path class="cls-1" d="M149,179.92a6.7,6.7,0,0,1-7.5-6.11v-.71c.63-7.68,1.08-24.14,1.36-34v-.07l0-.53c.08-3,.14-5.09.18-6.1.21-5,1.35-8.28,3.45-10.07a13.39,13.39,0,0,0-1.77.73c-2.95,1.43-4.51,5-4.76,11,0,1-.1,3.15-.18,6.11l0,.53v.07c-.27,9.83-.72,26.29-1.35,34v.71a6.7,6.7,0,0,0,7.5,6.11c.34,0,.66-.07,1-.12a8.76,8.76,0,0,0,4.3-1.9,11.19,11.19,0,0,1-1.23.28C149.67,179.85,149.34,179.89,149,179.92Z"/><path class="cls-1" d="M174,176.1h-.23a7,7,0,0,1-6.33-2.68l-.16-.18c-.94-1.05-5.16-9.64-8.47-16.53-.07,2.74-.18,5.16-.33,7.28,2.57,5.25,5,10.1,5.73,10.88l.16.18a7,7,0,0,0,6.33,2.68h.3a10.18,10.18,0,0,0,4.66-2,11,11,0,0,1-1.58.39Z"/><path class="cls-1" d="M167.47,124.73a9.14,9.14,0,0,1,3-6.23c-.5.16-.95.31-1.3.46l0,0,0,0a8.76,8.76,0,0,0-4.74,7.36c-.15,1.56-.25,3.24-.34,5l2.85,6.49C167,133.08,167.12,128.52,167.47,124.73Z"/><path class="cls-6" d="M178.68,118.07a6,6,0,0,0-1.21.1,24.79,24.79,0,0,0-4.31,1.19,6.67,6.67,0,0,0-3.48,5.53h0c-.57,6-.59,14.15-.61,22,0,.41,0,.82,0,1.22q-3.71-8.3-10.2-23.14l-.62-1.42c-.93-2.19-3.79-1.72-4.73-1.57a18.11,18.11,0,0,0-4.71,1.44c-2.15,1-3.34,4.08-3.55,9.09,0,1.06-.11,3.45-.2,6.6-.27,9.88-.72,26.41-1.36,34.16v.35a4.5,4.5,0,0,0,5.12,4.1c.28,0,.54-.06.79-.1a6.09,6.09,0,0,0,5.05-4c1.7-4,2.08-15.24,2.07-26.43,4.59,9.76,11.28,23.55,12.2,24.58l.16.18a4.81,4.81,0,0,0,4.48,2h.16a7.71,7.71,0,0,0,6-4.75l.11-.34c1-4.58,1.28-29.14,1.31-31.83,0-.48.65-11.89.58-15.62A3.11,3.11,0,0,0,178.68,118.07Z"/><path class="cls-1" d="M119.49,141a25.46,25.46,0,0,0-1.51,3.16c.62,1.66,1.53,5.55,1,13.52a37.83,37.83,0,0,1-2.1,10.14,7.9,7.9,0,0,0,.91,2c1.75-1,3.87-7.65,4.26-13.71.7-10.82-1.22-14.13-1.49-14.54A3.37,3.37,0,0,0,119.49,141Z"/><path class="cls-1" d="M103.35,178.6c-5-6.88-6.41-20.81-3.33-32.39,1.2-4.66,3.41-13.28,11.41-17.78a10,10,0,0,1,1.38-1.27,10.36,10.36,0,0,0-4.45,2.89c-8,4.49-10.21,13.12-11.41,17.78-3.08,11.58-1.65,25.51,3.33,32.39s10.84,7.61,14.83,7a20.59,20.59,0,0,0,5.21-1.66,16.16,16.16,0,0,0,2.26-1.27,19.66,19.66,0,0,1-4.39,1.32C114.19,186.21,108.37,185.54,103.35,178.6Z"/><path class="cls-6" d="M127.24,129.54c-3.41-1.95-6.54-2.7-9.3-2.25a8.23,8.23,0,0,0-5.11,2.88c-6.86,3.67-9.12,10.48-10.69,16.59-2.88,10.84-1.57,24.26,3,30.55,3.5,4.84,7.77,6.88,12.69,6.07a18.36,18.36,0,0,0,4.65-1.5c10.33-4.72,12.75-21.52,12.83-22.15C138.06,144.1,135.42,134.22,127.24,129.54Zm-3,26.61c-.32,4.88-2.31,15.18-6.41,15.86l-.37,0a1.29,1.29,0,0,1-1-.46c-1.82-1.75-3.1-7.11-3.18-13.34,0-2.75.17-12.1,4.93-19.5a4.8,4.8,0,0,1,3.73,1C122.87,140.43,125,144.63,124.26,156.15Z"/><path class="cls-7" d="M278.5,81.68c.56.79,2.25,1,2.72,1.61.33.45-.26.45-.52.45a17.59,17.59,0,0,0-2.9.07c-.71.21-.75,1-.82,1.53-.14,1.21-.39,1.74-.72,1.72s-.6-.4-.6-1.07c0-.24,0-.88,0-1.08-.1-.49-.24-.92-.83-1-1.33-.19-4,.15-3-.62a8.39,8.39,0,0,1,1.34-.79c.57-.33,1.38-.56,1.09-1.26-.19-.48-.49-1-.73-1.47-.11-.2-.17-.37-.3-.64a1.47,1.47,0,0,1-.12-.57c.16-.39.45-.23.76-.07s1.35.94,2,1.44c.46.35.64.35,1.11-.18a6.12,6.12,0,0,1,1.87-1.51.31.31,0,0,1,.34,0,.43.43,0,0,1,0,.48,6,6,0,0,0-.82,2c0,.11,0,.31,0,.48a.58.58,0,0,0,.13.5Z"/><path class="cls-8" d="M302.52,166a1.59,1.59,0,0,0,2.58-1.84,1.39,1.39,0,0,0-.3-.31l-3.37-4.71,3-3.61,2.16,3a1.63,1.63,0,0,0-.91.3,1.65,1.65,0,1,0,2.31.38l-.06-.09h0l-3-4.24a.54.54,0,0,0-.76-.13l0,0-3.26,3.89a.54.54,0,0,0-.09.74l2.91,4.07a1.61,1.61,0,0,0-.78.29A1.6,1.6,0,0,0,302.52,166Z"/><path class="cls-9" d="M180.34,225.14c16.63-6.77,31.87-12.35,47.42-16.17a188.42,188.42,0,0,1,41.45-5.54v3.11s-17.83-1-45,5.63C201.78,217.64,180.34,225.14,180.34,225.14Z"/></g></g></svg>