<svg xmlns="http://www.w3.org/2000/svg" viewBox="0 0 130.99 126.74"><defs><style>.cls-1{fill:#cf0a2c;}.cls-2{fill:#fff;}.cls-3{fill:#f0c700;}.cls-4{fill:#1e120d;}.cls-5{fill:#92101d;}</style></defs><title>Recurso 4</title><g id="Capa_2" data-name="Capa 2"><g id="Capa_1-2" data-name="Capa 1"><path class="cls-1" d="M129.5,104.17A103.68,103.68,0,0,0,108.32,107c-12.63,3-24.45,8-36.55,12.54a106.56,106.56,0,0,1-35,7.17,177.79,177.79,0,0,1-18.29-.62,82.13,82.13,0,0,1-9.74-1.27c-2-.4-4.54-.71-6.32-1.72C1,122.33.92,121.83,1,120.36c.16-3.17.38-6.34.56-9.5l.91-15.41s.39-2.76,1.52-.39c2.47,7,6.44,8,11.35,9a70.57,70.57,0,0,0,18.5.92c22.55-1.36,43.67-10.18,65.32-15.8a140.81,140.81,0,0,1,30-4.9l.75-.06c2.85,1.17-1.12,12.09.81,20Z"/><path class="cls-2" d="M126.22,99.89c0-.07-.1-.09-.1-.09a4.85,4.85,0,0,1-2.6-1.28,16.44,16.44,0,0,1-2.63-3c-.12-.23,0-.27,0-.27h0A3.4,3.4,0,0,0,122.74,92c-.21-2.3-2.45-2.77-4.42-2.59-.74.07-1,.15-1.75.22s-1.44.08-1.58.09a.21.21,0,0,0-.18.25c.05.55,1.23-.5,1.4,1.35l.69,7.4c.16,1.72-1.09,1.35-1.05,1.76,0,.14.17.17.26.16.45,0,1-.15,1.67-.22.91-.08,1.15,0,1.68-.1s.44-.12.43-.23c0-.53-1.6.43-1.8-1.79l-.72-7.8c0-.46.29-.5.79-.54,1.78-.16,3.27.69,3.48,2.56a2.42,2.42,0,0,1-2.27,2.7,3.13,3.13,0,0,1-.56,0c-.08,0-.15,0-.14.15s.14.2.27.23a1.68,1.68,0,0,1,1.06.68c1.21,1.63,2.64,4.1,5.34,3.85,1-.09.9-.21.89-.3"/><path class="cls-2" d="M16.48,118.59l-.75-.09a17.17,17.17,0,0,1-.8,1.71c-.21,0-1-.84-.93-1.12,0,0,.11-.31.28-.74l-.84-.09a15.64,15.64,0,0,1-.8,1.67c-.21,0-1-.84-.93-1.12,0,0,.1-.3.26-.7L11,118c-.12,0-.21-.08-.2-.18s.62-1.23.87-1.2l.86.1.35-.83-1-.12c-.14,0-.21-.08-.2-.18s.61-1.23.87-1.2l1,.11a7.06,7.06,0,0,1,.87-1.7c.22,0,1,.81.93,1.06a8.21,8.21,0,0,1-.32.79l.83.08a7.18,7.18,0,0,1,.85-1.66c.22,0,1,.81.93,1.06,0,0-.12.34-.3.75l.86.09q.17,0,.15.14c0,.22-.82,1.25-1,1.23l-.61-.07c-.12.27-.25.55-.36.83l1,.1c.1,0,.16.06.15.14S16.84,118.64,16.48,118.59ZM14,116.89l.82.08.35-.83-.8-.08C14.28,116.33,14.16,116.61,14,116.89Z"/><path class="cls-2" d="M27.47,114.58c-.06,1.81-2.1,2.32-2.11,2.6,0,.1.08.2.28.33l2.41,1.56c.27.18.46.77.41,2.16,0,.18-.08.3-.19.3-.32,0-4.52-3.16-4.64-3.16a.1.1,0,0,0-.1.11c0,.12.16.94.15,1.27s-1.21,1.59-1.32,1.58c-.36,0-1.13-4.73-1.1-5.7,0-.24-1-.09-1-.52,0-.65,1.83-2.54,4.76-2.44C26.71,112.72,27.5,113.65,27.47,114.58ZM23.41,117a2.42,2.42,0,0,0,2.11-1.79c0-.58-.22-1.16-1.42-1.2-.85,0-1.19.25-1.21.67C22.88,114.86,23.1,117,23.41,117Z"/><path class="cls-2" d="M32.43,118c-.11,0-.14.14-.13.27,0,.44.17,1.37.68,1.36,1,0,2.88-1.49,3-1.49s.25.86.26,1c0,.54-2.06,2.2-3.52,2.22-1.18,0-1.88-.88-2.06-2.42-.08-.67-1.42-.29-1.44-.9s.93-.82.92-1.56c0-.53-.94-2.74-.95-3s.12-.39.55-.44c.75-.08,5.53-.51,5.53-.51s.2.05.2.15a10,10,0,0,1-.68,1.4c-.09.18-.18.2-.44.23l-2.78.36a.2.2,0,0,0-.16.2c0,.22.14,1.47.57,1.46.21,0,3.1-.81,3.43-.82a.14.14,0,0,1,.16.15,5.6,5.6,0,0,1-.72,1.54C34.64,117.39,32.43,118,32.43,118Z"/><path class="cls-2" d="M42,112.33a.28.28,0,0,1,.22-.22c.25,0,1.16,1.1,1.1,1.32l-1.87,7.46c-.09.33-1.37.81-1.65.83a.24.24,0,0,1-.28-.23c0-.24.62-2.84.76-3.28a28.41,28.41,0,0,1-3.22-4.46c0-.35.64-1.73,1-1.75.15,0,.25.05.38.23l2.28,3.29c.12.19.21.29.3.29s.13-.08.18-.26Z"/><path class="cls-2" d="M48,117c-.11,0-.12.16-.1.28.06.44.32,1.35.83,1.28,1-.12,2.7-1.8,2.86-1.82s.35.83.37,1c.07.54-1.8,2.41-3.25,2.6-1.17.15-2-.67-2.32-2.18-.16-.65-1.45-.13-1.53-.74s.83-.92.74-1.65c-.07-.52-1.24-2.62-1.28-2.91s.07-.4.5-.5c.74-.17,5.44-1.12,5.44-1.12s.2,0,.21.13a10,10,0,0,1-.52,1.47c-.07.19-.15.22-.41.28l-2.72.66a.2.2,0,0,0-.14.21c0,.22.3,1.45.73,1.39.21,0,3-1.15,3.32-1.19a.14.14,0,0,1,.17.13,5.6,5.6,0,0,1-.55,1.61C50.18,116.1,48,117,48,117Z"/><path class="cls-2" d="M54.89,110.35a2.44,2.44,0,0,1,3,1.6c.07.31-.91,1.33-1.21,1.4s-.86-1.72-2.38-1.37a.75.75,0,0,0-.57.87c.13.56.63,1,1.7,1,3.07-.23,3.73.42,4.08,1.94a2.5,2.5,0,0,1-2,3c-2,.45-3.45-.67-3.65-1.56,0-.18.33-1.39.71-1.47s1.6,2,3.32,1.58a.71.71,0,0,0,.59-.85c-.12-.53-.72-1.11-2.17-.95-2.41.26-3.22-.23-3.66-2.19C52.33,112,53.18,110.74,54.89,110.35Z"/><path class="cls-2" d="M61,111.47c-.11-.23-.36-.17-.6-.09s-.54.1-.63-.17c-.28-.84,1-2.65,3-3.31s3.8.07,4.37,1.77c1.07,3.23-1.56,6.78-2.92,7.23-.07,0-.14,0-.22-.12A31.88,31.88,0,0,1,61,111.47Zm4,3.26c.05.11.11.15.19.13.24-.08.93-1.48.23-3.59a2.57,2.57,0,0,0-3.08-1.86.13.13,0,0,0-.07.2Z"/><path class="cls-2" d="M72.26,110.48c-.1.06-.08.18,0,.3.15.42.59,1.25,1.08,1.08.9-.32,2.26-2.32,2.42-2.37s.51.73.57.9c.18.51-1.26,2.73-2.64,3.22-1.11.39-2.06-.24-2.72-1.65-.29-.61-1.44.17-1.65-.4s.62-1.08.38-1.77c-.18-.5-1.76-2.3-1.85-2.57s0-.41.38-.59c.68-.32,5.08-2.23,5.08-2.23s.2,0,.23.08a9.94,9.94,0,0,1-.2,1.55c0,.2-.11.24-.35.36l-2.52,1.22a.2.2,0,0,0-.09.24c.07.21.6,1.35,1,1.21.2-.07,2.69-1.75,3-1.86a.14.14,0,0,1,.2.09,5.6,5.6,0,0,1-.2,1.69C74.16,109.18,72.26,110.48,72.26,110.48Z"/><path class="cls-2" d="M76.68,102.85c.09,0,.17,0,.23.16L80,109.09c0,.1.09.14.16.12a23.83,23.83,0,0,0,2.11-1.81c.16-.05.5.37.67.87s-2,2.89-3.3,3.34c-.55.19-3.57-6-3.78-6.59A4.54,4.54,0,0,1,76.68,102.85Z"/><path class="cls-2" d="M84,106.07a.59.59,0,0,1-.63-.24c-.06-.16.42-5.22,1-5.43.29-.11,4.29,6.17,4.4,6.47a3,3,0,0,1-.6,1.63c-.22.08-1.47-1.67-3.58-4.89A12.4,12.4,0,0,1,84,106.07Z"/><path class="cls-2" d="M95.49,102.19a2.07,2.07,0,0,1-.72,2.6c.16.44-.27,1.34-1.3,1.72a2,2,0,0,1-2.68-1.11,2.7,2.7,0,0,1,.19-2.24,1.78,1.78,0,0,1-2.12-1.26,2.25,2.25,0,0,1,.81-2.84c0-.33.38-.82,1.09-1.08A1.66,1.66,0,0,1,93,99a2.12,2.12,0,0,1-.29,1.88A2.23,2.23,0,0,1,95.49,102.19ZM90,100.51a1.26,1.26,0,0,0,1.71.62c.22-.08.31-.2.21-.48a1.39,1.39,0,0,0-1.67-.86A.52.52,0,0,0,90,100.51Zm1.78,3a1.94,1.94,0,0,0,2.32,1.18.65.65,0,0,0,.35-.91,1.78,1.78,0,0,0-2.34-.91A.47.47,0,0,0,91.74,103.52Z"/><path class="cls-3" d="M.49,61.86s.2,1,1.27.32a39.28,39.28,0,0,1,5.57-2.89c3.37-1.31,10.16-2.08,15-3.32s4-1.21,6.22-1.86,3.53-2.31-.27-2.33S9.6,52.92.49,61.86Z"/><path class="cls-4" d="M22,40.72c-1.27-4.73-3.24-9.38-4.49-14-.18-.78-.24-1.69-.86-2a8.61,8.61,0,0,0-2,.33c-1.9.62-2,2.29-2.4,4.09,0,0-1.55,10.16-1.86,11.37,0,0-1.22.31-1.24,1.21,0,.48-.1,1,.89,1.07-.13.69-.31,1.67-.46,2.37a3.77,3.77,0,0,0-1.25.24,25.71,25.71,0,0,1-4.44,1.14c-.59-.06-.66-1-.66-1-.1-1.7.35-18.29-.37-19C2,26,.49,27,.46,27.05-.2,27.63,0,29.27,0,29.27s0,16.23.18,18.86S3,49.84,2.93,49.88c1.05-.32,6.54-1.68,7.15-2l.49-.24a3.2,3.2,0,0,0,1.25-.8c1-1.14,1.49-4.58,1.49-4.58,1.81-.42,3.73-.95,5.52-1.3.23.84,1.19,5.22,1.39,6.09.19.66.35,1.76.75,2.09s1.57.07,2-.42C23.91,47.68,22.38,42.09,22,40.72Zm-8.33-1c.44-1.93,1.11-11.58,1.11-11.58,1.08,3.44,2.49,7,3.43,10.5C16.79,38.93,15.08,39.39,13.65,39.7Z"/><path class="cls-3" d="M38,54.58a4.51,4.51,0,0,1-4.28-4.38c-.17-1.15-3.67-25.56-5.29-31.45-.63-2.3.6-4.46,2.32-5.88a8,8,0,0,0-1.07.52c-2.27,1.31-4.21,3.88-3.45,6.66,1.61,5.89,5.12,30.3,5.29,31.45a4.51,4.51,0,0,0,4.28,4.38,7.63,7.63,0,0,0,1.7-.21,11.92,11.92,0,0,0,4.78-2.13,14.66,14.66,0,0,1-2.58.82A7.49,7.49,0,0,1,38,54.58Z"/><path class="cls-3" d="M53.39,49.25c-.42-.44-.81-.86-4.61-10.68-.36,1.74-.68,3.22-1,4.51,2.64,6.72,3,7.09,3.36,7.48A4.82,4.82,0,0,0,56,51.74a9.44,9.44,0,0,0,3.84-1.84,9.33,9.33,0,0,1-1.64.53A4.82,4.82,0,0,1,53.39,49.25Z"/><path class="cls-3" d="M43.62,18.14A7.89,7.89,0,0,0,41,19.83c.08.45.18.91.26,1.4A8.57,8.57,0,0,1,43.62,18.14Z"/><path class="cls-3" d="M52.54,19c-.21-3.86-.1-6.78.51-8.57A6,6,0,0,1,54.7,7.66a5.87,5.87,0,0,0-3.85,4,17.5,17.5,0,0,0-.6,5.28A5.91,5.91,0,0,1,52.54,19Z"/><path class="cls-4" d="M62.77,10.3a3.37,3.37,0,0,0-1.3-2.22,3.42,3.42,0,0,0-2.74-.54l-.42.08a4.5,4.5,0,0,0-3.71,3.25c-1,2.85-.44,9.87.49,18l-.6-1.44c-2.52-6-3-7.07-3.16-7.39A3.93,3.93,0,0,0,47,18.16a6.6,6.6,0,0,0-4.42,4.05c-.3.93-.76,3.58-1.53,8.16A138.15,138.15,0,0,0,38.46,16c-1-3.33-3-3.41-4.18-3.16a5.39,5.39,0,0,0-1.55.63c-1.73,1-3.23,2.89-2.7,4.83,1.66,6,5.16,30.42,5.34,31.69A2.94,2.94,0,0,0,38.07,53a6,6,0,0,0,1.33-.17c.76-.17,3.33-.82,4.58-2.27.7-.81,1.39-3.3,4.07-16.47l.26-1.25c5.54,14.57,6,15.07,6.25,15.33a3.25,3.25,0,0,0,3.28.72,7.26,7.26,0,0,0,3.58-1.91c1-1.11,1.42-2.74,1.69-6.22v-.12c0-1.91-.09-5-.2-8.6-.22-7.47-.5-16.77-.15-21.38Z"/><path class="cls-3" d="M80.38,17l-1.57.29c0,.26,0,.53,0,.8,1.77-.35,3.24-.68,4.33-1a13,13,0,0,0,4.12-1.9c-.75.31-1.45.53-1.93.67C84.14,16.24,82.46,16.62,80.38,17Z"/><path class="cls-3" d="M79.23,33.36c0,.25,0,.5,0,.76l2-.4a24.46,24.46,0,0,0,4.56-1.06,5.62,5.62,0,0,0,1.49-1c-.6.16-1.64.37-3.87.82C82.15,32.75,80.58,33.07,79.23,33.36Z"/><path class="cls-3" d="M76.93,49.88a7.52,7.52,0,0,1-7.08-3.48,13.66,13.66,0,0,1-2.14-6.1c-.12-1-.2-4.91-.24-7.1A7.41,7.41,0,0,1,66.21,31a5,5,0,0,1,1.12-5.44c-.08-3.08-.2-5.87-.35-8.49a5.1,5.1,0,0,1-1.17-2.66,5.29,5.29,0,0,1,1.9-4.64,6.41,6.41,0,0,0-2,1.06,5.33,5.33,0,0,0-2.08,4.81,5.09,5.09,0,0,0,1.17,2.66c.15,2.62.27,5.41.35,8.49A5,5,0,0,0,64,32.21a7.42,7.42,0,0,0,1.27,2.22c0,2.18.12,6.09.24,7.1a13.65,13.65,0,0,0,2.14,6.1,7.51,7.51,0,0,0,7.08,3.48,32.26,32.26,0,0,0,3.43-.48,70.1,70.1,0,0,0,9.32-2.56,3.87,3.87,0,0,0,1.65-1,69.51,69.51,0,0,1-8.78,2.37A32.43,32.43,0,0,1,76.93,49.88Z"/><path class="cls-4" d="M88.8,7.79a4.31,4.31,0,0,0-3.85-.7l-.25.05c-1.28.28-3.05.58-4.92.9-1.42.24-2.91.5-4.29.76-4.47.85-5.87,1.42-6.59,2a3.7,3.7,0,0,0-1.51,3.38,3.56,3.56,0,0,0,1.15,2.18c.18,3,.32,6.28.41,9.9a3.34,3.34,0,0,0-1.24,4.16,5.52,5.52,0,0,0,1.35,2.12c0,3.17.14,6.78.24,7.57.28,3,2.21,8.59,7.51,8.17a30.64,30.64,0,0,0,3.26-.46h0a69.66,69.66,0,0,0,9.11-2.51c1.61-.49,2.18-2.68,2.06-4a2.39,2.39,0,0,0-1-1.84c-.69-.69-2-.51-6.31.3-1.18.22-2.63.52-4.46.9a.67.67,0,0,1-.61-.14A4.19,4.19,0,0,1,77.83,38c0-.79-.16-4-.23-5.86,1.55-.37,3.75-.8,5.59-1.16A28.58,28.58,0,0,0,87.38,30c1.7-.77,2.51-2.34,2.4-4.63a2.39,2.39,0,0,0-.83-1.8,4,4,0,0,0-3-.68s-4.8.77-8.46,1.49c-.07-2.71-.24-6.12-.37-8.39a79.55,79.55,0,0,0,7.79-1.62c2.33-.7,5-1.8,4.82-4A3.07,3.07,0,0,0,88.8,7.79Z"/><path class="cls-3" d="M102.29,43.76c-2.6.57-4.68.16-6.18-1.2A5.82,5.82,0,0,1,94.35,38c0-.87-.22-5.35-.39-9-.49-10.52-.76-16.62-.8-19.32a4.39,4.39,0,0,1-.93-2.79,5.41,5.41,0,0,1,2.44-4.13L94,3.06l0,0,0,0-.12.07,0,0,0,0c-1.17.72-3.6,2.23-3.67,5A4.39,4.39,0,0,0,91,11c0,2.71.3,8.8.8,19.32.17,3.62.38,8.1.39,9A5.82,5.82,0,0,0,94,43.84c1.5,1.37,3.58,1.77,6.18,1.2l.8-.2A30.85,30.85,0,0,0,109.46,41a31.49,31.49,0,0,1-6.37,2.58Z"/><path class="cls-3" d="M105.19,26.75l0,.73a6,6,0,0,1,1.64-.09,6.31,6.31,0,0,1-.28,1.75v0h0a5.46,5.46,0,0,1-1.15,1.89l0,.44a6.88,6.88,0,0,0,3.28-3.63h0v0a6.24,6.24,0,0,0,.28-1.75,6.8,6.8,0,0,0-2.23.2C106.23,26.43,105.68,26.59,105.19,26.75Z"/><path class="cls-3" d="M104.6,8.91l-.49.13.25,4.44.06-.07h0l0,0,.07-.1,0,0,0,0a4.86,4.86,0,0,0,.72-4.41A4.42,4.42,0,0,0,104.6,8.91Z"/><path class="cls-4" d="M118.53,21.2c-1.23-2.56-3.78-3.6-5.94-4a12.86,12.86,0,0,0,2-11.82l-.07-.2C113.11,1.88,110.74,0,108,0a20.13,20.13,0,0,0-3.62.5,31.84,31.84,0,0,0-7.49,2.69l-.12.07c-1,.62-2.88,1.78-2.92,3.65a2.93,2.93,0,0,0,.92,2.16c0,2.3.26,8.38.8,19.84.2,4.3.39,8.38.4,9.09a4.21,4.21,0,0,0,1.24,3.38c1.09,1,2.7,1.28,4.77.83h0l.71-.18c5.94-1.68,11.12-5.1,13.84-9.14C120.19,27.4,119.64,23.51,118.53,21.2Zm-12.74-7-.08.1A13.63,13.63,0,0,1,103,16.89l-.51-9a11.14,11.14,0,0,1,1.81-.58,2.89,2.89,0,0,1,2,.06C106.93,7.95,108,11.57,105.79,14.23Zm4.49,14.05S109.34,32,104,33.94c-.16-2.92-.37-6.5-.47-8.29a20.94,20.94,0,0,1,2.93-.9c1.87-.41,3.3-.33,3.81.21S110.73,26.62,110.28,28.28Z"/><path class="cls-3" d="M111,83.44A3.69,3.69,0,0,1,107.7,82c-1.35-1.86-.44-4.37-.33-4.66,0-.07.14-.43.49-2A3.77,3.77,0,0,1,107,72.5v-.11a4.07,4.07,0,0,1,2.08-3.31c.66-3.19,2.12-11.15,2.66-14.13v0l.16-.7c.4-1.83.92-4.2,2.92-5.71h0c-3.5,1.25-4.18,4.37-4.68,6.64l-.16.7v.05c-.54,3-2,10.94-2.66,14.13a4.08,4.08,0,0,0-2.08,3.31v.11a3.77,3.77,0,0,0,.83,2.84c-.35,1.57-.46,1.92-.49,2-.11.28-1,2.8.32,4.66a3.69,3.69,0,0,0,3.3,1.46l.47-.05a6.41,6.41,0,0,0,2.66-1.17,5.33,5.33,0,0,1-.86.22A4,4,0,0,1,111,83.44Z"/><path class="cls-3" d="M122.75,80.1a6.1,6.1,0,0,1-1.56-3.49v0c0-.21-.09-.42-.14-.63l0-.07v0c-.06-.3-.11-.59-.16-.87l-2.14.46h-.06l-1.17.26-.15.59,1.72-.37c0,.28.1.57.16.87v0l0,.07c.05.21.1.41.14.63v0A6.1,6.1,0,0,0,121,81a3.91,3.91,0,0,0,3.39.87,5.44,5.44,0,0,0,2.55-1.13,5.57,5.57,0,0,1-.75.18A3.91,3.91,0,0,1,122.75,80.1Z"/><path class="cls-4" d="M120.31,48.23a13.27,13.27,0,0,0-3.26.53c-2.83,1-3.37,3.5-3.85,5.7l-.16.71c-.62,3.46-2.21,12.12-2.79,14.76a3,3,0,0,0-1.93,2.52v.12a2.32,2.32,0,0,0,1,2.3c-.25,1.15-.58,2.6-.71,2.93,0,.08-.8,2.09.17,3.43a2.38,2.38,0,0,0,2.18.93l.34,0h0a5.47,5.47,0,0,0,2.81-1.54c1.22-1.37,2-4.4,2.35-6l2-.43c1.16-.26,2.35-.52,3.51-.74l.1.61c.08.49.16,1,.27,1.53l0,.07c.06.21.1.45.16.7a5.08,5.08,0,0,0,1.17,2.81,2.66,2.66,0,0,0,2.31.55,4,4,0,0,0,2.25-1.12c1.72-1.85,1-4.72.41-6.82l-.1-.37c-.8-3.34-1.85-6.68-2.87-9.92s-2-6.33-2.74-9.41c0-.18-.07-.37-.1-.56a4,4,0,0,0-1.61-3.1A3.21,3.21,0,0,0,120.31,48.23Zm-1.53,19.84-1.3.28c.32-2,.67-5,1-7.75.74,2.33,1.49,4.72,2.1,7.09Z"/><path class="cls-3" d="M19.87,72.12l-1.28.2c0,.23,0,.44,0,.65,1.44-.25,2.64-.49,3.53-.72a10.62,10.62,0,0,0,3.36-1.45c-.61.23-1.17.39-1.56.5C22.93,71.57,21.56,71.84,19.87,72.12Z"/><path class="cls-3" d="M11,98.8a4.75,4.75,0,0,1-2.11-4.45s.12-4.11.18-9.24A7,7,0,0,1,7.9,83a3.76,3.76,0,0,1,1.21-4.17c0-2.62,0-4.89-.11-6.9a3.9,3.9,0,0,1-1-2,4.33,4.33,0,0,1,1.69-4,5.24,5.24,0,0,0-1.66.82,4.38,4.38,0,0,0-1.83,4.07,3.9,3.9,0,0,0,1,2c.06,2,.1,4.28.11,6.9A3.76,3.76,0,0,0,6.1,84a7,7,0,0,0,1.19,2.1c-.06,5.13-.18,9.2-.18,9.24a4.75,4.75,0,0,0,2.11,4.46,6.11,6.11,0,0,0,3.13.53,4.16,4.16,0,0,0,2.19-1l-.4.08A6.09,6.09,0,0,1,11,98.8Z"/><path class="cls-3" d="M18.59,85.48c0,.21,0,.41,0,.61l1.63-.3A21.35,21.35,0,0,0,24,85a4.55,4.55,0,0,0,1.21-.76c-.5.13-1.37.29-3.23.62C20.94,85,19.67,85.26,18.59,85.48Z"/><path class="cls-4" d="M26.86,64.78a3.49,3.49,0,0,0-3.09-.64l-.21,0c-1,.2-2.49.41-4,.64-1.15.17-2.36.34-3.48.53-3.64.6-4.79,1-5.39,1.51a3.13,3.13,0,0,0-1.35,2.88,2.63,2.63,0,0,0,1,1.66c.08,2.3.12,5,.13,8.11A2.57,2.57,0,0,0,9.12,82.6a5.57,5.57,0,0,0,1.26,2c-.05,5.43-.18,9.75-.18,9.78,0,.41,0,2.49,1.44,3.28h0a3.81,3.81,0,0,0,2.3.39A3.26,3.26,0,0,0,16.2,96.5c.95-1.5,1.1-8.3,1.1-12.07,1.24-.27,3-.58,4.48-.85a24.79,24.79,0,0,0,3.53-.72c1.38-.59,2.06-1.83,2-3.67a2,2,0,0,0-.64-1.49,3.17,3.17,0,0,0-2.34-.61c-.67.06-4.5.67-6.93,1.07,0-1.72-.05-4.07-.14-6.94a64,64,0,0,0,6.35-1.15c1.9-.53,4.06-1.36,4-3.16A2.51,2.51,0,0,0,26.86,64.78Z"/><path class="cls-3" d="M94.9,66.67a18.69,18.69,0,0,1-1.14,5.55c0,.84,0,1.67-.07,2.47a16.44,16.44,0,0,0,3-9c.21-3.87-.46-5.62-.87-6.05h-.26s-.66,0-1.54.12c0,.26,0,.53,0,.81h0C94.44,61,95.11,62.8,94.9,66.67Z"/><path class="cls-3" d="M84.32,84.48c-.61-1.72,0-21.48.11-25.08a4,4,0,0,1-.84-3.17,4.58,4.58,0,0,1,2-3.18c-1.83.72-3.54,1.94-3.84,4.13a4,4,0,0,0,.84,3.17c-.11,3.6-.72,23.36-.11,25.08.55,1.54,2.17,3,5.1,2.54a20.1,20.1,0,0,0,5.92-2.4A16,16,0,0,1,89.42,87C86.49,87.49,84.86,86,84.32,84.48Z"/><path class="cls-4" d="M102.94,55.34a6.31,6.31,0,0,0-6.61-3.48c-1.88.14-3.45.32-4.79.54-2.92.48-6.31,1.37-6.67,4a2.65,2.65,0,0,0,.87,2.49c-.2,4.94-.66,23.86-.2,25.16.23.66,1.05,2.13,3.68,1.7h0c2.82-.46,6.73-3,7.13-3.23a16.85,16.85,0,0,0,6.89-8.66C105.16,68.06,105,59.77,102.94,55.34ZM98,65.79c-.37,6.91-3.57,10.47-5.68,12.09.18-5.3.45-15.27.43-19.18l.24,0a20.73,20.73,0,0,1,2.56-.25h.1a1.23,1.23,0,0,1,1.06.34C97.69,59.66,98.17,62.3,98,65.79Z"/><path class="cls-3" d="M60.44,91.66a3.92,3.92,0,0,1-4.39-3.58v-.41c.37-4.49.63-14.12.79-19.87v-.35c0-1.73.08-3,.11-3.57C57.08,61,57.75,59,59,58a7.83,7.83,0,0,0-1,.43c-1.72.84-2.64,2.94-2.78,6.41,0,.59-.06,1.84-.11,3.57v.35c-.16,5.75-.42,15.38-.79,19.87V89a3.92,3.92,0,0,0,4.39,3.58l.57-.07a5.12,5.12,0,0,0,2.52-1.11,6.55,6.55,0,0,1-.72.16Z"/><path class="cls-3" d="M75.06,89.43h-.13a4.08,4.08,0,0,1-3.7-1.57l-.09-.1c-.55-.61-3-5.64-5-9.67,0,1.6-.11,3-.19,4.25a63.4,63.4,0,0,0,3.35,6.36l.09.1a4.08,4.08,0,0,0,3.7,1.57h.18A6,6,0,0,0,76,89.2a6.45,6.45,0,0,1-.93.23Z"/><path class="cls-3" d="M71.24,59.39A5.34,5.34,0,0,1,73,55.75c-.29.09-.55.18-.76.27h-.05a5.12,5.12,0,0,0-2.77,4.3c-.09.91-.15,1.9-.2,2.93l1.67,3.8C70.95,64.27,71,61.61,71.24,59.39Z"/><path class="cls-4" d="M77.79,55.5a3.52,3.52,0,0,0-.71.06,14.5,14.5,0,0,0-2.52.7,3.9,3.9,0,0,0-2,3.23h0c-.33,3.53-.34,8.27-.36,12.86,0,.24,0,.48,0,.71q-2.17-4.85-6-13.53l-.36-.83c-.54-1.28-2.21-1-2.76-.92a10.59,10.59,0,0,0-2.75.84c-1.25.6-2,2.39-2.08,5.32,0,.62-.06,2-.12,3.86-.16,5.78-.42,15.44-.8,20V88a2.63,2.63,0,0,0,3,2.4l.46-.06a3.56,3.56,0,0,0,3-2.32c1-2.33,1.21-8.91,1.21-15.45,2.69,5.71,6.6,13.77,7.13,14.37l.09.1a2.81,2.81,0,0,0,2.62,1.15h.09a4.51,4.51,0,0,0,3.53-2.78l.06-.2c.57-2.68.75-17,.77-18.61,0-.28.38-7,.34-9.13A1.82,1.82,0,0,0,77.79,55.5Z"/><path class="cls-3" d="M43.18,68.88a14.89,14.89,0,0,0-.88,1.85c.36,1,.89,3.24.59,7.91a22.12,22.12,0,0,1-1.23,5.93,4.62,4.62,0,0,0,.53,1.14c1-.57,2.26-4.48,2.49-8,.41-6.33-.71-8.26-.87-8.5A2,2,0,0,0,43.18,68.88Z"/><path class="cls-3" d="M33.74,90.9C30.83,86.87,30,78.73,31.79,72c.7-2.73,2-7.77,6.67-10.4a5.85,5.85,0,0,1,.81-.74,6.06,6.06,0,0,0-2.6,1.69C32,65.13,30.7,70.18,30,72.9c-1.8,6.77-1,14.92,1.95,18.94s6.34,4.45,8.67,4.07a12,12,0,0,0,3-1A9.45,9.45,0,0,0,45,94.19a11.5,11.5,0,0,1-2.57.77C40.08,95.34,36.68,95,33.74,90.9Z"/><path class="cls-4" d="M47.71,62.2a8.35,8.35,0,0,0-5.44-1.32,4.81,4.81,0,0,0-3,1.68c-4,2.14-5.33,6.13-6.25,9.7-1.69,6.34-.92,14.19,1.74,17.87,2,2.83,4.55,4,7.42,3.55a10.74,10.74,0,0,0,2.72-.87c6-2.76,7.45-12.58,7.51-13C54,70.72,52.5,64.94,47.71,62.2ZM46,77.77c-.19,2.86-1.35,8.88-3.75,9.27l-.22,0a.75.75,0,0,1-.57-.27c-1.07-1-1.82-4.16-1.86-7.8,0-1.61.1-7.08,2.88-11.4a2.81,2.81,0,0,1,2.18.61C45.15,68.57,46.4,71,46,77.77Z"/><path class="cls-5" d="M78.76,118.11a200.24,200.24,0,0,1,27.73-9.46,110.19,110.19,0,0,1,24.24-3.24v1.82s-10.43-.57-26.29,3.29C91.3,113.73,78.76,118.11,78.76,118.11Z"/></g></g></svg>