<svg xmlns="http://www.w3.org/2000/svg" viewBox="0 0 249.2 171.39"><defs><style>.cls-1{fill:#edeef0;}.cls-2{fill:#efc600;}.cls-3{fill:#e16633;}.cls-4{fill:#fff;}.cls-5{fill:#f3dcc0;}.cls-6{fill:#540f4f;}.cls-7{fill:#423f40;}.cls-8{fill:#682666;}.cls-9{fill:#5b5b5f;}.cls-10{fill:#ffe100;}.cls-11{fill:#e1b900;}.cls-12{fill:#f5b53d;}.cls-13{fill:#3e270d;}.cls-14{fill:#e25e50;}.cls-15{fill:#1e120d;}.cls-16{fill:#cf0a2c;}.cls-17{fill:#950a53;}.cls-17,.cls-18,.cls-19{fill-rule:evenodd;}.cls-18{fill:#ffce00;}.cls-19{fill:#ce0055;}</style></defs><title>Recurso 17</title><g id="Capa_2" data-name="Capa 2"><g id="Capa_1-2" data-name="Capa 1"><ellipse class="cls-1" cx="114.54" cy="163.17" rx="78.33" ry="8.22"/><path class="cls-2" d="M239.92,51.41A2.48,2.48,0,0,0,244,48.64a2.18,2.18,0,0,0-.46-.5l-5.05-7.51,4.83-5.51,3.25,4.83a2.55,2.55,0,0,0-1.44.43,2.58,2.58,0,1,0,3.6.69l-.1-.14h0l-4.54-6.76a.85.85,0,0,0-1.19-.23l0,0-5.27,5.93a.85.85,0,0,0-.18,1.15l4.36,6.49a2.52,2.52,0,0,0-1.23.41A2.5,2.5,0,0,0,239.92,51.41Z"/><path class="cls-3" d="M10.67,141.64a2.65,2.65,0,0,0,5-1.6,2.32,2.32,0,0,0-.32-.65l-2.92-9.2,6.59-4.2,1.88,5.91a2.72,2.72,0,0,0-1.6,0,2.75,2.75,0,1,0,3.48,1.79l-.06-.17h0l-2.63-8.28a.9.9,0,0,0-1.15-.59l-.05,0-7.17,4.5a.9.9,0,0,0-.52,1.12l2.52,7.95a2.69,2.69,0,0,0-1.38.06A2.66,2.66,0,0,0,10.67,141.64Z"/><path class="cls-4" d="M204,82.88a1.59,1.59,0,0,0,2.92,1.24,1.39,1.39,0,0,0,.11-.42l2.27-5.32,4.64.67-1.46,3.42a1.63,1.63,0,0,0-.73-.62,1.65,1.65,0,1,0,.88,2.17l0-.1h0l2-4.79a.54.54,0,0,0-.29-.72h0l-5-.76a.54.54,0,0,0-.68.31l-2,4.6a1.61,1.61,0,0,0-.65-.51A1.6,1.6,0,0,0,204,82.88Z"/><path class="cls-5" d="M108.14,102.91c-4-.83-8.28.07-12.38-.4a2.09,2.09,0,0,1-1.22-.43.45.45,0,0,1-.17-.45.54.54,0,0,1,.22-.24,13.36,13.36,0,0,1,3.12-1.65c.21-.08.46-.24.39-.44a.37.37,0,0,0-.13-.16,2.34,2.34,0,0,0-.79-.37c-1.52-.46-3.16-.57-4.57-1.32a2.31,2.31,0,0,1-1.27-1.37.83.83,0,0,1,.09-.67,1.13,1.13,0,0,1,1.08-.27,32.33,32.33,0,0,0,5.2.66,1.42,1.42,0,0,0,1.05-.37,7.29,7.29,0,0,0-1.82-.64,13.82,13.82,0,0,1-3.67-1.64,5.11,5.11,0,0,1-1.52-1.35,1.33,1.33,0,0,1-.27-.72.63.63,0,0,1,.39-.62,1,1,0,0,1,.43,0A28.93,28.93,0,0,1,98.42,92c.72.27,1.63.53,2.18,0a.51.51,0,0,0,.18-.39.63.63,0,0,0-.11-.28C99.71,89.82,98,89,96.5,88a2.05,2.05,0,0,1-.76-.77.78.78,0,0,1,.22-1,1.12,1.12,0,0,1,.87,0,15.46,15.46,0,0,1,4.62,2.11,1.69,1.69,0,0,0,1.18.43.32.32,0,0,0,.24-.15.42.42,0,0,0,0-.31,4,4,0,0,1,0-2.58c.11-.3.3-.62.61-.66s.67.31.84.65a15.1,15.1,0,0,1,.75,2.33,11.94,11.94,0,0,0,1.08,2.53,5,5,0,0,0,1.69,1.9,6.14,6.14,0,0,0,2.69.69Z"/><path class="cls-6" d="M133.28,85.5l3.17-6.65s2.61-4.51,6.41-2.78,4.85,3.73,3.54,8.3-7,16.56-7,16.56-3.69,5.5-9.38,6-21.88-4-21.88-4l2.39-9.72,16.87.41s2,.35,3.57-2.44A27.61,27.61,0,0,0,133.28,85.5Z"/><path class="cls-5" d="M95.32,112.8c2.19,1.07,13.06.35,19.61-.76a13.94,13.94,0,0,0,3.58-1.27c.49-.23,2-1.12,1.57-1.74-.28-.45-3-.48-3.67-.49a7.61,7.61,0,0,0,3.3-1.18,2.38,2.38,0,0,0,.82-.79,1,1,0,0,0,0-1.09c-.37-.5-1.14-.38-1.72-.18a20.41,20.41,0,0,0-3.56,1.56,40.51,40.51,0,0,0,4.5-2.73c.33-.23,2.11-2.28,1.3-3.17a1.53,1.53,0,0,0-1.31-.53c-2.17.21-4,1.6-5.74,2.94l4-3c.64-.47,1.36-1.14,1.16-1.91a.6.6,0,0,0-.34-.43.79.79,0,0,0-.31,0,7.48,7.48,0,0,0-5.88,3.49,11.49,11.49,0,0,0,1-2,3.58,3.58,0,0,0,.29-1.47,1.53,1.53,0,0,0-.72-1.25c-.77-.42-1.73,1.19-2.34,1.82a31.15,31.15,0,0,0-2,2.61,16,16,0,0,1-2.29,2.38,6.25,6.25,0,0,1-2.15,1.29,7.75,7.75,0,0,1-2.13.24,9.5,9.5,0,0,1-4.21-.56,7.6,7.6,0,0,1-3.05-3.8l-2-.08V113Z"/><path class="cls-5" d="M92.6,133.8H79.69s6.75,18.32,7,25.4h8.24S95.51,149.84,92.6,133.8Z"/><path class="cls-7" d="M94.89,159.21A74.72,74.72,0,0,1,106.44,161c4.48,1.25-3.12,5-13.12,2.71a33.48,33.48,0,0,0-4.06-1.15l-.83,1.87h-2s-1.25-1.66-.31-5.2Z"/><path class="cls-5" d="M77.81,133.8s-3.85,12.7-6.35,16.87-4.79,6.14-5.52,9.58H58.47A58.12,58.12,0,0,0,62.3,150c.94-4.27,1.46-16.24,1.46-16.24Z"/><path class="cls-5" d="M167.72,73s-2.09,3.62-2.19,4.74c0,0-12.21,7.72-17.85,6.9-5.17-.75-5.41-7.42-5.23-10.1a20.84,20.84,0,0,0,.33-3.53A81.38,81.38,0,0,1,133,68c-2.75-1.28-3.77-2-3.62-5.44,0,0,.25-1.78.53-3.48.24-1.44,4.41.59,4.57-1.65,0-.73-4.12-.63-3.85-2.65a40.44,40.44,0,0,1,.84-4.43s-3-1.48-2.91-2.86,14.21-22,17.71-22.8l33.6,28.62Z"/><path class="cls-5" d="M71.77,72.2s4,5.9,4.59,6.78c3.07,4.27,11.53,13.47,15,12.24,7.3-2.58,3.42-19.72,5.51-22.24a37.1,37.1,0,0,1,5.89-5.44c2.32-1.79,3.81-3,2.24-5.9-.49-.91-1-2-1.5-3.13-.6-1.44-2.7.34-3.95-1.83-.22-.38,3.47-1.21,2.83-2.59s-1.4-2.93-1.69-3.75c0,0,2.47-2,2.12-3.32-.24-.89-8.91-9.08-15.34-14-2.81-2.15-7.84-.12-8.9-.12L55.74,59.55Z"/><path class="cls-8" d="M165.53,77.76s7.6,8.53,6.68,18.67-2.73,12.47-3.14,13.7-4.08,9.23-4.39,12.3H134.79l-1.64-23s-1.59-15.37,9.37-25.2a19.46,19.46,0,0,1,4.26,4,10.56,10.56,0,0,1,1.44,4.09S152.36,76.71,165.53,77.76Z"/><path d="M158.51,20.07s-3.37-.15-5.13,0-7.5.08-7.19,3.6,1.45,7.8,7.65,13.54,8.65,12.7,7.42,15.53S157,60.93,157,60.93l3,2L164,56.64s2.3-3.52,5.59-1.61,1.15,5.81-.38,7a5.38,5.38,0,0,1-3.75,1.43s-.56,7.4,2.24,9.59a124.36,124.36,0,0,1,8.72-11.12c5.36-6.12,10-10.1,8.62-21.17S162.37,20.13,158.51,20.07Z"/><path d="M166.07,56.8l.07,0a2,2,0,0,1,2.12,0A1.65,1.65,0,0,1,169,58a2.78,2.78,0,0,1-1,2.15h0a4.69,4.69,0,0,1-3,1.08,5.64,5.64,0,0,0-1.21.19l-1.31.4Zm.63.69-2.09,2.88.26,0a3.83,3.83,0,0,0,2.47-.84h0A1.87,1.87,0,0,0,168,58.1a.75.75,0,0,0-.3-.58.85.85,0,0,0-.5-.15A1.25,1.25,0,0,0,166.71,57.49Z"/><path class="cls-9" d="M134.79,122.42s-13.21,6.07-13.89,6.62-5.66,3.21-3.41,9.28,7.3,18,7.3,18h10a57.62,57.62,0,0,0-2.42-16.24H146.7a9.44,9.44,0,0,0,4.16-.72l14.54,17h13a81.62,81.62,0,0,0-12.08-20.61s.55-4-1.6-13.31Z"/><path class="cls-7" d="M178.37,156.34l3,6.55h-4.16s-.82-1.84-1.84-1.84-.55,1.43-1.5,1.84a16.79,16.79,0,0,1-5.49.68c-2.43,0-8.91.2-10.69-.48a3.21,3.21,0,0,1-2.25-2.32c0-.34.14-1,2.93-1.09s6.28-.82,7-3.34Z"/><path class="cls-7" d="M135.24,156.34l1.3,6.55h-4.78s-.11-1.84-1.13-1.84-.55,1.43-1.5,1.84a16.79,16.79,0,0,1-5.49.68c-2.43,0-7.3.2-9.08-.48a3.21,3.21,0,0,1-2.25-2.32c0-.34.14-1,2.93-1.09s8.8-.82,9.56-3.34Z"/><path d="M155.84,47.59a.46.46,0,0,1-.59-.15,12.48,12.48,0,0,0-3.7-4.92,52.67,52.67,0,0,0-6.3-4c-.82-.43-1.76-1.12-1.45-1.71s.92-.89,2.39-.18a53.36,53.36,0,0,1,6.13,4.06C153.29,41.47,156.83,46.13,155.84,47.59Z"/><path class="cls-5" d="M119.13,96c-3.21-3.14-7.63-4.81-11.11-7.65a2.28,2.28,0,0,1-.86-1.11.49.49,0,0,1,.11-.51.59.59,0,0,1,.34-.09,14.55,14.55,0,0,1,3.83.32c.23.05.56.06.62-.18a.4.4,0,0,0,0-.23,2.55,2.55,0,0,0-.51-.81c-1.12-1.32-2.56-2.39-3.41-3.9a2.51,2.51,0,0,1-.35-2,.9.9,0,0,1,.47-.56c.4-.16.82.11,1.15.39a35.22,35.22,0,0,0,4.38,3.66,1.54,1.54,0,0,0,1.18.28A7.94,7.94,0,0,0,113.66,82a15.06,15.06,0,0,1-2.39-3.67,5.57,5.57,0,0,1-.6-2.13,1.45,1.45,0,0,1,.17-.82.69.69,0,0,1,.72-.33,1,1,0,0,1,.39.25,31.52,31.52,0,0,1,4.7,5c.5.67,1.18,1.45,2,1.28a.55.55,0,0,0,.39-.25.68.68,0,0,0,.06-.32c0-1.95-1.12-3.68-1.88-5.47a2.24,2.24,0,0,1-.25-1.16.85.85,0,0,1,.78-.77,1.22,1.22,0,0,1,.8.5,16.84,16.84,0,0,1,3,4.65,1.84,1.84,0,0,0,.82,1.09.35.35,0,0,0,.31,0,.46.46,0,0,0,.16-.3,4.35,4.35,0,0,1,1.56-2.35,1,1,0,0,1,.95-.25c.38.17.43.68.39,1.09A16.45,16.45,0,0,1,125,80.6a13,13,0,0,0-.49,3,5.48,5.48,0,0,0,.43,2.74A6.69,6.69,0,0,0,127,88.5Z"/><path class="cls-6" d="M155.2,87.77a4.27,4.27,0,0,0,1.57-.33c7.49-2.66,11.12-6,11.28-6.18l-1-1.58a33.82,33.82,0,0,1-10.92,6,1.91,1.91,0,0,1-1.19.15c-.06,0-.12-.06-.18-.22-.7-1.85-1.84-4.9-2.91-6l-.84.43c-.35.19-.81.49-.81.49A23.62,23.62,0,0,1,153,86.3a2.17,2.17,0,0,0,1.2,1.27A2.62,2.62,0,0,0,155.2,87.77Z"/><path class="cls-6" d="M143.34,84.18l.25,0a1.34,1.34,0,0,0,1-1A27.72,27.72,0,0,1,147.29,79s-.29-.55-.55-.94c-.13-.19-.56-.71-.56-.71a46.93,46.93,0,0,0-3.09,4.72,31.74,31.74,0,0,1-3.82-4.4l-1.16,1.48C141.21,83.24,142.41,84.18,143.34,84.18Z"/><path class="cls-10" d="M159.5,19.7a29.92,29.92,0,0,0,5.75-7c1.41-2.69,2-6,.68-8.77a8.33,8.33,0,0,1-.83-2,1.64,1.64,0,0,1,.82-1.83,2.17,2.17,0,0,1,1.45.12,19.86,19.86,0,0,1,7.43,4.54,1.39,1.39,0,0,1,.54,1,1.41,1.41,0,0,1-.72,1,26.52,26.52,0,0,0-4.05,3.14A5.43,5.43,0,0,0,169,14.49,1.59,1.59,0,0,0,170,15.82a1.64,1.64,0,0,0,.86-.13c2.92-1.09,4.21-4.55,6.79-6.3a108.62,108.62,0,0,0-.86,11,2.19,2.19,0,0,0,.48,1.75,2,2,0,0,0,1.47.33A12.45,12.45,0,0,0,187,18.63c.47-.5,1.06-1.09,1.72-.93-.2,3.73-2.15,7.37-1.48,11,.15.84.6,1.8,1.45,1.91a1.73,1.73,0,0,0,1.57-.89,15.26,15.26,0,0,0,.8-1.73,5.07,5.07,0,0,1,7.56-1.88c.51.38,1,1.06.65,1.6a1.49,1.49,0,0,1-.58.46A47.43,47.43,0,0,0,184.2,40.79s-9.51-8.86-13-11.8C168.51,26.66,159.5,19.7,159.5,19.7Z"/><circle class="cls-11" cx="182.97" cy="32.25" r="1.15"/><circle class="cls-8" cx="179.75" cy="29.3" r="1.15"/><circle class="cls-8" cx="170.91" cy="22.58" r="1.15"/><circle class="cls-11" cx="167.46" cy="20" r="1.15"/><path class="cls-12" d="M184.81,40l-.07-.07h0c-3.6-4.53-8.28-8.33-12.69-12-2.35-2-4.73-3.9-7.17-5.76A30.48,30.48,0,0,0,160.39,19a.46.46,0,0,1-.13-.1l.66-.66a31.08,31.08,0,0,1,4.43,3.08c2.4,1.83,4.75,3.73,7.07,5.66,4.49,3.75,9.27,7.61,12.93,12.2l0,.07Z"/><path class="cls-13" d="M90.61,34.53s0,.69-.57.77a13.91,13.91,0,0,0-9.2,6.5s-.83,1.38-1.86,1-.77-1.72.46-3.33,5.2-5.62,9.45-5.36C88.89,34.11,90.42,34,90.61,34.53Z"/><path class="cls-13" d="M87,28.7S85.75,26,79.68,25.53,56.12,28.64,52.44,41.29,51.07,60.4,47.19,62.58s-9.69,4.67-9.74,9.82,1.18,15.76,18.29,15.91c0,0,4.2-19.89,13.23-15.81,0,0,7-1.79,8.62-5.41s.51-5.87-.31-6.58S71,57.81,72.13,50.11s3.24-12.85,6.21-15.3S88.13,31.92,87,28.7Z"/><path class="cls-10" d="M78,25.67a26.58,26.58,0,0,1-3.81-7.1,9,9,0,0,1,.91-7.76,7.39,7.39,0,0,0,1.07-1.6,1.46,1.46,0,0,0-.4-1.74,1.92,1.92,0,0,0-1.29-.14A17.64,17.64,0,0,0,67.27,10a1.24,1.24,0,0,0-.64.74,1.25,1.25,0,0,0,.46,1,23.56,23.56,0,0,1,3,3.44,4.82,4.82,0,0,1,.61,4.35,1.41,1.41,0,0,1-1.17,1,1.45,1.45,0,0,1-.73-.26c-2.36-1.45-2.88-4.69-4.84-6.65a96.47,96.47,0,0,1-1.13,9.73,1.94,1.94,0,0,1-.72,1.45,1.79,1.79,0,0,1-1.34,0A11.06,11.06,0,0,1,54.22,20c-.32-.52-.73-1.13-1.34-1.1-.47,3.29.61,6.79-.6,9.88-.28.71-.83,1.46-1.59,1.41a1.54,1.54,0,0,1-1.22-1,13.55,13.55,0,0,1-.4-1.64,4.51,4.51,0,0,0-6.26-2.94c-.51.24-1,.76-.84,1.29a1.33,1.33,0,0,0,.42.5A42.13,42.13,0,0,1,52.89,39.81s9.81-6.09,13.32-8.06C69,30.19,78,25.67,78,25.67Z"/><circle class="cls-11" cx="55.42" cy="32.58" r="1.02" transform="translate(12.74 80.65) rotate(-78.85)"/><circle class="cls-14" cx="58.74" cy="30.56" r="1.02" transform="translate(17.39 82.28) rotate(-78.85)"/><circle class="cls-14" cx="67.6" cy="26.22" r="1.02" transform="translate(28.8 87.47) rotate(-78.85)"/><circle class="cls-11" cx="71.04" cy="24.57" r="1.02" transform="translate(33.2 89.52) rotate(-78.85)"/><path class="cls-12" d="M52.5,39.05a.49.49,0,0,0,.16-.09c3.92-3.34,8.69-5.84,13.18-8.31,2.37-1.3,4.75-2.56,7.18-3.75A26.63,26.63,0,0,1,77.36,25a.47.47,0,0,0,.17-.08L77,24.15A28.3,28.3,0,0,0,72.68,26c-2.47,1.21-4.9,2.49-7.31,3.81-4.54,2.49-9.32,5-13.3,8.39Z"/><path class="cls-15" d="M65.43,28.61a0,0,0,0,0,0,0,1.54,1.54,0,0,1-.92-.07,5.1,5.1,0,0,1-1.13-.57c-.07-.05,0-.08,0-.08h0a1.08,1.08,0,0,0,.16-1.16c-.34-.65-1.05-.53-1.61-.24l-.49.27c-.25.13-.42.19-.46.21a.07.07,0,0,0,0,.1c.08.16.3-.3.57.23l1.08,2.1c.25.49-.16.53-.1.64s.07,0,.1,0l.47-.26c.26-.13.33-.15.48-.23s.12-.09.1-.12-.42.32-.74-.31L61.71,26.9c-.07-.13,0-.18.17-.25a.92.92,0,0,1,1.33.34.77.77,0,0,1-.35,1.07.86.86,0,0,1-.16.07,0,0,0,0,0,0,.06.09.09,0,0,0,.11,0,.53.53,0,0,1,.39.08c.55.33,1.26.9,2,.5.29-.15.24-.17.23-.19"/><path class="cls-16" d="M57.19,142a37.77,37.77,0,0,1,3.16-16.24s8.16-12.11,10-15.88,2.55-8.37-3.88-19.08c0,0,3.54-4,4.57-7.57A11.28,11.28,0,0,0,69,72.5l2.26-.74A3.9,3.9,0,0,1,72.32,73c.71,1.05,5.3,8.63,9.65,12.48s6.43,6,9.39,5.73,4.7-6.83,4.75-12.5a48,48,0,0,1,4,7.24c.92,2.6,1.84,5.15,0,8s-6,7.75-5.25,13.11,1.15,12.09,5.84,19.38c2.14,3.33,3,10.2,3,15.6a1.11,1.11,0,0,1-1.12.85c-1,.08-43.76,0-43.76,0S57.19,143,57.19,142Z"/><path class="cls-5" d="M64,111.79l5,.22a3.15,3.15,0,0,1,1.28.24,1.08,1.08,0,0,1,.64,1c-.09.63-.86.9-1.49,1a14.31,14.31,0,0,1-2.36.12,35.35,35.35,0,0,1,4,1.12,6.69,6.69,0,0,1,1.52.68c.54.35,1,1,.76,1.61s-1.15.7-1.84.62a16.77,16.77,0,0,1-5.17-1.5l4.38,2.4a6.61,6.61,0,0,1,2.11,1.55,1.18,1.18,0,0,1,.29.61c.05.65-.75,1-1.39,1a5.33,5.33,0,0,1-2-.73l-4.78-2.49a19.59,19.59,0,0,1,3.21,3.17c.33.41.64,1,.31,1.41a1,1,0,0,1-.64.31,4.51,4.51,0,0,1-2.94-.62,13.3,13.3,0,0,1-2.41-1.89A10.12,10.12,0,0,1,64.32,124c.19.32.34.77.08,1a.76.76,0,0,1-.5.18A4.13,4.13,0,0,1,61,123.8c-4-3.72-7-8.47-11-12.25,0,0-3.61-4.56-2.08-8s6.23-10.76,7.78-15.2,1.56-7.39,6-13.82,12.15-1.29,8.83,10a38.45,38.45,0,0,1-4.14,6.36c-2.35,2.81-9.95,12.65-10.2,13.31a2.06,2.06,0,0,0,.31,2.5C57.49,107.65,60,111.61,64,111.79Z"/><path class="cls-7" d="M66.82,159.21A74.72,74.72,0,0,1,78.37,161c4.48,1.25-3.12,5-13.12,2.71a33.48,33.48,0,0,0-4.06-1.15l-.83,1.87h-2s-1.25-1.66-.31-5.2Z"/><path d="M91.45,40c-.54,4-5.55,4.89-8.83,4.16-.58-.13-.33-1,.24-.89,2.83.63,7.23,0,7.7-3.52.08-.58,1-.33.89.24Z"/><path d="M90.94,40.59a6.11,6.11,0,0,0,3.28.45c.59,0,.59.89,0,.92a7,7,0,0,1-3.74-.57c-.52-.27-.06-1.06.46-.79Z"/><path d="M89.54,42.53a2.85,2.85,0,0,0,2.16,1.68c.58.1.33,1-.24.89A3.69,3.69,0,0,1,88.74,43c-.24-.53.55-1,.79-.46Z"/><path d="M87.15,44.06a2.16,2.16,0,0,0,.84,2c.46.37-.19,1-.65.65a3.07,3.07,0,0,1-1.07-2.93c.09-.58,1-.33.89.24Z"/><path d="M84.5,44.06a3.17,3.17,0,0,0,.75,2.58c.39.44-.26,1.1-.65.65a4.17,4.17,0,0,1-1-3.47c.09-.58,1-.33.89.24Z"/><path d="M138.3,42.53c3.21-2.45,7.38.47,9.19,3.3.32.5-.48,1-.8.45-1.56-2.45-5.14-5.09-7.94-3-.47.36-.92-.44-.45-.8Z"/><path class="cls-6" d="M145.86,122.42c-.49-13.4-.83-27.16,3-40.16h0a.62.62,0,0,0-.11-.61l-.55.58s-.13-.83-.15-.82a.6.6,0,0,0-.53.48c-3.89,13.11-3.56,27-3.07,40.53Z"/><path class="cls-6" d="M152.44,94.85l6.83-4.23s5.05-2.59,7.51,1.23,2.25,6.28-1.64,9.69S149,112.59,149,112.59s-6.62,2.87-12.15,0S119.13,96,119.13,96L127,88.5,142.27,98.8s1.64,1.5,4.71-.14A30.08,30.08,0,0,0,152.44,94.85Z"/><path class="cls-15" d="M176.1,28a0,0,0,0,0,0,0,1.54,1.54,0,0,1-.32-.86,5.1,5.1,0,0,1,0-1.27c0-.08.06-.06.06-.06h0a1.08,1.08,0,0,0,1.12-.34c.45-.58,0-1.18-.45-1.56-.18-.14-.26-.18-.45-.33s-.35-.3-.38-.33a.07.07,0,0,0-.1,0c-.11.14.39.15,0,.62l-1.46,1.86c-.34.43-.55.07-.63.18s0,.08,0,.1l.43.32c.23.18.28.24.41.34s.13.07.15,0-.46-.25,0-.81l1.54-2c.09-.12.18,0,.3,0a.92.92,0,0,1,.24,1.35.77.77,0,0,1-1.12.13.86.86,0,0,1-.13-.12,0,0,0,0,0-.06,0,.09.09,0,0,0,0,.11.53.53,0,0,1,.1.39c-.07.64-.29,1.52.39,2.05.25.2.25.15.27.13"/><path class="cls-17" d="M8.53,78.29c1.22.54,3.34-.42,4.33,0,.71.3,0,.71-.3.89a24.12,24.12,0,0,0-3.36,2.12c-.68.74-.21,1.65.11,2.38.68,1.52.77,2.33.36,2.52s-1-.05-1.45-.84c-.17-.28-.6-1-.78-1.26-.46-.5-.93-.92-1.69-.6-1.7.7-4.61,3-3.94,1.36a11.51,11.51,0,0,1,1-1.88c.44-.79,1.23-1.63.4-2.26-.56-.42-1.28-.82-1.89-1.22-.27-.15-.46-.32-.8-.54A2,2,0,0,1,0,78.38c-.09-.57.36-.58.84-.61s2.25.16,3.37.29c.78.09,1,0,1.18-1A8.4,8.4,0,0,1,6.55,74c.14-.18.28-.24.41-.22a.59.59,0,0,1,.38.54,8.29,8.29,0,0,0,.41,2.89c.06.14.18.39.28.6s.17.35.51.5Z"/><path class="cls-18" d="M117.5,7.85c.86,0,1.93-1,2.62-1,.5,0,.17.43,0,.61a15.66,15.66,0,0,0-1.54,2.07c-.24.61.26,1,.62,1.42.77.76,1,1.23.81,1.45s-.61.2-1.08-.17c-.17-.13-.61-.5-.77-.58-.4-.2-.78-.34-1.16,0-.86.82-2.1,2.89-2.07,1.74a7.47,7.47,0,0,1,.18-1.38c.09-.58.37-1.28-.28-1.46-.44-.13-1-.2-1.43-.3-.2,0-.35-.08-.61-.14a1.31,1.31,0,0,1-.47-.23c-.18-.33.08-.44.37-.57s1.4-.43,2.11-.61c.5-.13.6-.26.48-.88a5.45,5.45,0,0,1,0-2.14c0-.14.11-.21.2-.23a.39.39,0,0,1,.35.24,5.38,5.38,0,0,0,.92,1.66l.31.3a.52.52,0,0,0,.42.18Z"/><path class="cls-17" d="M215.8,84.59c.56.79,2.25,1,2.72,1.61.33.45-.26.45-.52.45a17.59,17.59,0,0,0-2.9.07c-.71.21-.75,1-.82,1.53-.14,1.21-.39,1.74-.72,1.72s-.6-.4-.6-1.07c0-.24,0-.88,0-1.08-.1-.49-.24-.92-.83-1-1.33-.19-4,.15-3-.62a8.39,8.39,0,0,1,1.34-.79c.57-.33,1.38-.56,1.09-1.26-.19-.48-.49-1-.73-1.47-.11-.2-.17-.37-.3-.64a1.47,1.47,0,0,1-.12-.57c.16-.39.45-.23.76-.07s1.35.94,2,1.44c.46.35.64.35,1.11-.18a6.12,6.12,0,0,1,1.87-1.51.31.31,0,0,1,.34,0,.43.43,0,0,1,0,.48,6,6,0,0,0-.82,2c0,.11,0,.31,0,.48a.58.58,0,0,0,.13.5Z"/><path class="cls-19" d="M211.1,132.7c1.33.07,3-1.59,4-1.57.76,0,.26.66,0,.94a24.12,24.12,0,0,0-2.38,3.19c-.37.94.39,1.62,1,2.18,1.18,1.18,1.55,1.9,1.24,2.23s-.94.31-1.66-.26c-.26-.2-.94-.76-1.18-.89-.61-.31-1.2-.52-1.79,0-1.33,1.27-3.23,4.45-3.19,2.68a11.51,11.51,0,0,1,.28-2.12c.13-.89.57-2-.44-2.25-.68-.2-1.48-.31-2.2-.46-.31,0-.55-.13-.94-.22a2,2,0,0,1-.72-.35c-.28-.5.13-.68.57-.87s2.16-.66,3.25-.94c.76-.2.92-.39.74-1.35a8.4,8.4,0,0,1,0-3.3c.07-.22.17-.33.31-.35a.59.59,0,0,1,.55.37A8.29,8.29,0,0,0,210,132c.11.11.31.31.48.46a.8.8,0,0,0,.65.28Z"/></g></g></svg>