<svg xmlns="http://www.w3.org/2000/svg" xmlns:xlink="http://www.w3.org/1999/xlink" viewBox="0 0 395.45 409.6"><defs><style>.cls-1{fill:none;}.cls-2{clip-path:url(#clip-path);}</style><clipPath id="clip-path" transform="translate(0 -0.32)"><rect class="cls-1" width="395.76" height="410.88"/></clipPath></defs><title>Recurso 2</title><g id="Capa_2" data-name="Capa 2"><g id="Capa_1-2" data-name="Capa 1"><g class="cls-2"><path d="M389.44,373.4,292,272a164.83,164.83,0,0,0,38.8-106.32C330.75,74.51,256.56.32,165.38.32S0,74.51,0,165.7,74.19,331.07,165.38,331.07a163.59,163.59,0,0,0,94.75-29.93L358.35,403.3a21.57,21.57,0,1,0,31.09-29.9ZM165.38,43.46A122.23,122.23,0,1,1,43.14,165.7,122.37,122.37,0,0,1,165.38,43.46Zm0,0" transform="translate(0 -0.32)"/></g></g></g></svg>