<svg xmlns="http://www.w3.org/2000/svg" viewBox="0 0 34.88 37.91"><defs><style>.cls-1{fill:#fff;}</style></defs><title>Recurso 1</title><g id="Capa_2" data-name="Capa 2"><g id="Capa_3" data-name="Capa 3"><path class="cls-1" d="M34.87,37.21c0-.26-.32-.33-.32-.33-3.12-.57-6-2.75-8.24-5.06A54,54,0,0,1,18.49,21c-.36-.8.15-.9.15-.9h0A11.31,11.31,0,0,0,25.72,10c0-7.7-7.3-10-13.87-10C9.38,0,8.54.21,6,.21,3,.21,1.15,0,.67,0A.72.72,0,0,0,0,.79C0,2.64,4.24-.51,4.24,5.71V30.5c0,5.73-4,4.13-4,5.52,0,.47.52.63.83.63,1.5,0,3.2-.21,5.63-.21,3.07,0,3.85.21,5.61.21,1.29,0,1.49-.25,1.49-.63,0-1.75-5.43.94-5.43-6.5V3.38c0-1.56,1.14-1.56,2.79-1.56,6,0,10.68,3.31,10.77,9.57a8.08,8.08,0,0,1-8.38,8.28,9.24,9.24,0,0,1-1.88-.11c-.25,0-.51.11-.51.46s.39.73.84.85a5.6,5.6,0,0,1,3.3,2.61h0c3.53,5.76,7.5,14.43,16.56,14.43C35.2,37.91,34.87,37.51,34.87,37.21Z"/></g></g></svg>