<svg xmlns="http://www.w3.org/2000/svg" xmlns:xlink="http://www.w3.org/1999/xlink" viewBox="0 0 42.4 42.4"><defs><style>.cls-1{fill:none;}.cls-2{clip-path:url(#clip-path);}.cls-3{fill:#e7eced;}.cls-4{fill:#556080;}</style><clipPath id="clip-path" transform="translate(0 -0.56)"><rect class="cls-1" width="42.96" height="43.92"/></clipPath></defs><title>Recurso 1</title><g id="Capa_2" data-name="Capa 2"><g id="Capa_1-2" data-name="Capa 1"><g class="cls-2"><path class="cls-3" d="M14.89,33.8,8.57,37.25a5.8,5.8,0,0,0-1,.72A21.19,21.19,0,0,0,34.77,38a5.62,5.62,0,0,0-1.11-.75l-6.77-3.39a2.59,2.59,0,0,1-1.43-2.31V28.94a9.36,9.36,0,0,0,.64-.82,15.53,15.53,0,0,0,2.11-4.24,2.13,2.13,0,0,0,1.51-2V19A2.11,2.11,0,0,0,29,17.44v-4.1S29.84,7,21.2,7s-7.8,6.38-7.8,6.38v4.1A2.12,2.12,0,0,0,12.69,19v2.84a2.14,2.14,0,0,0,1,1.78,14.09,14.09,0,0,0,2.57,5.3v2.59a2.59,2.59,0,0,1-1.35,2.26Zm0,0" transform="translate(0 -0.56)"/><path class="cls-4" d="M21.56.56A21.18,21.18,0,0,0,7.56,38a6,6,0,0,1,1-.71l6.33-3.45a2.58,2.58,0,0,0,1.34-2.27V28.94a14.09,14.09,0,0,1-2.56-5.31,2.12,2.12,0,0,1-1-1.78V19a2.12,2.12,0,0,1,.71-1.57v-4.1S12.56,7,21.2,7,29,13.34,29,13.34v4.1A2.12,2.12,0,0,1,29.71,19v2.84a2.13,2.13,0,0,1-1.51,2,15.64,15.64,0,0,1-2.11,4.24c-.24.33-.45.61-.64.82V31.6a2.58,2.58,0,0,0,1.43,2.31l6.78,3.39a5.53,5.53,0,0,1,1.11.74A21.19,21.19,0,0,0,21.56.56Zm0,0" transform="translate(0 -0.56)"/></g></g></g></svg>